{"glyphs":{"0":{"ha":501,"x_min":46,"x_max":454,"o":"m 314 231 l 314 742 q 300 821 314 800 q 252 843 286 843 q 202 821 217 843 q 187 742 187 799 l 187 231 q 202 151 187 174 q 252 127 217 127 q 300 150 286 127 q 314 231 314 173 m 46 229 l 46 743 q 100 932 46 875 q 252 989 153 989 q 454 743 454 989 l 454 229 q 252 -17 454 -17 q 100 40 154 -17 q 46 229 46 98 z "},"1":{"ha":315,"x_min":26,"x_max":260,"o":"m 26 939 l 260 972 l 260 0 l 115 0 l 115 827 l 26 812 l 26 939 z "},"2":{"ha":487,"x_min":39,"x_max":452,"o":"m 197 142 l 449 142 l 449 0 l 45 0 l 45 107 q 59 230 45 173 q 95 327 73 287 q 144 402 117 367 q 199 465 172 437 q 248 519 226 493 q 284 574 271 545 q 298 635 298 604 l 298 768 q 239 843 298 843 q 180 768 180 843 l 180 664 l 39 696 l 39 761 q 94 927 39 865 q 241 989 150 989 q 392 929 332 989 q 452 765 452 869 l 452 663 q 449 607 452 644 q 417 513 445 559 q 353 430 389 467 q 282 353 317 392 q 222 266 246 314 q 197 164 197 217 l 197 142 z "},"3":{"ha":475,"x_min":37,"x_max":436,"o":"m 436 336 l 436 192 q 377 37 436 90 q 231 -17 318 -17 q 92 40 146 -17 q 37 192 37 98 l 37 277 l 175 309 l 175 204 q 231 129 175 129 q 288 204 288 129 l 288 330 q 210 431 288 431 l 151 431 l 151 561 l 218 561 q 270 581 253 561 q 288 654 288 601 l 288 768 q 231 843 288 843 q 175 768 175 843 l 175 664 l 37 696 l 37 781 q 92 932 37 875 q 231 989 146 989 q 376 933 316 989 q 436 781 436 877 l 436 667 q 340 509 436 565 l 340 505 q 393 473 375 488 q 424 424 412 458 q 436 336 436 391 z "},"4":{"ha":471,"x_min":14,"x_max":460,"o":"m 14 204 l 14 334 l 232 972 l 404 972 l 404 346 l 460 346 l 460 204 l 404 204 l 404 0 l 260 0 l 260 204 l 14 204 m 260 762 l 125 346 l 260 346 l 260 762 z "},"5":{"ha":472,"x_min":37,"x_max":436,"o":"m 184 831 l 184 624 q 245 631 200 631 q 382 572 329 631 q 436 411 436 514 l 436 211 q 379 41 436 99 q 231 -17 323 -17 q 89 44 140 -17 q 37 210 37 105 l 37 277 l 175 309 l 175 204 q 231 129 175 129 q 288 204 288 129 l 288 396 q 262 475 288 448 q 197 501 237 501 q 114 473 155 501 l 57 538 l 57 972 l 422 972 l 422 831 l 184 831 z "},"6":{"ha":487,"x_min":37,"x_max":452,"o":"m 452 385 l 452 229 q 395 41 452 99 q 244 -17 339 -17 q 92 42 147 -17 q 37 229 37 101 l 37 743 q 92 932 37 875 q 244 989 146 989 q 393 929 344 989 q 441 761 441 869 l 441 696 l 298 664 l 298 768 q 241 843 298 843 q 194 821 208 843 q 180 742 180 800 l 180 525 q 232 560 201 547 q 296 574 262 574 q 353 564 326 574 q 402 532 379 553 q 438 473 425 511 q 452 385 452 435 m 180 431 l 180 250 q 194 155 180 182 q 244 127 208 127 q 294 155 281 127 q 307 252 307 182 l 307 374 q 288 431 307 410 q 240 452 269 452 q 180 431 213 452 z "},"7":{"ha":436,"x_min":18,"x_max":425,"o":"m 18 972 l 425 972 l 425 840 l 197 0 l 45 0 l 278 831 l 18 831 l 18 972 z "},"8":{"ha":493,"x_min":37,"x_max":456,"o":"m 245 564 q 313 648 313 564 l 313 778 q 245 852 313 852 q 180 778 180 852 l 180 648 q 245 564 180 564 m 245 119 q 313 195 313 119 l 313 335 q 297 405 313 382 q 245 427 281 427 q 195 405 210 427 q 180 335 180 382 l 180 195 q 245 119 180 119 m 245 -17 q 97 37 156 -17 q 37 192 37 90 l 37 336 q 57 437 37 401 q 119 497 76 474 q 37 657 37 546 l 37 781 q 97 933 37 878 q 245 989 157 989 q 395 933 335 989 q 456 781 456 877 l 456 657 q 374 497 456 546 q 436 437 417 474 q 456 336 456 401 l 456 192 q 396 37 456 90 q 245 -17 336 -17 z "},"9":{"ha":487,"x_min":36,"x_max":450,"o":"m 36 587 l 36 743 q 92 931 36 873 q 243 989 148 989 q 395 930 340 989 q 450 743 450 871 l 450 229 q 243 -17 450 -17 q 95 43 144 -17 q 46 211 46 103 l 46 277 l 189 309 l 189 204 q 245 129 189 129 q 293 151 279 129 q 307 231 307 173 l 307 447 q 192 399 261 399 q 135 409 161 399 q 85 440 109 419 q 49 499 62 461 q 36 587 36 537 m 307 542 l 307 722 q 293 817 307 790 q 243 844 279 844 q 193 818 206 844 q 180 721 180 791 l 180 599 q 200 542 180 563 q 248 521 219 521 q 307 542 275 521 z "}," ":{"ha":170,"x_min":0,"x_max":0,"o":""},"!":{"ha":254,"x_min":56,"x_max":199,"o":"m 56 972 l 199 972 l 189 232 l 66 232 l 56 972 m 61 154 l 196 154 l 196 0 l 61 0 l 61 154 z "},"\"":{"ha":362,"x_min":37,"x_max":325,"o":"m 37 972 l 161 972 l 161 643 l 37 643 l 37 972 m 201 972 l 325 972 l 325 643 l 201 643 l 201 972 z "},"#":{"ha":559,"x_min":8,"x_max":545,"o":"m 37 597 l 37 730 l 138 730 l 163 972 l 282 972 l 257 730 l 355 730 l 380 972 l 500 972 l 475 730 l 545 730 l 545 597 l 460 597 l 435 364 l 515 364 l 515 231 l 422 231 l 397 0 l 278 0 l 302 231 l 204 231 l 179 0 l 60 0 l 85 231 l 8 231 l 8 364 l 97 364 l 122 597 l 37 597 m 241 597 l 216 364 l 315 364 l 340 597 l 241 597 z "},"$":{"ha":508,"x_min":46,"x_max":469,"o":"m 315 1042 l 315 937 q 423 866 380 920 q 465 736 465 812 l 465 676 l 317 643 l 317 725 q 260 800 317 800 q 203 725 203 800 l 203 685 q 211 651 203 667 q 227 626 218 635 q 253 602 236 616 l 387 484 q 469 321 469 412 l 469 222 q 426 92 469 144 q 315 22 382 39 l 315 -122 l 214 -122 l 214 18 q 93 85 139 31 q 46 222 46 140 l 46 281 l 195 313 l 195 235 q 209 178 195 197 q 256 160 224 160 q 318 235 318 160 l 318 286 q 310 323 318 306 q 293 350 302 340 q 268 374 284 359 l 142 488 q 75 568 99 527 q 52 664 52 609 l 52 737 q 97 872 52 819 q 214 940 143 926 l 214 1042 l 315 1042 z "},"%":{"ha":768,"x_min":52,"x_max":718,"o":"m 522 972 l 619 972 l 248 0 l 151 0 l 522 972 m 207 574 l 207 860 q 175 905 207 905 q 152 896 159 905 q 144 860 144 886 l 144 574 q 175 528 144 528 q 207 574 207 528 m 52 582 l 52 851 q 175 989 52 989 q 267 957 232 989 q 301 851 301 924 l 301 582 q 267 477 301 509 q 175 444 232 444 q 52 582 52 444 m 624 113 l 624 399 q 591 444 624 444 q 568 434 576 444 q 561 399 561 425 l 561 113 q 591 66 561 66 q 624 113 624 66 m 468 121 l 468 390 q 591 528 468 528 q 684 495 649 528 q 718 390 718 463 l 718 121 q 683 16 718 48 q 591 -17 648 -17 q 468 121 468 -17 z "},"&":{"ha":643,"x_min":37,"x_max":629,"o":"m 281 989 q 428 938 369 989 q 486 798 486 888 l 486 741 q 477 685 486 713 q 453 636 467 658 q 415 590 439 614 q 372 548 391 565 q 322 507 352 531 l 460 278 q 468 367 468 317 q 453 501 468 434 l 578 501 q 591 397 591 454 q 539 150 591 254 l 629 0 l 490 0 l 460 49 q 290 -17 389 -17 q 101 43 165 -17 q 37 205 37 103 l 37 307 q 47 375 37 343 q 77 434 58 407 q 116 480 96 460 q 163 524 135 500 q 97 637 119 591 q 75 730 75 684 l 75 799 q 134 939 75 888 q 281 989 192 989 m 297 102 q 395 150 357 102 l 227 424 q 170 309 170 367 l 170 205 q 202 129 170 155 q 297 102 235 102 m 326 854 q 317 863 326 854 q 279 872 308 872 q 234 854 251 872 q 216 796 216 836 l 216 739 q 264 604 216 684 q 324 670 304 638 q 345 741 345 701 l 345 796 q 326 854 345 836 z "},"'":{"ha":198,"x_min":37,"x_max":161,"o":"m 37 972 l 161 972 l 161 643 l 37 643 l 37 972 z "},"(":{"ha":302,"x_min":31,"x_max":310,"o":"m 31 410 q 40 588 31 503 q 63 734 50 673 q 99 857 77 796 q 140 957 121 918 q 183 1042 158 996 l 310 1042 q 149 410 149 766 q 310 -222 149 54 l 183 -222 q 129 -112 151 -164 q 81 18 106 -60 q 43 195 56 96 q 31 410 31 294 z "},")":{"ha":302,"x_min":-7,"x_max":272,"o":"m 272 410 q 259 195 272 294 q 221 18 246 96 q 174 -112 197 -60 q 119 -222 151 -164 l -7 -222 q 154 410 154 53 q -7 1042 154 766 l 119 1042 q 163 957 144 996 q 203 857 181 918 q 239 734 225 796 q 262 588 253 673 q 272 410 272 503 z "},"*":{"ha":366,"x_min":37,"x_max":329,"o":"m 248 831 l 329 800 l 283 720 l 215 775 l 229 688 l 136 688 l 151 775 l 83 720 l 37 800 l 119 831 l 37 860 l 83 942 l 151 886 l 136 972 l 229 972 l 215 886 l 283 942 l 329 860 l 248 831 z "},"+":{"ha":479,"x_min":39,"x_max":439,"o":"m 175 705 l 302 705 l 302 525 l 439 525 l 439 397 l 302 397 l 302 220 l 175 220 l 175 397 l 39 397 l 39 525 l 175 525 l 175 705 z "},",":{"ha":203,"x_min":-11,"x_max":189,"o":"m 50 154 l 189 154 l 103 -183 l -11 -183 l 50 154 z "},"-":{"ha":309,"x_min":37,"x_max":272,"o":"m 272 526 l 272 397 l 37 397 l 37 526 l 272 526 z "},".":{"ha":208,"x_min":37,"x_max":171,"o":"m 37 154 l 171 154 l 171 0 l 37 0 l 37 154 z "},"/":{"ha":326,"x_min":-14,"x_max":340,"o":"m 240 1002 l 340 1002 l 86 -110 l -14 -110 l 240 1002 z "},":":{"ha":212,"x_min":40,"x_max":174,"o":"m 40 154 l 174 154 l 174 0 l 40 0 l 40 154 m 40 741 l 174 741 l 174 586 l 40 586 l 40 741 z "},";":{"ha":219,"x_min":-5,"x_max":195,"o":"m 46 741 l 179 741 l 179 586 l 46 586 l 46 741 m 56 154 l 195 154 l 109 -183 l -5 -183 l 56 154 z "},"<":{"ha":404,"x_min":35,"x_max":361,"o":"m 361 745 l 361 597 l 138 461 l 361 326 l 361 179 l 35 383 l 35 539 l 361 745 z "},"=":{"ha":459,"x_min":45,"x_max":416,"o":"m 416 647 l 416 519 l 45 519 l 45 647 l 416 647 m 416 404 l 416 277 l 45 277 l 45 404 l 416 404 z "},">":{"ha":404,"x_min":43,"x_max":370,"o":"m 43 597 l 43 745 l 370 539 l 370 383 l 43 179 l 43 326 l 267 461 l 43 597 z "},"?":{"ha":455,"x_min":21,"x_max":431,"o":"m 431 781 l 431 675 q 414 597 431 635 q 375 528 398 559 q 328 466 351 496 q 288 398 304 435 q 272 323 272 361 l 272 229 l 138 229 l 138 329 q 152 423 138 380 q 187 497 167 467 q 228 554 208 527 q 263 612 249 581 q 278 676 278 644 l 278 768 q 218 843 278 843 q 177 825 189 843 q 164 768 164 806 l 164 664 l 21 696 l 21 781 q 78 931 21 874 q 221 989 136 989 q 369 932 307 989 q 431 781 431 876 m 138 154 l 272 154 l 272 0 l 138 0 l 138 154 z "},"@":{"ha":758,"x_min":60,"x_max":697,"o":"m 411 191 l 411 500 q 376 511 393 511 q 338 453 338 511 l 338 200 q 367 155 338 155 q 411 191 393 155 m 631 -35 l 631 -139 q 392 -175 515 -175 q 266 -162 322 -175 q 161 -119 209 -149 q 86 -37 113 -90 q 60 90 60 16 l 60 518 q 77 634 60 583 q 123 720 94 686 q 193 775 152 753 q 278 807 233 798 q 375 817 323 817 q 496 800 439 817 q 598 751 552 784 q 670 664 644 719 q 697 538 697 609 l 697 203 q 652 88 697 130 q 546 46 608 46 q 441 103 475 46 q 340 43 397 43 q 261 79 290 43 q 232 175 232 115 l 232 472 q 272 577 232 544 q 372 611 312 611 q 454 597 414 611 q 522 558 494 583 l 522 195 q 557 149 522 149 q 591 203 591 149 l 591 532 q 574 619 591 582 q 525 677 556 656 q 456 708 494 699 q 372 718 418 718 q 292 709 328 718 q 227 679 257 700 q 180 616 197 657 q 164 518 164 576 l 164 98 q 400 -77 164 -77 q 631 -35 521 -77 z "},"A":{"ha":540,"x_min":9,"x_max":530,"o":"m 375 0 l 346 192 l 180 192 l 154 0 l 9 0 l 174 972 l 366 972 l 530 0 l 375 0 m 262 766 l 197 318 l 330 318 l 265 766 l 262 766 z "},"B":{"ha":547,"x_min":60,"x_max":492,"o":"m 212 428 l 212 138 l 269 138 q 317 154 299 138 q 335 204 335 170 l 335 353 q 315 409 335 389 q 265 428 296 428 l 212 428 m 212 835 l 212 557 l 268 557 q 332 636 332 557 l 332 762 q 315 818 332 800 q 265 835 299 835 l 212 835 m 60 972 l 273 972 q 357 963 321 972 q 422 932 393 954 q 468 869 452 910 q 484 768 484 828 l 484 646 q 456 557 484 595 q 382 498 429 519 l 382 496 q 492 345 492 460 l 492 210 q 434 55 492 110 q 269 0 376 0 l 60 0 l 60 972 z "},"C":{"ha":533,"x_min":41,"x_max":490,"o":"m 490 347 l 490 229 q 473 114 490 163 q 424 37 456 65 q 353 -4 393 9 q 265 -17 314 -17 q 102 41 162 -17 q 41 229 41 100 l 41 743 q 101 931 41 873 q 265 989 161 989 q 353 976 314 989 q 424 935 393 963 q 473 859 456 907 q 490 743 490 810 l 490 676 l 338 644 l 338 743 q 320 821 338 798 q 265 844 302 844 q 212 821 229 844 q 195 743 195 798 l 195 229 q 212 151 195 174 q 265 127 229 127 q 320 151 302 127 q 338 229 338 174 l 338 315 l 490 347 z "},"D":{"ha":550,"x_min":60,"x_max":509,"o":"m 60 972 l 285 972 q 447 914 386 972 q 509 726 509 855 l 509 245 q 447 58 509 117 q 285 0 386 0 l 60 0 l 60 972 m 214 827 l 214 146 l 285 146 q 338 169 321 146 q 355 248 355 192 l 355 725 q 338 804 355 781 q 285 827 321 827 l 214 827 z "},"E":{"ha":425,"x_min":60,"x_max":389,"o":"m 60 972 l 382 972 l 382 831 l 212 831 l 212 559 l 359 559 l 359 419 l 212 419 l 212 142 l 389 142 l 389 0 l 60 0 l 60 972 z "},"F":{"ha":414,"x_min":60,"x_max":385,"o":"m 60 972 l 385 972 l 385 831 l 212 831 l 212 550 l 350 550 l 350 408 l 212 408 l 212 0 l 60 0 l 60 972 z "},"G":{"ha":559,"x_min":41,"x_max":500,"o":"m 353 393 l 265 393 l 265 534 l 500 534 l 500 0 l 363 0 l 363 49 q 231 -17 311 -17 q 91 45 140 -17 q 41 229 41 107 l 41 743 q 101 931 41 873 q 265 989 161 989 q 355 976 314 989 q 428 935 395 963 q 480 859 461 907 q 498 743 498 810 l 498 676 l 346 644 l 346 742 q 327 820 346 797 q 271 843 308 843 q 214 820 233 843 q 195 742 195 797 l 195 229 q 273 127 195 127 q 353 239 353 127 l 353 393 z "},"H":{"ha":570,"x_min":60,"x_max":511,"o":"m 60 972 l 212 972 l 212 551 l 358 551 l 358 972 l 511 972 l 511 0 l 358 0 l 358 411 l 212 411 l 212 0 l 60 0 l 60 972 z "},"I":{"ha":273,"x_min":60,"x_max":212,"o":"m 60 972 l 212 972 l 212 0 l 60 0 l 60 972 z "},"J":{"ha":315,"x_min":8,"x_max":256,"o":"m 102 972 l 256 972 l 256 187 q 106 -17 256 -17 q 8 9 56 -17 l 8 155 q 68 140 42 140 q 95 154 87 140 q 102 197 102 168 l 102 972 z "},"K":{"ha":538,"x_min":60,"x_max":529,"o":"m 529 972 l 358 558 l 528 0 l 363 0 l 252 389 l 212 290 l 212 0 l 60 0 l 60 972 l 212 972 l 212 562 l 368 972 l 529 972 z "},"L":{"ha":380,"x_min":58,"x_max":359,"o":"m 58 972 l 211 972 l 211 142 l 359 142 l 359 0 l 58 0 l 58 972 z "},"M":{"ha":757,"x_min":46,"x_max":711,"o":"m 87 972 l 271 972 l 379 318 l 489 972 l 672 972 l 711 0 l 558 0 l 539 632 l 449 78 l 311 78 l 218 629 l 199 0 l 46 0 l 87 972 z "},"N":{"ha":582,"x_min":60,"x_max":519,"o":"m 357 0 l 207 600 l 207 0 l 60 0 l 60 972 l 224 972 l 374 363 l 374 972 l 519 972 l 519 0 l 357 0 z "},"O":{"ha":532,"x_min":41,"x_max":490,"o":"m 338 229 l 338 743 q 320 821 338 798 q 265 844 302 844 q 212 821 229 844 q 195 743 195 798 l 195 229 q 212 151 195 174 q 265 127 229 127 q 320 151 302 127 q 338 229 338 174 m 41 229 l 41 743 q 101 931 41 873 q 265 989 161 989 q 353 976 314 989 q 424 935 393 963 q 473 859 456 907 q 490 743 490 810 l 490 229 q 473 114 490 163 q 424 37 456 65 q 353 -4 393 9 q 265 -17 314 -17 q 102 41 162 -17 q 41 229 41 100 z "},"P":{"ha":519,"x_min":60,"x_max":482,"o":"m 212 490 l 260 490 q 312 509 296 490 q 329 571 329 528 l 329 751 q 313 815 329 795 q 260 835 296 835 l 212 835 l 212 490 m 482 746 l 482 571 q 465 466 482 510 q 417 395 448 421 q 346 357 386 369 q 257 345 307 345 l 212 345 l 212 0 l 60 0 l 60 972 l 261 972 q 422 919 363 972 q 482 746 482 865 z "},"Q":{"ha":532,"x_min":41,"x_max":490,"o":"m 41 229 l 41 743 q 101 931 41 873 q 265 989 161 989 q 353 976 314 989 q 424 935 393 963 q 473 859 456 907 q 490 743 490 810 l 490 229 q 364 0 490 49 l 452 -167 l 317 -167 l 256 -17 q 41 229 41 -12 m 338 231 l 338 742 q 320 820 338 798 q 265 843 302 843 q 212 820 229 843 q 195 742 195 798 l 195 231 q 212 151 195 175 q 265 127 229 127 q 320 151 302 127 q 338 231 338 175 z "},"R":{"ha":529,"x_min":60,"x_max":481,"o":"m 212 835 l 212 534 l 260 534 q 329 614 329 534 l 329 762 q 312 818 329 800 q 261 835 295 835 l 212 835 m 481 0 l 328 0 l 328 294 q 309 370 328 344 q 256 396 290 396 l 212 396 l 212 0 l 60 0 l 60 972 l 269 972 q 353 963 317 972 q 419 932 389 954 q 465 869 450 910 q 481 768 481 828 l 481 623 q 456 527 481 570 q 382 468 431 485 l 382 465 q 422 446 406 456 q 452 417 437 435 q 474 367 467 398 q 481 292 481 336 l 481 0 z "},"S":{"ha":511,"x_min":45,"x_max":467,"o":"m 49 664 l 49 781 q 110 933 49 877 q 258 989 172 989 q 403 931 344 989 q 463 781 463 873 l 463 696 l 314 664 l 314 768 q 301 825 314 806 q 257 843 288 843 q 201 768 201 843 l 201 692 q 210 653 201 671 q 227 626 218 635 q 253 602 235 618 l 386 484 q 467 321 467 414 l 467 192 q 404 40 467 96 q 253 -17 340 -17 q 105 40 165 -17 q 45 193 45 98 l 45 277 l 192 309 l 192 204 q 207 147 192 165 q 254 129 221 129 q 314 204 314 129 l 314 286 q 306 325 314 307 q 289 351 297 342 q 265 374 281 359 l 139 488 q 73 568 96 527 q 49 664 49 609 z "},"T":{"ha":444,"x_min":14,"x_max":431,"o":"m 14 972 l 431 972 l 431 831 l 298 831 l 298 0 l 146 0 l 146 831 l 14 831 l 14 972 z "},"U":{"ha":554,"x_min":58,"x_max":497,"o":"m 497 972 l 497 229 q 480 114 497 163 q 432 37 463 65 q 362 -4 401 9 q 275 -17 323 -17 q 58 229 58 -17 l 58 972 l 211 972 l 211 231 q 227 151 211 175 q 275 127 242 127 q 324 151 309 127 q 339 231 339 174 l 339 972 l 497 972 z "},"V":{"ha":536,"x_min":9,"x_max":528,"o":"m 9 972 l 168 972 l 275 214 l 281 214 l 383 972 l 528 972 l 361 0 l 183 0 l 9 972 z "},"W":{"ha":806,"x_min":14,"x_max":793,"o":"m 323 972 l 486 972 l 567 310 l 633 972 l 793 972 l 668 0 l 488 0 l 406 733 l 321 0 l 139 0 l 14 972 l 171 972 l 243 307 l 323 972 z "},"X":{"ha":545,"x_min":14,"x_max":532,"o":"m 368 0 l 268 322 l 168 0 l 14 0 l 184 488 l 20 972 l 183 972 l 278 672 l 370 972 l 524 972 l 358 496 l 532 0 l 368 0 z "},"Y":{"ha":529,"x_min":14,"x_max":515,"o":"m 275 529 l 370 972 l 515 972 l 340 355 l 340 0 l 189 0 l 189 355 l 14 972 l 176 972 l 275 529 z "},"Z":{"ha":521,"x_min":32,"x_max":488,"o":"m 45 972 l 488 972 l 488 859 l 211 153 l 488 153 l 488 0 l 32 0 l 32 113 l 310 819 l 45 819 l 45 972 z "},"[":{"ha":284,"x_min":58,"x_max":261,"o":"m 58 1042 l 261 1042 l 261 933 l 175 933 l 175 -114 l 261 -114 l 261 -222 l 58 -222 l 58 1042 z "},"\\":{"ha":333,"x_min":-7,"x_max":347,"o":"m -7 1002 l 93 1002 l 347 -110 l 248 -110 l -7 1002 z "},"]":{"ha":284,"x_min":24,"x_max":227,"o":"m 24 1042 l 227 1042 l 227 -222 l 24 -222 l 24 -114 l 110 -114 l 110 933 l 24 933 l 24 1042 z "},"^":{"ha":459,"x_min":21,"x_max":439,"o":"m 439 488 l 317 488 l 229 793 l 142 488 l 21 488 l 174 972 l 285 972 l 439 488 z "},"_":{"ha":426,"x_min":0,"x_max":427,"o":"m 427 -17 l 427 -125 l 0 -125 l 0 -17 l 427 -17 z "},"`":{"ha":694,"x_min":240,"x_max":454,"o":"m 240 972 l 382 972 l 454 803 l 367 803 l 240 972 z "},"a":{"ha":493,"x_min":35,"x_max":478,"o":"m 283 143 l 283 328 l 231 328 q 186 311 203 328 q 170 264 170 294 l 170 167 q 216 98 170 98 q 252 111 233 98 q 283 143 271 123 m 179 559 l 179 496 l 46 515 l 46 557 q 98 701 46 644 q 233 757 150 757 q 376 706 326 757 q 425 538 425 654 l 425 150 q 430 110 425 121 q 452 100 435 100 q 478 107 463 100 l 478 11 q 393 -17 438 -17 q 333 1 359 -17 q 298 52 307 19 q 250 1 280 20 q 182 -17 220 -17 q 131 -9 155 -17 q 84 17 106 -1 q 48 70 61 35 q 35 153 35 104 l 35 262 q 63 355 35 317 q 133 410 91 393 q 224 427 174 427 l 283 427 l 283 561 q 270 622 283 605 q 231 639 256 639 q 192 621 205 639 q 179 559 179 603 z "},"b":{"ha":509,"x_min":56,"x_max":467,"o":"m 192 41 l 192 0 l 56 0 l 56 972 l 199 1000 l 199 697 q 325 757 254 757 q 429 710 391 757 q 467 566 467 663 l 467 182 q 423 36 467 90 q 313 -17 379 -17 q 192 41 246 -17 m 199 608 l 199 131 q 228 109 210 117 q 262 100 245 100 q 306 120 288 100 q 323 182 323 140 l 323 557 q 262 639 323 639 q 199 608 227 639 z "},"c":{"ha":490,"x_min":45,"x_max":452,"o":"m 186 554 l 186 186 q 248 100 186 100 q 309 186 309 100 l 309 258 l 452 277 l 452 195 q 435 96 452 138 q 389 30 418 54 q 325 -5 360 6 q 248 -17 290 -17 q 171 -5 206 -17 q 107 30 136 6 q 61 96 78 54 q 45 195 45 138 l 45 546 q 61 645 45 603 q 107 711 78 687 q 171 746 136 734 q 248 757 206 757 q 325 746 290 757 q 389 711 360 734 q 435 645 418 687 q 452 546 452 603 l 452 503 l 309 484 l 309 554 q 248 640 309 640 q 186 554 186 640 z "},"d":{"ha":501,"x_min":45,"x_max":446,"o":"m 307 0 l 307 41 q 257 0 288 16 q 195 -17 226 -17 q 86 32 127 -17 q 45 172 45 81 l 45 566 q 87 707 45 657 q 196 757 129 757 q 302 708 258 757 l 302 972 l 446 1000 l 446 0 l 307 0 m 302 131 l 302 616 q 241 639 272 639 q 187 557 187 639 l 187 216 q 200 124 187 149 q 243 100 212 100 q 302 131 276 100 z "},"e":{"ha":496,"x_min":45,"x_max":452,"o":"m 452 376 l 186 376 l 186 186 q 248 100 186 100 q 309 186 309 100 l 309 258 l 452 277 l 452 195 q 435 96 452 138 q 389 30 418 54 q 325 -5 360 6 q 248 -17 290 -17 q 171 -5 206 -17 q 107 30 136 6 q 61 96 78 54 q 45 195 45 138 l 45 546 q 61 645 45 603 q 107 711 78 687 q 171 746 136 734 q 248 757 206 757 q 325 746 290 757 q 389 711 360 734 q 435 645 418 687 q 452 546 452 603 l 452 376 m 186 554 l 186 468 l 309 468 l 309 554 q 248 640 309 640 q 186 554 186 640 z "},"f":{"ha":286,"x_min":-35,"x_max":335,"o":"m 214 623 l 214 0 q 198 -99 214 -57 q 154 -164 182 -141 q 95 -199 127 -188 q 26 -210 63 -210 q -35 -201 -5 -210 l -35 -83 q 8 -90 -6 -90 q 72 -14 72 -90 l 72 623 l 12 623 l 12 741 l 72 741 l 72 810 q 90 909 72 867 q 137 974 107 951 q 201 1007 167 996 q 273 1018 235 1018 q 335 1011 302 1018 l 335 885 q 288 892 312 892 q 233 872 252 892 q 214 815 214 852 l 214 741 l 297 741 l 297 623 l 214 623 z "},"g":{"ha":501,"x_min":45,"x_max":450,"o":"m 450 741 l 450 8 q 430 -88 450 -45 q 375 -157 410 -131 q 297 -196 340 -182 q 207 -210 254 -210 q 89 -189 151 -210 l 89 -74 q 195 -92 149 -92 q 307 -1 307 -92 l 307 46 q 256 8 287 22 q 195 -5 225 -5 q 88 41 132 -5 q 45 176 45 88 l 45 566 q 86 709 45 661 q 193 757 127 757 q 259 740 229 757 q 307 697 290 722 l 307 741 l 450 741 m 307 135 l 307 607 q 243 639 280 639 q 199 615 212 639 q 187 526 187 591 l 187 215 q 201 130 187 153 q 245 106 215 106 q 307 135 282 106 z "},"h":{"ha":515,"x_min":56,"x_max":461,"o":"m 199 599 l 199 0 l 56 0 l 56 972 l 199 1000 l 199 697 q 250 740 217 722 q 322 757 283 757 q 422 710 382 757 q 461 572 461 664 l 461 0 l 319 0 l 319 559 q 304 613 319 594 q 262 632 288 632 q 199 599 232 632 z "},"i":{"ha":254,"x_min":56,"x_max":199,"o":"m 56 741 l 199 741 l 199 0 l 56 0 l 56 741 m 56 972 l 199 972 l 199 825 l 56 825 l 56 972 z "},"j":{"ha":254,"x_min":-46,"x_max":199,"o":"m 199 741 l 199 -3 q 183 -101 199 -59 q 141 -165 168 -142 q 83 -199 114 -188 q 17 -210 52 -210 q -46 -201 -16 -210 l -46 -83 q -4 -90 -18 -90 q 56 -14 56 -90 l 56 741 l 199 741 m 56 972 l 199 972 l 199 825 l 56 825 l 56 972 z "},"k":{"ha":469,"x_min":56,"x_max":464,"o":"m 464 741 l 336 443 l 464 0 l 311 0 l 228 300 l 199 236 l 199 0 l 56 0 l 56 972 l 199 1000 l 199 469 l 311 741 l 464 741 z "},"l":{"ha":254,"x_min":56,"x_max":199,"o":"m 199 0 l 56 0 l 56 972 l 199 1000 l 199 0 z "},"m":{"ha":760,"x_min":56,"x_max":707,"o":"m 56 741 l 193 741 l 193 686 q 243 736 210 716 q 315 757 277 757 q 387 739 355 757 q 436 682 419 720 q 495 738 460 719 q 567 757 529 757 q 667 710 627 757 q 707 572 707 664 l 707 0 l 564 0 l 564 553 q 510 632 564 632 q 453 602 477 632 l 453 0 l 310 0 l 310 553 q 257 632 310 632 q 199 602 227 632 l 199 0 l 56 0 l 56 741 z "},"n":{"ha":519,"x_min":56,"x_max":467,"o":"m 56 741 l 193 741 l 193 686 q 249 736 210 715 q 328 757 288 757 q 427 710 388 757 q 467 572 467 664 l 467 0 l 323 0 l 323 559 q 308 613 323 595 q 268 632 292 632 q 199 599 229 632 l 199 0 l 56 0 l 56 741 z "},"o":{"ha":496,"x_min":45,"x_max":452,"o":"m 309 186 l 309 554 q 248 640 309 640 q 186 554 186 640 l 186 186 q 248 100 186 100 q 309 186 309 100 m 248 -17 q 171 -5 206 -17 q 107 30 136 6 q 61 96 78 54 q 45 195 45 138 l 45 546 q 61 645 45 603 q 107 711 78 687 q 171 746 136 734 q 248 757 206 757 q 325 746 290 757 q 389 711 360 734 q 435 645 418 687 q 452 546 452 603 l 452 195 q 435 96 452 138 q 389 30 418 54 q 325 -5 360 6 q 248 -17 290 -17 z "},"p":{"ha":505,"x_min":56,"x_max":463,"o":"m 199 40 l 199 -197 l 56 -221 l 56 741 l 199 741 l 199 697 q 250 739 217 722 q 319 757 283 757 q 463 566 463 757 l 463 172 q 419 32 463 81 q 314 -17 376 -17 q 250 -1 282 -17 q 199 40 218 14 m 199 608 l 199 131 q 260 100 225 100 q 302 120 285 100 q 319 182 319 140 l 319 557 q 260 639 319 639 q 199 608 227 639 z "},"q":{"ha":505,"x_min":45,"x_max":450,"o":"m 307 -220 l 307 43 q 257 0 288 16 q 192 -17 225 -17 q 85 33 125 -17 q 45 172 45 82 l 45 574 q 85 712 45 668 q 192 757 125 757 q 259 739 227 757 q 307 697 290 722 l 307 741 l 450 741 l 450 -192 l 307 -220 m 307 131 l 307 607 q 243 639 280 639 q 186 557 186 639 l 186 182 q 203 121 186 140 q 245 102 220 102 q 307 131 282 102 z "},"r":{"ha":336,"x_min":56,"x_max":321,"o":"m 321 755 l 321 576 q 199 519 245 571 l 199 0 l 56 0 l 56 741 l 193 741 l 193 669 q 252 730 218 705 q 321 755 287 755 z "},"s":{"ha":454,"x_min":40,"x_max":416,"o":"m 222 467 l 345 367 q 416 240 416 309 l 416 150 q 361 29 416 75 q 228 -17 305 -17 q 94 28 146 -17 q 41 151 41 73 l 41 215 l 178 240 l 178 161 q 229 100 178 100 q 278 160 278 100 l 278 215 q 267 246 278 232 q 233 278 256 260 l 119 367 q 40 503 40 426 l 40 590 q 95 711 40 665 q 228 757 151 757 q 361 712 310 757 q 412 589 412 667 l 412 530 l 277 505 l 277 579 q 227 640 277 640 q 179 581 179 640 l 179 526 q 189 498 179 510 q 222 467 198 486 z "},"t":{"ha":315,"x_min":9,"x_max":300,"o":"m 204 621 l 204 170 q 254 113 204 113 q 300 121 277 113 l 300 -4 q 224 -17 260 -17 q 162 -7 190 -17 q 111 24 135 2 q 74 86 87 45 q 61 183 61 127 l 61 621 l 9 621 l 9 741 l 65 741 l 65 886 l 204 921 l 204 741 l 298 741 l 298 621 l 204 621 z "},"u":{"ha":511,"x_min":53,"x_max":458,"o":"m 315 741 l 458 741 l 458 195 q 442 96 458 138 q 396 30 425 54 q 332 -5 368 6 q 256 -17 297 -17 q 179 -5 214 -17 q 115 30 144 6 q 70 96 86 54 q 53 195 53 138 l 53 741 l 196 741 l 196 186 q 256 100 196 100 q 315 186 315 100 l 315 741 z "},"v":{"ha":480,"x_min":9,"x_max":472,"o":"m 9 741 l 158 741 l 244 200 l 248 200 l 334 741 l 472 741 l 322 0 l 160 0 l 9 741 z "},"w":{"ha":715,"x_min":17,"x_max":699,"o":"m 289 741 l 427 741 l 493 285 l 496 285 l 554 741 l 699 741 l 570 0 l 425 0 l 359 481 l 357 481 l 292 0 l 146 0 l 17 741 l 163 741 l 225 285 l 228 285 l 289 741 z "},"x":{"ha":496,"x_min":14,"x_max":482,"o":"m 174 741 l 257 494 l 330 741 l 471 741 l 336 370 l 482 0 l 326 0 l 240 237 l 157 0 l 14 0 l 157 379 l 16 741 l 174 741 z "},"y":{"ha":481,"x_min":-12,"x_max":473,"o":"m -12 -78 q 61 -90 32 -90 q 135 -62 109 -90 q 176 40 160 -35 l 18 741 l 165 741 l 256 268 l 335 741 l 473 741 l 322 36 q 234 -145 296 -82 q 81 -208 172 -208 q -12 -192 39 -208 l -12 -78 z "},"z":{"ha":450,"x_min":31,"x_max":421,"o":"m 39 741 l 416 741 l 416 629 l 192 136 l 421 136 l 421 0 l 31 0 l 31 111 l 254 604 l 39 604 l 39 741 z "},"{":{"ha":296,"x_min":5,"x_max":277,"o":"m 113 412 q 170 354 146 395 q 193 265 193 312 l 193 -60 q 222 -118 193 -109 q 277 -125 235 -131 l 277 -235 q 220 -239 242 -240 q 115 -195 153 -237 q 77 -47 77 -153 l 77 249 q 56 333 77 299 q 5 367 36 367 l 5 458 q 56 492 36 458 q 77 576 77 526 l 77 864 q 88 957 77 918 q 120 1015 99 995 q 164 1045 140 1036 q 220 1055 189 1054 q 277 1051 251 1055 l 277 950 q 222 945 238 958 q 193 885 193 935 l 193 559 q 170 471 193 513 q 113 412 146 429 z "},"|":{"ha":236,"x_min":62,"x_max":174,"o":"m 62 1042 l 174 1042 l 174 -347 l 62 -347 l 62 1042 z "},"}":{"ha":296,"x_min":20,"x_max":290,"o":"m 183 412 q 126 471 149 429 q 103 559 103 512 l 103 885 q 74 945 103 935 q 20 950 58 958 l 20 1051 q 77 1055 45 1055 q 132 1045 108 1054 q 177 1015 156 1036 q 209 957 197 995 q 220 864 220 918 l 220 576 q 240 492 220 526 q 290 458 260 458 l 290 367 q 240 333 260 367 q 220 249 220 299 l 220 -47 q 181 -195 220 -153 q 77 -239 143 -237 q 20 -235 54 -240 l 20 -125 q 74 -118 61 -131 q 103 -60 103 -109 l 103 265 q 126 354 103 313 q 183 412 149 395 z "},"~":{"ha":458,"x_min":21,"x_max":436,"o":"m 125 367 l 21 393 q 59 509 30 465 q 142 553 89 553 q 221 531 168 553 q 293 510 273 510 q 318 527 308 510 q 330 572 328 543 l 436 553 q 395 429 422 471 q 313 387 368 387 q 235 408 283 387 q 165 429 187 429 q 125 367 127 429 z "}," ":{"ha":69,"x_min":0,"x_max":0,"o":""},"¡":{"ha":254,"x_min":56,"x_max":199,"o":"m 199 -232 l 56 -232 l 66 509 l 189 509 l 199 -232 m 196 586 l 61 586 l 61 741 l 196 741 l 196 586 z "},"¢":{"ha":538,"x_min":39,"x_max":488,"o":"m 488 390 l 488 272 q 443 104 488 162 q 321 31 397 45 l 321 -122 l 218 -122 l 218 29 q 39 272 39 52 l 39 700 q 218 943 39 920 l 218 1042 l 321 1042 l 321 940 q 442 868 397 926 q 488 700 488 809 l 488 633 l 335 602 l 335 700 q 318 779 335 755 q 264 802 300 802 q 210 779 227 802 q 192 700 192 755 l 192 271 q 210 193 192 216 q 264 170 227 170 q 318 193 300 170 q 335 271 335 216 l 335 358 l 488 390 z "},"£":{"ha":504,"x_min":28,"x_max":473,"o":"m 92 547 l 92 807 q 148 941 92 892 q 286 989 204 989 q 420 941 368 989 q 473 806 473 892 l 473 739 l 338 714 l 338 796 q 325 854 338 837 q 285 872 313 872 q 244 855 256 872 q 232 798 232 838 l 232 547 l 400 547 l 400 419 l 232 419 l 232 300 q 192 142 232 194 l 454 142 l 454 0 l 28 0 l 28 126 q 77 172 62 143 q 92 267 92 201 l 92 419 l 35 419 l 35 547 l 92 547 z "},"¥":{"ha":504,"x_min":9,"x_max":494,"o":"m 254 596 l 350 972 l 494 972 l 332 484 l 458 484 l 458 357 l 318 357 l 318 0 l 187 0 l 187 357 l 46 357 l 46 484 l 172 484 l 9 972 l 157 972 l 254 596 z "},"¦":{"ha":236,"x_min":62,"x_max":174,"o":"m 62 1042 l 174 1042 l 174 497 l 62 497 l 62 1042 m 62 253 l 174 253 l 174 -347 l 62 -347 l 62 253 z "},"§":{"ha":486,"x_min":68,"x_max":446,"o":"m 446 382 q 412 287 446 327 q 328 227 379 247 l 366 199 q 424 131 406 168 q 443 41 443 94 l 443 -25 q 388 -146 443 -100 q 256 -192 333 -192 q 123 -147 174 -192 q 72 -24 72 -102 l 72 35 l 207 60 l 207 -14 q 258 -75 207 -75 q 304 -16 304 -75 l 304 39 q 295 67 304 56 q 262 98 286 79 q 141 197 166 173 q 70 320 79 257 q 68 347 68 333 l 68 415 q 100 509 68 469 q 184 570 133 549 l 149 599 q 89 667 108 630 q 69 755 69 703 l 69 822 q 124 943 69 897 q 257 989 180 989 q 390 944 339 989 q 441 821 441 899 l 441 762 l 306 737 l 306 811 q 256 872 306 872 q 208 812 208 872 l 208 758 q 214 736 208 746 q 227 719 220 726 q 252 699 234 713 q 369 603 347 624 q 443 484 432 544 q 446 450 446 467 l 446 382 m 290 475 q 250 521 284 496 q 207 429 207 508 l 207 378 q 218 321 207 339 q 264 275 230 302 q 307 368 307 290 l 307 419 q 290 475 307 444 z "},"¨":{"ha":694,"x_min":214,"x_max":479,"o":"m 214 972 l 325 972 l 325 825 l 214 825 l 214 972 m 368 972 l 479 972 l 479 825 l 368 825 l 368 972 z "},"©":{"ha":981,"x_min":41,"x_max":940,"o":"m 304 949 q 347 969 304 949 q 492 989 389 989 q 679 949 594 989 q 821 842 764 910 q 909 683 878 774 q 940 486 940 591 q 909 290 940 382 q 821 130 878 198 q 679 22 764 62 q 492 -17 594 -17 q 252 51 355 -17 q 95 232 149 119 q 41 486 41 346 q 73 683 41 591 q 161 842 104 774 q 304 949 218 910 m 651 891 q 615 909 651 891 q 492 926 579 926 q 332 891 404 926 q 213 795 260 856 q 140 656 165 735 q 114 486 114 576 q 140 315 114 395 q 213 175 165 235 q 332 80 260 115 q 492 45 404 45 q 651 80 579 45 q 770 175 723 115 q 842 315 817 235 q 868 486 868 395 q 842 656 868 576 q 770 795 817 735 q 651 891 723 856 m 428 614 l 428 353 q 489 267 428 267 q 550 353 550 267 l 550 425 l 693 443 l 693 361 q 635 201 693 252 q 489 150 577 150 q 343 201 401 150 q 285 361 285 252 l 285 606 q 343 766 285 715 q 489 817 401 817 q 635 766 577 817 q 693 606 693 715 l 693 562 l 550 543 l 550 614 q 489 700 550 700 q 428 614 428 700 z "},"ª":{"ha":333,"x_min":45,"x_max":315,"o":"m 182 654 l 182 746 l 155 746 q 134 739 142 746 q 126 718 126 732 l 126 659 q 133 641 126 647 q 150 635 139 635 q 182 654 167 635 m 135 879 l 135 840 l 49 850 l 49 876 q 80 958 49 926 q 161 989 112 989 q 244 962 213 989 q 275 875 275 935 l 275 650 q 293 631 275 631 q 315 636 299 631 l 315 576 q 254 558 280 558 q 199 595 218 558 q 129 558 168 558 q 71 580 97 558 q 45 650 45 602 l 45 718 q 77 788 45 763 q 153 812 109 812 l 183 812 l 183 880 q 160 914 183 914 q 135 879 135 914 z "},"«":{"ha":530,"x_min":21,"x_max":514,"o":"m 306 118 l 182 118 l 21 406 l 182 692 l 306 692 l 143 406 l 306 118 m 514 118 l 390 118 l 229 406 l 390 692 l 514 692 l 351 406 l 514 118 z "},"¬":{"ha":465,"x_min":46,"x_max":418,"o":"m 46 525 l 418 525 l 418 174 l 293 174 l 293 397 l 46 397 l 46 525 z "},"®":{"ha":349,"x_min":37,"x_max":313,"o":"m 74 726 q 56 746 74 726 q 37 838 37 766 q 74 949 37 909 q 175 989 111 989 q 276 949 239 989 q 313 838 313 909 q 276 726 313 766 q 175 686 239 686 q 74 726 111 686 m 100 926 q 87 911 100 926 q 74 838 74 896 q 100 749 74 779 q 175 718 127 718 q 250 749 223 718 q 277 838 277 780 q 250 926 277 895 q 175 957 223 957 q 100 926 127 957 m 164 886 l 164 843 l 175 843 q 184 846 182 843 q 187 861 187 850 l 187 869 q 175 886 187 886 l 164 886 m 229 749 l 189 749 l 189 779 q 174 804 189 804 l 164 804 l 164 749 l 125 749 l 125 925 l 174 925 q 215 914 201 925 q 228 873 228 903 l 228 861 q 203 827 228 836 q 229 785 229 821 l 229 749 z "},"¯":{"ha":694,"x_min":214,"x_max":481,"o":"m 481 838 l 214 838 l 214 939 l 481 939 l 481 838 z "},"°":{"ha":264,"x_min":28,"x_max":236,"o":"m 57 779 q 42 794 57 779 q 28 868 28 810 q 57 958 28 926 q 132 989 85 989 q 208 958 179 989 q 236 868 236 926 q 208 779 236 810 q 132 747 179 747 q 57 779 85 747 m 132 935 q 81 868 81 935 q 132 802 81 802 q 183 868 183 802 q 132 935 183 935 z "},"±":{"ha":479,"x_min":39,"x_max":439,"o":"m 175 705 l 302 705 l 302 525 l 439 525 l 439 397 l 302 397 l 302 220 l 175 220 l 175 397 l 39 397 l 39 525 l 175 525 l 175 705 m 439 127 l 439 0 l 39 0 l 39 127 l 439 127 z "},"²":{"ha":354,"x_min":53,"x_max":304,"o":"m 161 546 l 304 546 l 304 456 l 62 456 l 62 533 q 77 611 62 576 q 111 669 91 646 q 151 712 131 692 q 186 752 172 732 q 200 794 200 773 l 200 864 q 172 896 200 896 q 152 888 160 896 q 144 865 144 880 l 144 802 l 53 821 l 53 869 q 88 956 53 923 q 174 989 123 989 q 264 958 229 989 q 300 871 300 926 l 300 790 q 286 733 300 760 q 252 686 272 706 q 212 646 232 665 q 177 600 191 626 q 161 546 162 574 z "},"³":{"ha":325,"x_min":37,"x_max":279,"o":"m 279 637 l 279 564 q 244 475 279 505 q 158 444 210 444 q 75 477 107 444 q 43 564 43 509 l 43 606 l 129 627 l 129 570 q 157 538 129 538 q 184 570 184 538 l 184 637 q 146 681 184 681 l 109 681 l 109 758 l 150 758 q 175 767 166 758 q 184 799 184 776 l 184 864 q 157 896 184 896 q 129 865 129 896 l 129 802 l 37 821 l 37 869 q 72 956 37 924 q 158 989 106 989 q 244 957 209 989 q 279 871 279 926 l 279 811 q 236 728 279 759 q 269 697 258 717 q 279 637 279 678 z "},"´":{"ha":694,"x_min":240,"x_max":454,"o":"m 311 972 l 454 972 l 326 803 l 240 803 l 311 972 z "},"µ":{"ha":511,"x_min":53,"x_max":458,"o":"m 315 741 l 458 741 l 458 175 q 445 86 458 125 q 407 26 431 47 q 356 -6 384 4 q 298 -17 329 -17 q 180 26 231 -17 l 184 -193 l 53 -215 l 53 741 l 196 741 l 196 186 q 256 100 196 100 q 315 186 315 100 l 315 741 z "},"¶":{"ha":616,"x_min":41,"x_max":558,"o":"m 245 457 l 281 457 l 281 847 l 245 847 q 190 827 207 847 q 174 762 174 807 l 174 542 q 190 477 174 497 q 245 457 207 457 m 41 549 l 41 755 q 98 919 41 865 q 245 972 155 972 l 558 972 l 558 -142 l 443 -142 l 443 847 l 396 847 l 396 -142 l 281 -142 l 281 332 l 245 332 q 98 386 155 332 q 41 549 41 439 z "},"·":{"ha":222,"x_min":45,"x_max":178,"o":"m 45 521 l 178 521 l 178 367 l 45 367 l 45 521 z "},"¸":{"ha":694,"x_min":254,"x_max":439,"o":"m 345 0 l 421 0 q 439 -72 439 -37 q 413 -146 439 -115 q 339 -179 387 -176 q 254 -157 290 -179 l 254 -82 q 311 -100 287 -100 q 353 -54 353 -100 q 345 0 353 -20 z "},"¹":{"ha":237,"x_min":35,"x_max":184,"o":"m 35 966 l 184 986 l 184 460 l 87 460 l 87 892 l 35 884 l 35 966 z "},"º":{"ha":333,"x_min":41,"x_max":292,"o":"m 197 673 l 197 875 q 189 905 197 895 q 167 914 180 914 q 145 905 154 914 q 136 875 136 895 l 136 673 q 145 646 136 655 q 167 637 154 637 q 189 646 180 637 q 197 673 197 655 m 167 558 q 78 588 114 558 q 41 681 41 618 l 41 869 q 78 960 41 931 q 167 989 114 989 q 256 960 220 989 q 292 869 292 931 l 292 681 q 256 588 292 618 q 167 558 220 558 z "},"»":{"ha":530,"x_min":21,"x_max":514,"o":"m 144 118 l 21 118 l 183 406 l 21 692 l 144 692 l 306 406 l 144 118 m 353 118 l 229 118 l 392 406 l 229 692 l 353 692 l 514 406 l 353 118 z "},"¼":{"ha":605,"x_min":37,"x_max":575,"o":"m 313 103 l 313 182 l 425 521 l 541 521 l 541 192 l 575 192 l 575 103 l 541 103 l 541 0 l 444 0 l 444 103 l 313 103 m 444 410 l 378 192 l 444 192 l 444 410 m 37 966 l 187 986 l 187 460 l 90 460 l 90 892 l 37 884 l 37 966 m 437 972 l 534 972 l 163 0 l 66 0 l 437 972 z "},"½":{"ha":662,"x_min":36,"x_max":628,"o":"m 36 966 l 186 986 l 186 460 l 89 460 l 89 892 l 36 884 l 36 966 m 432 972 l 529 972 l 157 0 l 61 0 l 432 972 m 485 90 l 628 90 l 628 0 l 386 0 l 386 78 q 400 156 386 121 q 434 214 414 191 q 475 257 454 237 q 509 297 495 277 q 524 339 524 318 l 524 408 q 496 440 524 440 q 476 432 484 440 q 468 410 468 424 l 468 346 l 376 366 l 376 414 q 411 500 376 467 q 497 533 446 533 q 588 502 552 533 q 624 415 624 471 l 624 335 q 610 277 624 304 q 576 230 596 250 q 535 190 555 210 q 500 144 515 170 q 485 90 486 119 z "},"¾":{"ha":671,"x_min":37,"x_max":640,"o":"m 378 103 l 378 182 l 490 521 l 606 521 l 606 192 l 640 192 l 640 103 l 606 103 l 606 0 l 510 0 l 510 103 l 378 103 m 510 410 l 443 192 l 510 192 l 510 410 m 504 972 l 602 972 l 229 0 l 134 0 l 504 972 m 279 637 l 279 564 q 244 475 279 505 q 158 444 210 444 q 75 477 107 444 q 43 564 43 509 l 43 606 l 129 627 l 129 570 q 157 538 129 538 q 184 570 184 538 l 184 637 q 146 681 184 681 l 109 681 l 109 758 l 150 758 q 175 767 166 758 q 184 799 184 776 l 184 864 q 157 896 184 896 q 129 865 129 896 l 129 802 l 37 821 l 37 869 q 72 956 37 924 q 158 989 106 989 q 244 957 209 989 q 279 871 279 926 l 279 811 q 236 728 279 759 q 269 697 258 717 q 279 637 279 678 z "},"¿":{"ha":455,"x_min":21,"x_max":431,"o":"m 21 -40 l 21 65 q 37 143 21 104 q 77 212 54 181 q 123 274 100 243 q 163 342 146 305 q 179 416 179 379 l 179 511 l 314 511 l 314 411 q 299 317 314 360 q 264 243 285 273 q 223 186 244 213 q 188 127 203 159 q 174 64 174 96 l 174 -28 q 233 -103 174 -103 q 275 -84 262 -103 q 288 -28 288 -66 l 288 77 l 431 45 l 431 -40 q 373 -191 431 -134 q 231 -249 316 -249 q 83 -192 144 -249 q 21 -40 21 -136 m 314 586 l 179 586 l 179 741 l 314 741 l 314 586 z "},"À":{"ha":540,"x_min":9,"x_max":530,"o":"m 375 0 l 346 192 l 180 192 l 154 0 l 9 0 l 174 972 l 366 972 l 530 0 l 375 0 m 262 766 l 197 318 l 330 318 l 265 766 l 262 766 m 100 1213 l 241 1213 l 314 1043 l 227 1043 l 100 1213 z "},"Á":{"ha":540,"x_min":9,"x_max":530,"o":"m 375 0 l 346 192 l 180 192 l 154 0 l 9 0 l 174 972 l 366 972 l 530 0 l 375 0 m 262 766 l 197 318 l 330 318 l 265 766 l 262 766 m 289 1213 l 432 1213 l 304 1043 l 218 1043 l 289 1213 z "},"Â":{"ha":540,"x_min":9,"x_max":530,"o":"m 375 0 l 346 192 l 180 192 l 154 0 l 9 0 l 174 972 l 366 972 l 530 0 l 375 0 m 262 766 l 197 318 l 330 318 l 265 766 l 262 766 m 267 1143 l 218 1043 l 119 1043 l 210 1213 l 326 1213 l 416 1043 l 313 1043 l 267 1143 z "},"Ã":{"ha":540,"x_min":9,"x_max":530,"o":"m 375 0 l 346 192 l 180 192 l 154 0 l 9 0 l 174 972 l 366 972 l 530 0 l 375 0 m 262 766 l 197 318 l 330 318 l 265 766 l 262 766 m 193 1051 l 111 1072 q 204 1196 127 1196 q 265 1179 224 1196 q 319 1162 306 1162 q 346 1208 344 1162 l 429 1196 q 335 1068 413 1068 q 277 1085 313 1068 q 225 1103 241 1103 q 193 1051 197 1103 z "},"Ä":{"ha":540,"x_min":9,"x_max":530,"o":"m 375 0 l 346 192 l 180 192 l 154 0 l 9 0 l 174 972 l 366 972 l 530 0 l 375 0 m 262 766 l 197 318 l 330 318 l 265 766 l 262 766 m 136 1206 l 248 1206 l 248 1059 l 136 1059 l 136 1206 m 290 1206 l 401 1206 l 401 1059 l 290 1059 l 290 1206 z "},"Å":{"ha":540,"x_min":9,"x_max":530,"o":"m 375 0 l 346 192 l 180 192 l 154 0 l 9 0 l 174 972 l 366 972 l 530 0 l 375 0 m 262 766 l 197 318 l 330 318 l 265 766 l 262 766 m 170 1129 q 198 1200 170 1172 q 269 1229 226 1229 q 342 1200 314 1229 q 371 1129 371 1172 q 342 1059 371 1087 q 269 1031 313 1031 q 198 1059 226 1031 q 170 1129 170 1087 m 215 1129 q 231 1089 215 1106 q 269 1072 247 1072 q 309 1089 293 1072 q 325 1129 325 1106 q 309 1171 325 1154 q 269 1187 293 1187 q 231 1170 246 1187 q 215 1129 215 1153 z "},"Æ":{"ha":707,"x_min":-14,"x_max":671,"o":"m 343 0 l 343 249 l 193 249 l 131 0 l -14 0 l 243 972 l 664 972 l 664 831 l 496 831 l 496 559 l 642 559 l 642 419 l 496 419 l 496 142 l 671 142 l 671 0 l 343 0 m 338 828 l 222 376 l 343 376 l 343 828 l 338 828 z "},"Ç":{"ha":533,"x_min":41,"x_max":490,"o":"m 490 347 l 490 229 q 438 53 490 111 q 298 -14 387 -6 q 310 -72 310 -47 q 284 -146 310 -115 q 210 -179 258 -176 q 125 -157 161 -179 l 125 -82 q 182 -100 153 -100 q 213 -84 203 -100 q 224 -46 224 -68 q 220 -14 224 -28 q 41 229 41 9 l 41 743 q 101 931 41 873 q 265 989 161 989 q 353 976 314 989 q 424 935 393 963 q 473 859 456 907 q 490 743 490 810 l 490 676 l 338 644 l 338 743 q 320 821 338 798 q 265 844 302 844 q 212 821 229 844 q 195 743 195 798 l 195 229 q 212 151 195 174 q 265 127 229 127 q 320 151 302 127 q 338 229 338 174 l 338 315 l 490 347 z "},"È":{"ha":425,"x_min":60,"x_max":389,"o":"m 60 972 l 382 972 l 382 831 l 212 831 l 212 559 l 359 559 l 359 419 l 212 419 l 212 142 l 389 142 l 389 0 l 60 0 l 60 972 m 74 1213 l 215 1213 l 288 1043 l 200 1043 l 74 1213 z "},"É":{"ha":425,"x_min":60,"x_max":389,"o":"m 60 972 l 382 972 l 382 831 l 212 831 l 212 559 l 359 559 l 359 419 l 212 419 l 212 142 l 389 142 l 389 0 l 60 0 l 60 972 m 228 1213 l 371 1213 l 243 1043 l 157 1043 l 228 1213 z "},"Ê":{"ha":425,"x_min":60,"x_max":389,"o":"m 60 972 l 382 972 l 382 831 l 212 831 l 212 559 l 359 559 l 359 419 l 212 419 l 212 142 l 389 142 l 389 0 l 60 0 l 60 972 m 214 1143 l 165 1043 l 66 1043 l 157 1213 l 273 1213 l 364 1043 l 260 1043 l 214 1143 z "},"Ë":{"ha":425,"x_min":60,"x_max":389,"o":"m 60 972 l 382 972 l 382 831 l 212 831 l 212 559 l 359 559 l 359 419 l 212 419 l 212 142 l 389 142 l 389 0 l 60 0 l 60 972 m 87 1203 l 199 1203 l 199 1055 l 87 1055 l 87 1203 m 241 1203 l 353 1203 l 353 1055 l 241 1055 l 241 1203 z "},"Ì":{"ha":273,"x_min":-32,"x_max":212,"o":"m 60 972 l 212 972 l 212 0 l 60 0 l 60 972 m -32 1213 l 110 1213 l 182 1043 l 94 1043 l -32 1213 z "},"Í":{"ha":273,"x_min":60,"x_max":306,"o":"m 60 972 l 212 972 l 212 0 l 60 0 l 60 972 m 163 1213 l 306 1213 l 178 1043 l 92 1043 l 163 1213 z "},"Î":{"ha":273,"x_min":-12,"x_max":285,"o":"m 60 972 l 212 972 l 212 0 l 60 0 l 60 972 m 135 1143 l 86 1043 l -12 1043 l 78 1213 l 195 1213 l 285 1043 l 180 1043 l 135 1143 z "},"Ï":{"ha":273,"x_min":4,"x_max":269,"o":"m 60 972 l 212 972 l 212 0 l 60 0 l 60 972 m 4 1203 l 115 1203 l 115 1055 l 4 1055 l 4 1203 m 158 1203 l 269 1203 l 269 1055 l 158 1055 l 158 1203 z "},"Ð":{"ha":564,"x_min":14,"x_max":522,"o":"m 14 411 l 14 551 l 74 551 l 74 972 l 298 972 q 461 914 399 972 q 522 726 522 855 l 522 245 q 461 58 522 117 q 298 0 399 0 l 74 0 l 74 411 l 14 411 m 228 827 l 228 551 l 304 551 l 304 411 l 228 411 l 228 146 l 298 146 q 352 169 335 146 q 370 248 370 192 l 370 725 q 352 804 370 781 q 298 827 335 827 l 228 827 z "},"Ñ":{"ha":582,"x_min":60,"x_max":519,"o":"m 357 0 l 207 600 l 207 0 l 60 0 l 60 972 l 224 972 l 374 363 l 374 972 l 519 972 l 519 0 l 357 0 m 214 1047 l 132 1068 q 225 1192 149 1192 q 286 1175 245 1192 q 340 1158 327 1158 q 367 1204 365 1158 l 450 1192 q 355 1064 434 1064 q 297 1081 333 1064 q 245 1099 261 1099 q 214 1047 217 1099 z "},"Ò":{"ha":532,"x_min":41,"x_max":490,"o":"m 338 229 l 338 743 q 320 821 338 798 q 265 844 302 844 q 212 821 229 844 q 195 743 195 798 l 195 229 q 212 151 195 174 q 265 127 229 127 q 320 151 302 127 q 338 229 338 174 m 41 229 l 41 743 q 101 931 41 873 q 265 989 161 989 q 353 976 314 989 q 424 935 393 963 q 473 859 456 907 q 490 743 490 810 l 490 229 q 473 114 490 163 q 424 37 456 65 q 353 -4 393 9 q 265 -17 314 -17 q 102 41 162 -17 q 41 229 41 100 m 106 1213 l 248 1213 l 319 1043 l 232 1043 l 106 1213 z "},"Ó":{"ha":532,"x_min":41,"x_max":490,"o":"m 338 229 l 338 743 q 320 821 338 798 q 265 844 302 844 q 212 821 229 844 q 195 743 195 798 l 195 229 q 212 151 195 174 q 265 127 229 127 q 320 151 302 127 q 338 229 338 174 m 41 229 l 41 743 q 101 931 41 873 q 265 989 161 989 q 353 976 314 989 q 424 935 393 963 q 473 859 456 907 q 490 743 490 810 l 490 229 q 473 114 490 163 q 424 37 456 65 q 353 -4 393 9 q 265 -17 314 -17 q 102 41 162 -17 q 41 229 41 100 m 297 1213 l 440 1213 l 313 1043 l 227 1043 l 297 1213 z "},"Ô":{"ha":532,"x_min":41,"x_max":490,"o":"m 338 229 l 338 743 q 320 821 338 798 q 265 844 302 844 q 212 821 229 844 q 195 743 195 798 l 195 229 q 212 151 195 174 q 265 127 229 127 q 320 151 302 127 q 338 229 338 174 m 41 229 l 41 743 q 101 931 41 873 q 265 989 161 989 q 353 976 314 989 q 424 935 393 963 q 473 859 456 907 q 490 743 490 810 l 490 229 q 473 114 490 163 q 424 37 456 65 q 353 -4 393 9 q 265 -17 314 -17 q 102 41 162 -17 q 41 229 41 100 m 264 1143 l 215 1043 l 117 1043 l 207 1213 l 323 1213 l 414 1043 l 310 1043 l 264 1143 z "},"Õ":{"ha":532,"x_min":41,"x_max":490,"o":"m 338 229 l 338 743 q 320 821 338 798 q 265 844 302 844 q 212 821 229 844 q 195 743 195 798 l 195 229 q 212 151 195 174 q 265 127 229 127 q 320 151 302 127 q 338 229 338 174 m 41 229 l 41 743 q 101 931 41 873 q 265 989 161 989 q 353 976 314 989 q 424 935 393 963 q 473 859 456 907 q 490 743 490 810 l 490 229 q 473 114 490 163 q 424 37 456 65 q 353 -4 393 9 q 265 -17 314 -17 q 102 41 162 -17 q 41 229 41 100 m 189 1047 l 107 1068 q 200 1192 123 1192 q 261 1175 220 1192 q 315 1158 302 1158 q 342 1204 340 1158 l 425 1192 q 330 1064 409 1064 q 272 1081 308 1064 q 221 1099 237 1099 q 189 1047 193 1099 z "},"Ö":{"ha":532,"x_min":41,"x_max":490,"o":"m 338 229 l 338 743 q 320 821 338 798 q 265 844 302 844 q 212 821 229 844 q 195 743 195 798 l 195 229 q 212 151 195 174 q 265 127 229 127 q 320 151 302 127 q 338 229 338 174 m 41 229 l 41 743 q 101 931 41 873 q 265 989 161 989 q 353 976 314 989 q 424 935 393 963 q 473 859 456 907 q 490 743 490 810 l 490 229 q 473 114 490 163 q 424 37 456 65 q 353 -4 393 9 q 265 -17 314 -17 q 102 41 162 -17 q 41 229 41 100 m 134 1197 l 244 1197 l 244 1050 l 134 1050 l 134 1197 m 288 1197 l 399 1197 l 399 1050 l 288 1050 l 288 1197 z "},"×":{"ha":462,"x_min":47,"x_max":443,"o":"m 329 461 l 443 347 l 359 264 l 244 378 l 131 264 l 47 347 l 161 461 l 47 576 l 131 660 l 245 545 l 359 660 l 443 576 l 329 461 z "},"Ø":{"ha":532,"x_min":41,"x_max":490,"o":"m 41 229 l 41 743 q 101 931 41 873 q 265 989 161 989 q 399 954 345 989 l 418 1011 l 484 1011 l 447 908 q 490 743 490 848 l 490 229 q 473 114 490 163 q 424 37 456 65 q 353 -4 393 9 q 265 -17 314 -17 q 139 12 191 -17 l 117 -52 l 52 -52 l 89 56 q 41 229 41 116 m 195 743 l 195 363 l 336 774 q 314 828 332 811 q 265 844 296 844 q 212 821 229 844 q 195 743 195 798 m 338 229 l 338 589 l 197 184 q 265 127 209 127 q 320 151 302 127 q 338 229 338 174 z "},"Ù":{"ha":554,"x_min":58,"x_max":497,"o":"m 497 972 l 497 229 q 480 114 497 163 q 432 37 463 65 q 362 -4 401 9 q 275 -17 323 -17 q 58 229 58 -17 l 58 972 l 211 972 l 211 231 q 227 151 211 175 q 275 127 242 127 q 324 151 309 127 q 339 231 339 174 l 339 972 l 497 972 m 113 1213 l 254 1213 l 326 1043 l 239 1043 l 113 1213 z "},"Ú":{"ha":554,"x_min":58,"x_max":497,"o":"m 497 972 l 497 229 q 480 114 497 163 q 432 37 463 65 q 362 -4 401 9 q 275 -17 323 -17 q 58 229 58 -17 l 58 972 l 211 972 l 211 231 q 227 151 211 175 q 275 127 242 127 q 324 151 309 127 q 339 231 339 174 l 339 972 l 497 972 m 298 1213 l 441 1213 l 314 1043 l 228 1043 l 298 1213 z "},"Û":{"ha":554,"x_min":58,"x_max":497,"o":"m 497 972 l 497 229 q 480 114 497 163 q 432 37 463 65 q 362 -4 401 9 q 275 -17 323 -17 q 58 229 58 -17 l 58 972 l 211 972 l 211 231 q 227 151 211 175 q 275 127 242 127 q 324 151 309 127 q 339 231 339 174 l 339 972 l 497 972 m 277 1143 l 228 1043 l 129 1043 l 220 1213 l 336 1213 l 427 1043 l 322 1043 l 277 1143 z "},"Ü":{"ha":554,"x_min":58,"x_max":497,"o":"m 497 972 l 497 229 q 480 114 497 163 q 432 37 463 65 q 362 -4 401 9 q 275 -17 323 -17 q 58 229 58 -17 l 58 972 l 211 972 l 211 231 q 227 151 211 175 q 275 127 242 127 q 324 151 309 127 q 339 231 339 174 l 339 972 l 497 972 m 144 1203 l 256 1203 l 256 1055 l 144 1055 l 144 1203 m 298 1203 l 410 1203 l 410 1055 l 298 1055 l 298 1203 z "},"Ý":{"ha":529,"x_min":14,"x_max":515,"o":"m 275 529 l 370 972 l 515 972 l 340 355 l 340 0 l 189 0 l 189 355 l 14 972 l 176 972 l 275 529 m 302 1213 l 446 1213 l 318 1043 l 232 1043 l 302 1213 z "},"Þ":{"ha":519,"x_min":60,"x_max":482,"o":"m 482 586 l 482 411 q 465 306 482 350 q 417 235 448 261 q 346 197 386 209 q 257 184 307 184 l 212 184 l 212 0 l 60 0 l 60 972 l 212 972 l 212 812 l 261 812 q 422 759 363 812 q 482 586 482 705 m 212 330 l 260 330 q 312 349 296 330 q 329 411 329 368 l 329 591 q 313 655 329 635 q 260 675 296 675 l 212 675 l 212 330 z "},"ß":{"ha":643,"x_min":56,"x_max":619,"o":"m 396 541 l 396 505 q 408 470 396 484 q 449 433 420 456 l 546 355 q 619 211 619 298 l 619 150 q 563 29 619 75 q 429 -17 507 -17 q 296 28 348 -17 q 244 151 244 73 l 244 205 l 379 231 l 379 161 q 432 100 379 100 q 481 160 481 100 l 481 201 q 469 235 481 220 q 433 269 458 250 l 325 353 q 275 409 292 380 q 258 479 258 438 l 258 542 q 367 672 258 626 l 367 751 q 344 830 367 802 q 283 857 321 857 q 222 832 246 857 q 199 751 199 806 l 199 0 l 56 0 l 56 750 q 69 842 56 801 q 104 910 82 884 q 156 955 126 937 q 217 981 186 973 q 283 989 249 989 q 369 975 329 989 q 443 935 410 962 q 496 860 476 907 q 515 751 515 813 l 515 625 q 423 589 450 606 q 396 541 396 572 z "},"à":{"ha":493,"x_min":35,"x_max":478,"o":"m 283 143 l 283 328 l 231 328 q 186 311 203 328 q 170 264 170 294 l 170 167 q 216 98 170 98 q 252 111 233 98 q 283 143 271 123 m 179 559 l 179 496 l 46 515 l 46 557 q 98 701 46 644 q 233 757 150 757 q 376 706 326 757 q 425 538 425 654 l 425 150 q 430 110 425 121 q 452 100 435 100 q 478 107 463 100 l 478 11 q 393 -17 438 -17 q 333 1 359 -17 q 298 52 307 19 q 250 1 280 20 q 182 -17 220 -17 q 131 -9 155 -17 q 84 17 106 -1 q 48 70 61 35 q 35 153 35 104 l 35 262 q 63 355 35 317 q 133 410 91 393 q 224 427 174 427 l 283 427 l 283 561 q 270 622 283 605 q 231 639 256 639 q 192 621 205 639 q 179 559 179 603 m 75 972 l 216 972 l 289 803 l 201 803 l 75 972 z "},"á":{"ha":493,"x_min":35,"x_max":478,"o":"m 283 143 l 283 328 l 231 328 q 186 311 203 328 q 170 264 170 294 l 170 167 q 216 98 170 98 q 252 111 233 98 q 283 143 271 123 m 179 559 l 179 496 l 46 515 l 46 557 q 98 701 46 644 q 233 757 150 757 q 376 706 326 757 q 425 538 425 654 l 425 150 q 430 110 425 121 q 452 100 435 100 q 478 107 463 100 l 478 11 q 393 -17 438 -17 q 333 1 359 -17 q 298 52 307 19 q 250 1 280 20 q 182 -17 220 -17 q 131 -9 155 -17 q 84 17 106 -1 q 48 70 61 35 q 35 153 35 104 l 35 262 q 63 355 35 317 q 133 410 91 393 q 224 427 174 427 l 283 427 l 283 561 q 270 622 283 605 q 231 639 256 639 q 192 621 205 639 q 179 559 179 603 m 267 972 l 410 972 l 282 803 l 196 803 l 267 972 z "},"â":{"ha":493,"x_min":35,"x_max":478,"o":"m 283 143 l 283 328 l 231 328 q 186 311 203 328 q 170 264 170 294 l 170 167 q 216 98 170 98 q 252 111 233 98 q 283 143 271 123 m 179 559 l 179 496 l 46 515 l 46 557 q 98 701 46 644 q 233 757 150 757 q 376 706 326 757 q 425 538 425 654 l 425 150 q 430 110 425 121 q 452 100 435 100 q 478 107 463 100 l 478 11 q 393 -17 438 -17 q 333 1 359 -17 q 298 52 307 19 q 250 1 280 20 q 182 -17 220 -17 q 131 -9 155 -17 q 84 17 106 -1 q 48 70 61 35 q 35 153 35 104 l 35 262 q 63 355 35 317 q 133 410 91 393 q 224 427 174 427 l 283 427 l 283 561 q 270 622 283 605 q 231 639 256 639 q 192 621 205 639 q 179 559 179 603 m 241 903 l 193 803 l 94 803 l 184 972 l 301 972 l 392 803 l 288 803 l 241 903 z "},"ã":{"ha":493,"x_min":35,"x_max":478,"o":"m 283 143 l 283 328 l 231 328 q 186 311 203 328 q 170 264 170 294 l 170 167 q 216 98 170 98 q 252 111 233 98 q 283 143 271 123 m 179 559 l 179 496 l 46 515 l 46 557 q 98 701 46 644 q 233 757 150 757 q 376 706 326 757 q 425 538 425 654 l 425 150 q 430 110 425 121 q 452 100 435 100 q 478 107 463 100 l 478 11 q 393 -17 438 -17 q 333 1 359 -17 q 298 52 307 19 q 250 1 280 20 q 182 -17 220 -17 q 131 -9 155 -17 q 84 17 106 -1 q 48 70 61 35 q 35 153 35 104 l 35 262 q 63 355 35 317 q 133 410 91 393 q 224 427 174 427 l 283 427 l 283 561 q 270 622 283 605 q 231 639 256 639 q 192 621 205 639 q 179 559 179 603 m 167 808 l 85 829 q 178 953 101 953 q 239 936 198 953 q 293 920 279 920 q 319 965 317 920 l 403 953 q 309 825 387 825 q 250 843 286 825 q 199 860 214 860 q 167 808 170 860 z "},"ä":{"ha":493,"x_min":35,"x_max":478,"o":"m 283 143 l 283 328 l 231 328 q 186 311 203 328 q 170 264 170 294 l 170 167 q 216 98 170 98 q 252 111 233 98 q 283 143 271 123 m 179 559 l 179 496 l 46 515 l 46 557 q 98 701 46 644 q 233 757 150 757 q 376 706 326 757 q 425 538 425 654 l 425 150 q 430 110 425 121 q 452 100 435 100 q 478 107 463 100 l 478 11 q 393 -17 438 -17 q 333 1 359 -17 q 298 52 307 19 q 250 1 280 20 q 182 -17 220 -17 q 131 -9 155 -17 q 84 17 106 -1 q 48 70 61 35 q 35 153 35 104 l 35 262 q 63 355 35 317 q 133 410 91 393 q 224 427 174 427 l 283 427 l 283 561 q 270 622 283 605 q 231 639 256 639 q 192 621 205 639 q 179 559 179 603 m 113 972 l 224 972 l 224 825 l 113 825 l 113 972 m 267 972 l 378 972 l 378 825 l 267 825 l 267 972 z "},"å":{"ha":493,"x_min":35,"x_max":478,"o":"m 283 143 l 283 328 l 231 328 q 186 311 203 328 q 170 264 170 294 l 170 167 q 216 98 170 98 q 252 111 233 98 q 283 143 271 123 m 179 559 l 179 496 l 46 515 l 46 557 q 98 701 46 644 q 233 757 150 757 q 376 706 326 757 q 425 538 425 654 l 425 150 q 430 110 425 121 q 452 100 435 100 q 478 107 463 100 l 478 11 q 393 -17 438 -17 q 333 1 359 -17 q 298 52 307 19 q 250 1 280 20 q 182 -17 220 -17 q 131 -9 155 -17 q 84 17 106 -1 q 48 70 61 35 q 35 153 35 104 l 35 262 q 63 355 35 317 q 133 410 91 393 q 224 427 174 427 l 283 427 l 283 561 q 270 622 283 605 q 231 639 256 639 q 192 621 205 639 q 179 559 179 603 m 146 892 q 174 963 146 935 q 245 991 202 991 q 319 963 290 991 q 347 892 347 935 q 318 821 347 850 q 245 793 290 793 q 174 821 202 793 q 146 892 146 850 m 192 892 q 208 852 192 869 q 245 835 223 835 q 285 852 269 835 q 301 892 301 869 q 285 933 301 916 q 245 950 269 950 q 208 933 223 950 q 192 892 192 916 z "},"æ":{"ha":734,"x_min":35,"x_max":690,"o":"m 690 376 l 427 376 l 427 186 q 442 119 427 139 q 488 100 457 100 q 549 186 549 100 l 549 258 l 690 277 l 690 195 q 674 96 690 138 q 628 30 657 54 q 564 -5 600 6 q 488 -17 529 -17 q 391 0 430 -17 q 321 57 351 17 q 255 0 288 16 q 179 -17 221 -17 q 132 -9 155 -17 q 85 17 108 -1 q 48 67 62 35 q 35 143 35 100 l 35 262 q 63 355 35 317 q 133 410 91 393 q 224 427 174 427 l 283 427 l 283 561 q 271 622 283 604 q 232 639 259 639 q 192 622 205 639 q 179 561 179 604 l 179 496 l 46 515 l 46 559 q 99 702 46 647 q 235 757 153 757 q 358 701 318 757 q 488 757 416 757 q 564 746 529 757 q 628 711 600 734 q 674 645 657 687 q 690 546 690 603 l 690 376 m 283 144 l 283 328 l 231 328 q 186 311 203 328 q 170 264 170 295 l 170 155 q 183 113 170 128 q 216 98 196 98 q 253 111 235 98 q 283 144 271 124 m 549 554 q 488 640 549 640 q 427 554 427 640 l 427 468 l 549 468 l 549 554 z "},"ç":{"ha":490,"x_min":45,"x_max":452,"o":"m 186 554 l 186 186 q 248 100 186 100 q 309 186 309 100 l 309 258 l 452 277 l 452 195 q 407 48 452 98 q 290 -12 363 -2 q 302 -72 302 -41 q 277 -146 302 -115 q 203 -179 251 -176 q 118 -157 154 -179 l 118 -82 q 175 -100 146 -100 q 206 -84 196 -100 q 216 -46 216 -68 q 212 -14 216 -30 q 91 45 137 -5 q 45 195 45 96 l 45 546 q 61 645 45 603 q 107 711 78 687 q 171 746 136 734 q 248 757 206 757 q 325 746 290 757 q 389 711 360 734 q 435 645 418 687 q 452 546 452 603 l 452 503 l 309 484 l 309 554 q 248 640 309 640 q 186 554 186 640 z "},"è":{"ha":496,"x_min":45,"x_max":452,"o":"m 452 376 l 186 376 l 186 186 q 248 100 186 100 q 309 186 309 100 l 309 258 l 452 277 l 452 195 q 435 96 452 138 q 389 30 418 54 q 325 -5 360 6 q 248 -17 290 -17 q 171 -5 206 -17 q 107 30 136 6 q 61 96 78 54 q 45 195 45 138 l 45 546 q 61 645 45 603 q 107 711 78 687 q 171 746 136 734 q 248 757 206 757 q 325 746 290 757 q 389 711 360 734 q 435 645 418 687 q 452 546 452 603 l 452 376 m 186 554 l 186 468 l 309 468 l 309 554 q 248 640 309 640 q 186 554 186 640 m 81 972 l 222 972 l 294 803 l 207 803 l 81 972 z "},"é":{"ha":496,"x_min":45,"x_max":452,"o":"m 452 376 l 186 376 l 186 186 q 248 100 186 100 q 309 186 309 100 l 309 258 l 452 277 l 452 195 q 435 96 452 138 q 389 30 418 54 q 325 -5 360 6 q 248 -17 290 -17 q 171 -5 206 -17 q 107 30 136 6 q 61 96 78 54 q 45 195 45 138 l 45 546 q 61 645 45 603 q 107 711 78 687 q 171 746 136 734 q 248 757 206 757 q 325 746 290 757 q 389 711 360 734 q 435 645 418 687 q 452 546 452 603 l 452 376 m 186 554 l 186 468 l 309 468 l 309 554 q 248 640 309 640 q 186 554 186 640 m 268 972 l 411 972 l 283 803 l 197 803 l 268 972 z "},"ê":{"ha":496,"x_min":45,"x_max":452,"o":"m 452 376 l 186 376 l 186 186 q 248 100 186 100 q 309 186 309 100 l 309 258 l 452 277 l 452 195 q 435 96 452 138 q 389 30 418 54 q 325 -5 360 6 q 248 -17 290 -17 q 171 -5 206 -17 q 107 30 136 6 q 61 96 78 54 q 45 195 45 138 l 45 546 q 61 645 45 603 q 107 711 78 687 q 171 746 136 734 q 248 757 206 757 q 325 746 290 757 q 389 711 360 734 q 435 645 418 687 q 452 546 452 603 l 452 376 m 186 554 l 186 468 l 309 468 l 309 554 q 248 640 309 640 q 186 554 186 640 m 248 903 l 199 803 l 100 803 l 191 972 l 307 972 l 397 803 l 293 803 l 248 903 z "},"ë":{"ha":496,"x_min":45,"x_max":452,"o":"m 452 376 l 186 376 l 186 186 q 248 100 186 100 q 309 186 309 100 l 309 258 l 452 277 l 452 195 q 435 96 452 138 q 389 30 418 54 q 325 -5 360 6 q 248 -17 290 -17 q 171 -5 206 -17 q 107 30 136 6 q 61 96 78 54 q 45 195 45 138 l 45 546 q 61 645 45 603 q 107 711 78 687 q 171 746 136 734 q 248 757 206 757 q 325 746 290 757 q 389 711 360 734 q 435 645 418 687 q 452 546 452 603 l 452 376 m 186 554 l 186 468 l 309 468 l 309 554 q 248 640 309 640 q 186 554 186 640 m 115 972 l 227 972 l 227 825 l 115 825 l 115 972 m 269 972 l 380 972 l 380 825 l 269 825 l 269 972 z "},"ì":{"ha":254,"x_min":-40,"x_max":199,"o":"m 56 741 l 199 741 l 199 0 l 56 0 l 56 741 m -40 972 l 102 972 l 174 803 l 86 803 l -40 972 z "},"í":{"ha":254,"x_min":56,"x_max":296,"o":"m 56 741 l 199 741 l 199 0 l 56 0 l 56 741 m 153 972 l 296 972 l 168 803 l 82 803 l 153 972 z "},"î":{"ha":254,"x_min":-22,"x_max":275,"o":"m 56 741 l 199 741 l 199 0 l 56 0 l 56 741 m 125 903 l 77 803 l -22 803 l 68 972 l 184 972 l 275 803 l 171 803 l 125 903 z "},"ï":{"ha":254,"x_min":-5,"x_max":260,"o":"m 56 741 l 199 741 l 199 0 l 56 0 l 56 741 m -5 972 l 106 972 l 106 825 l -5 825 l -5 972 m 149 972 l 260 972 l 260 825 l 149 825 l 149 972 z "},"ð":{"ha":496,"x_min":45,"x_max":452,"o":"m 279 1042 q 345 942 326 973 l 441 964 l 441 892 l 379 876 q 452 550 452 726 l 452 195 q 435 96 452 138 q 389 30 418 54 q 325 -5 360 6 q 248 -17 290 -17 q 171 -5 206 -17 q 107 30 136 6 q 61 96 78 54 q 45 195 45 138 l 45 546 q 94 702 45 647 q 214 757 142 757 q 307 729 261 757 q 261 850 294 783 l 122 819 l 122 892 l 227 916 q 142 1042 193 975 l 279 1042 m 309 186 l 309 554 q 248 640 309 640 q 186 554 186 640 l 186 186 q 248 100 186 100 q 309 186 309 100 z "},"ñ":{"ha":519,"x_min":56,"x_max":467,"o":"m 56 741 l 193 741 l 193 686 q 249 736 210 715 q 328 757 288 757 q 427 710 388 757 q 467 572 467 664 l 467 0 l 323 0 l 323 559 q 308 613 323 595 q 268 632 292 632 q 199 599 229 632 l 199 0 l 56 0 l 56 741 m 183 808 l 102 829 q 195 953 118 953 q 256 936 215 953 q 310 920 296 920 q 336 965 334 920 l 419 953 q 325 825 403 825 q 267 843 302 825 q 215 860 231 860 q 183 808 186 860 z "},"ò":{"ha":496,"x_min":45,"x_max":452,"o":"m 309 186 l 309 554 q 248 640 309 640 q 186 554 186 640 l 186 186 q 248 100 186 100 q 309 186 309 100 m 248 -17 q 171 -5 206 -17 q 107 30 136 6 q 61 96 78 54 q 45 195 45 138 l 45 546 q 61 645 45 603 q 107 711 78 687 q 171 746 136 734 q 248 757 206 757 q 325 746 290 757 q 389 711 360 734 q 435 645 418 687 q 452 546 452 603 l 452 195 q 435 96 452 138 q 389 30 418 54 q 325 -5 360 6 q 248 -17 290 -17 m 83 972 l 225 972 l 297 803 l 210 803 l 83 972 z "},"ó":{"ha":496,"x_min":45,"x_max":452,"o":"m 309 186 l 309 554 q 248 640 309 640 q 186 554 186 640 l 186 186 q 248 100 186 100 q 309 186 309 100 m 248 -17 q 171 -5 206 -17 q 107 30 136 6 q 61 96 78 54 q 45 195 45 138 l 45 546 q 61 645 45 603 q 107 711 78 687 q 171 746 136 734 q 248 757 206 757 q 325 746 290 757 q 389 711 360 734 q 435 645 418 687 q 452 546 452 603 l 452 195 q 435 96 452 138 q 389 30 418 54 q 325 -5 360 6 q 248 -17 290 -17 m 273 972 l 416 972 l 289 803 l 203 803 l 273 972 z "},"ô":{"ha":496,"x_min":45,"x_max":452,"o":"m 309 186 l 309 554 q 248 640 309 640 q 186 554 186 640 l 186 186 q 248 100 186 100 q 309 186 309 100 m 248 -17 q 171 -5 206 -17 q 107 30 136 6 q 61 96 78 54 q 45 195 45 138 l 45 546 q 61 645 45 603 q 107 711 78 687 q 171 746 136 734 q 248 757 206 757 q 325 746 290 757 q 389 711 360 734 q 435 645 418 687 q 452 546 452 603 l 452 195 q 435 96 452 138 q 389 30 418 54 q 325 -5 360 6 q 248 -17 290 -17 m 245 903 l 197 803 l 98 803 l 189 972 l 306 972 l 396 803 l 292 803 l 245 903 z "},"õ":{"ha":496,"x_min":45,"x_max":452,"o":"m 309 186 l 309 554 q 248 640 309 640 q 186 554 186 640 l 186 186 q 248 100 186 100 q 309 186 309 100 m 248 -17 q 171 -5 206 -17 q 107 30 136 6 q 61 96 78 54 q 45 195 45 138 l 45 546 q 61 645 45 603 q 107 711 78 687 q 171 746 136 734 q 248 757 206 757 q 325 746 290 757 q 389 711 360 734 q 435 645 418 687 q 452 546 452 603 l 452 195 q 435 96 452 138 q 389 30 418 54 q 325 -5 360 6 q 248 -17 290 -17 m 171 808 l 89 829 q 182 953 106 953 q 243 936 202 953 q 297 920 283 920 q 323 965 321 920 l 407 953 q 313 825 391 825 q 254 843 290 825 q 203 860 218 860 q 171 808 174 860 z "},"ö":{"ha":496,"x_min":45,"x_max":452,"o":"m 309 186 l 309 554 q 248 640 309 640 q 186 554 186 640 l 186 186 q 248 100 186 100 q 309 186 309 100 m 248 -17 q 171 -5 206 -17 q 107 30 136 6 q 61 96 78 54 q 45 195 45 138 l 45 546 q 61 645 45 603 q 107 711 78 687 q 171 746 136 734 q 248 757 206 757 q 325 746 290 757 q 389 711 360 734 q 435 645 418 687 q 452 546 452 603 l 452 195 q 435 96 452 138 q 389 30 418 54 q 325 -5 360 6 q 248 -17 290 -17 m 115 972 l 227 972 l 227 825 l 115 825 l 115 972 m 269 972 l 380 972 l 380 825 l 269 825 l 269 972 z "},"÷":{"ha":448,"x_min":45,"x_max":416,"o":"m 416 528 l 416 396 l 45 396 l 45 528 l 416 528 m 161 314 l 298 314 l 298 161 l 161 161 l 161 314 m 161 762 l 298 762 l 298 608 l 161 608 l 161 762 z "},"ø":{"ha":496,"x_min":45,"x_max":452,"o":"m 248 -17 q 140 7 189 -17 l 118 -52 l 53 -52 l 90 45 q 45 195 45 99 l 45 546 q 61 645 45 603 q 107 711 78 687 q 171 746 136 734 q 248 757 206 757 q 363 729 316 757 l 380 775 l 444 775 l 410 688 q 452 546 452 635 l 452 195 q 435 96 452 138 q 389 30 418 54 q 325 -5 360 6 q 248 -17 290 -17 m 186 554 l 186 271 l 306 586 q 248 640 296 640 q 186 554 186 640 m 309 186 l 309 444 l 193 138 q 248 100 207 100 q 309 186 309 100 z "},"ù":{"ha":511,"x_min":53,"x_max":458,"o":"m 315 741 l 458 741 l 458 195 q 442 96 458 138 q 396 30 425 54 q 332 -5 368 6 q 256 -17 297 -17 q 179 -5 214 -17 q 115 30 144 6 q 70 96 86 54 q 53 195 53 138 l 53 741 l 196 741 l 196 186 q 256 100 196 100 q 315 186 315 100 l 315 741 m 82 972 l 224 972 l 296 803 l 208 803 l 82 972 z "},"ú":{"ha":511,"x_min":53,"x_max":458,"o":"m 315 741 l 458 741 l 458 195 q 442 96 458 138 q 396 30 425 54 q 332 -5 368 6 q 256 -17 297 -17 q 179 -5 214 -17 q 115 30 144 6 q 70 96 86 54 q 53 195 53 138 l 53 741 l 196 741 l 196 186 q 256 100 196 100 q 315 186 315 100 l 315 741 m 282 972 l 425 972 l 297 803 l 211 803 l 282 972 z "},"û":{"ha":511,"x_min":53,"x_max":458,"o":"m 315 741 l 458 741 l 458 195 q 442 96 458 138 q 396 30 425 54 q 332 -5 368 6 q 256 -17 297 -17 q 179 -5 214 -17 q 115 30 144 6 q 70 96 86 54 q 53 195 53 138 l 53 741 l 196 741 l 196 186 q 256 100 196 100 q 315 186 315 100 l 315 741 m 254 903 l 205 803 l 107 803 l 197 972 l 314 972 l 404 803 l 300 803 l 254 903 z "},"ü":{"ha":511,"x_min":53,"x_max":458,"o":"m 315 741 l 458 741 l 458 195 q 442 96 458 138 q 396 30 425 54 q 332 -5 368 6 q 256 -17 297 -17 q 179 -5 214 -17 q 115 30 144 6 q 70 96 86 54 q 53 195 53 138 l 53 741 l 196 741 l 196 186 q 256 100 196 100 q 315 186 315 100 l 315 741 m 123 972 l 235 972 l 235 825 l 123 825 l 123 972 m 278 972 l 389 972 l 389 825 l 278 825 l 278 972 z "},"ý":{"ha":481,"x_min":-12,"x_max":473,"o":"m -12 -78 q 61 -90 32 -90 q 135 -62 109 -90 q 176 40 160 -35 l 18 741 l 165 741 l 256 268 l 335 741 l 473 741 l 322 36 q 234 -145 296 -82 q 81 -208 172 -208 q -12 -192 39 -208 l -12 -78 m 272 972 l 415 972 l 288 803 l 201 803 l 272 972 z "},"þ":{"ha":500,"x_min":56,"x_max":463,"o":"m 199 41 l 199 -197 l 56 -221 l 56 972 l 199 1000 l 199 697 q 248 740 217 722 q 314 757 279 757 q 425 710 388 757 q 463 566 463 664 l 463 172 q 419 31 463 79 q 309 -17 376 -17 q 248 0 279 -17 q 199 41 218 16 m 199 608 l 199 131 q 260 102 224 102 q 302 121 286 102 q 319 182 319 140 l 319 557 q 260 639 319 639 q 199 608 224 639 z "},"ÿ":{"ha":481,"x_min":-12,"x_max":473,"o":"m -12 -78 q 61 -90 32 -90 q 135 -62 109 -90 q 176 40 160 -35 l 18 741 l 165 741 l 256 268 l 335 741 l 473 741 l 322 36 q 234 -145 296 -82 q 81 -208 172 -208 q -12 -192 39 -208 l -12 -78 m 121 972 l 232 972 l 232 825 l 121 825 l 121 972 m 275 972 l 386 972 l 386 825 l 275 825 l 275 972 z "},"Ā":{"ha":540,"x_min":9,"x_max":530,"o":"m 375 0 l 346 192 l 180 192 l 154 0 l 9 0 l 174 972 l 366 972 l 530 0 l 375 0 m 262 766 l 197 318 l 330 318 l 265 766 l 262 766 m 404 1079 l 138 1079 l 138 1181 l 404 1181 l 404 1079 z "},"ā":{"ha":493,"x_min":35,"x_max":478,"o":"m 283 143 l 283 328 l 231 328 q 186 311 203 328 q 170 264 170 294 l 170 167 q 216 98 170 98 q 252 111 233 98 q 283 143 271 123 m 179 559 l 179 496 l 46 515 l 46 557 q 98 701 46 644 q 233 757 150 757 q 376 706 326 757 q 425 538 425 654 l 425 150 q 430 110 425 121 q 452 100 435 100 q 478 107 463 100 l 478 11 q 393 -17 438 -17 q 333 1 359 -17 q 298 52 307 19 q 250 1 280 20 q 182 -17 220 -17 q 131 -9 155 -17 q 84 17 106 -1 q 48 70 61 35 q 35 153 35 104 l 35 262 q 63 355 35 317 q 133 410 91 393 q 224 427 174 427 l 283 427 l 283 561 q 270 622 283 605 q 231 639 256 639 q 192 621 205 639 q 179 559 179 603 m 380 838 l 114 838 l 114 939 l 380 939 l 380 838 z "},"Ă":{"ha":540,"x_min":9,"x_max":530,"o":"m 375 0 l 346 192 l 180 192 l 154 0 l 9 0 l 174 972 l 366 972 l 530 0 l 375 0 m 262 766 l 197 318 l 330 318 l 265 766 l 262 766 m 271 1046 q 134 1213 134 1046 l 218 1213 q 229 1148 218 1169 q 271 1126 239 1126 q 311 1148 300 1126 q 322 1213 322 1171 l 407 1213 q 271 1046 407 1046 z "},"ă":{"ha":493,"x_min":35,"x_max":478,"o":"m 283 143 l 283 328 l 231 328 q 186 311 203 328 q 170 264 170 294 l 170 167 q 216 98 170 98 q 252 111 233 98 q 283 143 271 123 m 179 559 l 179 496 l 46 515 l 46 557 q 98 701 46 644 q 233 757 150 757 q 376 706 326 757 q 425 538 425 654 l 425 150 q 430 110 425 121 q 452 100 435 100 q 478 107 463 100 l 478 11 q 393 -17 438 -17 q 333 1 359 -17 q 298 52 307 19 q 250 1 280 20 q 182 -17 220 -17 q 131 -9 155 -17 q 84 17 106 -1 q 48 70 61 35 q 35 153 35 104 l 35 262 q 63 355 35 317 q 133 410 91 393 q 224 427 174 427 l 283 427 l 283 561 q 270 622 283 605 q 231 639 256 639 q 192 621 205 639 q 179 559 179 603 m 248 806 q 110 972 110 806 l 195 972 q 205 908 195 929 q 248 886 216 886 q 288 908 277 886 q 298 972 298 930 l 383 972 q 248 806 383 806 z "},"Ą":{"ha":540,"x_min":9,"x_max":530,"o":"m 375 0 l 346 192 l 180 192 l 154 0 l 9 0 l 174 972 l 366 972 l 530 0 l 465 0 q 418 -77 418 -35 q 460 -111 418 -111 q 515 -94 490 -111 l 515 -168 q 446 -184 484 -184 q 364 -157 391 -184 q 336 -87 336 -130 q 375 0 336 -37 m 262 766 l 197 318 l 330 318 l 265 766 l 262 766 z "},"ą":{"ha":493,"x_min":35,"x_max":478,"o":"m 179 559 l 179 496 l 46 515 l 46 557 q 98 701 46 644 q 233 757 150 757 q 376 706 326 757 q 425 538 425 654 l 425 150 q 430 110 425 121 q 452 100 435 100 q 478 107 463 100 l 478 11 q 408 -16 440 -12 q 380 -77 380 -45 q 422 -111 380 -111 q 478 -94 453 -111 l 478 -168 q 408 -184 446 -184 q 326 -157 353 -184 q 298 -87 298 -130 q 336 -1 298 -37 q 298 52 307 16 q 250 1 280 20 q 182 -17 220 -17 q 131 -9 155 -17 q 84 17 106 -1 q 48 70 61 35 q 35 153 35 104 l 35 262 q 63 355 35 317 q 133 410 91 393 q 224 427 174 427 l 283 427 l 283 561 q 270 622 283 605 q 231 639 256 639 q 192 621 205 639 q 179 559 179 603 m 283 143 l 283 328 l 231 328 q 186 311 203 328 q 170 264 170 294 l 170 167 q 216 98 170 98 q 252 111 233 98 q 283 143 271 123 z "},"Ć":{"ha":533,"x_min":41,"x_max":490,"o":"m 490 347 l 490 229 q 473 114 490 163 q 424 37 456 65 q 353 -4 393 9 q 265 -17 314 -17 q 102 41 162 -17 q 41 229 41 100 l 41 743 q 101 931 41 873 q 265 989 161 989 q 353 976 314 989 q 424 935 393 963 q 473 859 456 907 q 490 743 490 810 l 490 676 l 338 644 l 338 743 q 320 821 338 798 q 265 844 302 844 q 212 821 229 844 q 195 743 195 798 l 195 229 q 212 151 195 174 q 265 127 229 127 q 320 151 302 127 q 338 229 338 174 l 338 315 l 490 347 m 297 1213 l 440 1213 l 313 1043 l 227 1043 l 297 1213 z "},"ć":{"ha":490,"x_min":45,"x_max":452,"o":"m 186 554 l 186 186 q 248 100 186 100 q 309 186 309 100 l 309 258 l 452 277 l 452 195 q 435 96 452 138 q 389 30 418 54 q 325 -5 360 6 q 248 -17 290 -17 q 171 -5 206 -17 q 107 30 136 6 q 61 96 78 54 q 45 195 45 138 l 45 546 q 61 645 45 603 q 107 711 78 687 q 171 746 136 734 q 248 757 206 757 q 325 746 290 757 q 389 711 360 734 q 435 645 418 687 q 452 546 452 603 l 452 503 l 309 484 l 309 554 q 248 640 309 640 q 186 554 186 640 m 269 972 l 412 972 l 285 803 l 199 803 l 269 972 z "},"Ĉ":{"ha":533,"x_min":41,"x_max":490,"o":"m 490 347 l 490 229 q 473 114 490 163 q 424 37 456 65 q 353 -4 393 9 q 265 -17 314 -17 q 102 41 162 -17 q 41 229 41 100 l 41 743 q 101 931 41 873 q 265 989 161 989 q 353 976 314 989 q 424 935 393 963 q 473 859 456 907 q 490 743 490 810 l 490 676 l 338 644 l 338 743 q 320 821 338 798 q 265 844 302 844 q 212 821 229 844 q 195 743 195 798 l 195 229 q 212 151 195 174 q 265 127 229 127 q 320 151 302 127 q 338 229 338 174 l 338 315 l 490 347 m 262 1143 l 214 1043 l 115 1043 l 205 1213 l 322 1213 l 412 1043 l 309 1043 l 262 1143 z "},"ĉ":{"ha":490,"x_min":45,"x_max":452,"o":"m 186 554 l 186 186 q 248 100 186 100 q 309 186 309 100 l 309 258 l 452 277 l 452 195 q 435 96 452 138 q 389 30 418 54 q 325 -5 360 6 q 248 -17 290 -17 q 171 -5 206 -17 q 107 30 136 6 q 61 96 78 54 q 45 195 45 138 l 45 546 q 61 645 45 603 q 107 711 78 687 q 171 746 136 734 q 248 757 206 757 q 325 746 290 757 q 389 711 360 734 q 435 645 418 687 q 452 546 452 603 l 452 503 l 309 484 l 309 554 q 248 640 309 640 q 186 554 186 640 m 244 903 l 196 803 l 97 803 l 187 972 l 304 972 l 395 803 l 290 803 l 244 903 z "},"Ċ":{"ha":533,"x_min":41,"x_max":490,"o":"m 490 347 l 490 229 q 473 114 490 163 q 424 37 456 65 q 353 -4 393 9 q 265 -17 314 -17 q 102 41 162 -17 q 41 229 41 100 l 41 743 q 101 931 41 873 q 265 989 161 989 q 353 976 314 989 q 424 935 393 963 q 473 859 456 907 q 490 743 490 810 l 490 676 l 338 644 l 338 743 q 320 821 338 798 q 265 844 302 844 q 212 821 229 844 q 195 743 195 798 l 195 229 q 212 151 195 174 q 265 127 229 127 q 320 151 302 127 q 338 229 338 174 l 338 315 l 490 347 m 193 1203 l 335 1203 l 335 1055 l 193 1055 l 193 1203 z "},"ċ":{"ha":490,"x_min":45,"x_max":452,"o":"m 186 554 l 186 186 q 248 100 186 100 q 309 186 309 100 l 309 258 l 452 277 l 452 195 q 435 96 452 138 q 389 30 418 54 q 325 -5 360 6 q 248 -17 290 -17 q 171 -5 206 -17 q 107 30 136 6 q 61 96 78 54 q 45 195 45 138 l 45 546 q 61 645 45 603 q 107 711 78 687 q 171 746 136 734 q 248 757 206 757 q 325 746 290 757 q 389 711 360 734 q 435 645 418 687 q 452 546 452 603 l 452 503 l 309 484 l 309 554 q 248 640 309 640 q 186 554 186 640 m 175 972 l 317 972 l 317 825 l 175 825 l 175 972 z "},"Č":{"ha":533,"x_min":41,"x_max":490,"o":"m 490 347 l 490 229 q 473 114 490 163 q 424 37 456 65 q 353 -4 393 9 q 265 -17 314 -17 q 102 41 162 -17 q 41 229 41 100 l 41 743 q 101 931 41 873 q 265 989 161 989 q 353 976 314 989 q 424 935 393 963 q 473 859 456 907 q 490 743 490 810 l 490 676 l 338 644 l 338 743 q 320 821 338 798 q 265 844 302 844 q 212 821 229 844 q 195 743 195 798 l 195 229 q 212 151 195 174 q 265 127 229 127 q 320 151 302 127 q 338 229 338 174 l 338 315 l 490 347 m 220 1213 l 265 1112 l 314 1213 l 412 1213 l 322 1043 l 205 1043 l 115 1213 l 220 1213 z "},"č":{"ha":490,"x_min":45,"x_max":452,"o":"m 186 554 l 186 186 q 248 100 186 100 q 309 186 309 100 l 309 258 l 452 277 l 452 195 q 435 96 452 138 q 389 30 418 54 q 325 -5 360 6 q 248 -17 290 -17 q 171 -5 206 -17 q 107 30 136 6 q 61 96 78 54 q 45 195 45 138 l 45 546 q 61 645 45 603 q 107 711 78 687 q 171 746 136 734 q 248 757 206 757 q 325 746 290 757 q 389 711 360 734 q 435 645 418 687 q 452 546 452 603 l 452 503 l 309 484 l 309 554 q 248 640 309 640 q 186 554 186 640 m 201 972 l 248 872 l 296 972 l 395 972 l 304 803 l 187 803 l 97 972 l 201 972 z "},"Ď":{"ha":550,"x_min":60,"x_max":509,"o":"m 60 972 l 285 972 q 447 914 386 972 q 509 726 509 855 l 509 245 q 447 58 509 117 q 285 0 386 0 l 60 0 l 60 972 m 214 827 l 214 146 l 285 146 q 338 169 321 146 q 355 248 355 192 l 355 725 q 338 804 355 781 q 285 827 321 827 l 214 827 m 231 1213 l 277 1112 l 325 1213 l 424 1213 l 334 1043 l 216 1043 l 126 1213 l 231 1213 z "},"ď":{"ha":623,"x_min":45,"x_max":637,"o":"m 518 972 l 637 972 l 578 757 l 484 757 l 518 972 m 307 0 l 307 41 q 257 0 288 16 q 195 -17 226 -17 q 86 32 127 -17 q 45 172 45 81 l 45 566 q 87 707 45 657 q 196 757 129 757 q 302 708 258 757 l 302 972 l 446 1000 l 446 0 l 307 0 m 302 131 l 302 616 q 241 639 272 639 q 187 557 187 639 l 187 216 q 200 124 187 149 q 243 100 212 100 q 302 131 276 100 z "},"Đ":{"ha":564,"x_min":14,"x_max":522,"o":"m 14 411 l 14 551 l 74 551 l 74 972 l 298 972 q 461 914 399 972 q 522 726 522 855 l 522 245 q 461 58 522 117 q 298 0 399 0 l 74 0 l 74 411 l 14 411 m 228 827 l 228 551 l 304 551 l 304 411 l 228 411 l 228 146 l 298 146 q 352 169 335 146 q 370 248 370 192 l 370 725 q 352 804 370 781 q 298 827 335 827 l 228 827 z "},"đ":{"ha":540,"x_min":45,"x_max":528,"o":"m 153 825 l 153 914 l 302 914 l 302 972 l 446 1000 l 446 914 l 528 914 l 528 825 l 446 825 l 446 0 l 307 0 l 307 41 q 257 0 288 16 q 195 -17 226 -17 q 86 32 127 -17 q 45 172 45 81 l 45 566 q 87 707 45 657 q 196 757 129 757 q 302 708 258 757 l 302 825 l 153 825 m 302 131 l 302 616 q 241 639 272 639 q 187 557 187 639 l 187 216 q 200 124 187 149 q 243 100 212 100 q 302 131 276 100 z "},"Ē":{"ha":425,"x_min":60,"x_max":389,"o":"m 60 972 l 382 972 l 382 831 l 212 831 l 212 559 l 359 559 l 359 419 l 212 419 l 212 142 l 389 142 l 389 0 l 60 0 l 60 972 m 354 1078 l 87 1078 l 87 1179 l 354 1179 l 354 1078 z "},"ē":{"ha":496,"x_min":45,"x_max":452,"o":"m 452 376 l 186 376 l 186 186 q 248 100 186 100 q 309 186 309 100 l 309 258 l 452 277 l 452 195 q 435 96 452 138 q 389 30 418 54 q 325 -5 360 6 q 248 -17 290 -17 q 171 -5 206 -17 q 107 30 136 6 q 61 96 78 54 q 45 195 45 138 l 45 546 q 61 645 45 603 q 107 711 78 687 q 171 746 136 734 q 248 757 206 757 q 325 746 290 757 q 389 711 360 734 q 435 645 418 687 q 452 546 452 603 l 452 376 m 186 554 l 186 468 l 309 468 l 309 554 q 248 640 309 640 q 186 554 186 640 m 382 838 l 115 838 l 115 939 l 382 939 l 382 838 z "},"Ĕ":{"ha":425,"x_min":60,"x_max":389,"o":"m 60 972 l 382 972 l 382 831 l 212 831 l 212 559 l 359 559 l 359 419 l 212 419 l 212 142 l 389 142 l 389 0 l 60 0 l 60 972 m 221 1042 q 83 1208 83 1042 l 168 1208 q 179 1144 168 1165 q 221 1122 189 1122 q 261 1144 251 1122 q 272 1208 272 1166 l 357 1208 q 221 1042 357 1042 z "},"ĕ":{"ha":496,"x_min":45,"x_max":452,"o":"m 452 376 l 186 376 l 186 186 q 248 100 186 100 q 309 186 309 100 l 309 258 l 452 277 l 452 195 q 435 96 452 138 q 389 30 418 54 q 325 -5 360 6 q 248 -17 290 -17 q 171 -5 206 -17 q 107 30 136 6 q 61 96 78 54 q 45 195 45 138 l 45 546 q 61 645 45 603 q 107 711 78 687 q 171 746 136 734 q 248 757 206 757 q 325 746 290 757 q 389 711 360 734 q 435 645 418 687 q 452 546 452 603 l 452 376 m 186 554 l 186 468 l 309 468 l 309 554 q 248 640 309 640 q 186 554 186 640 m 249 806 q 111 972 111 806 l 196 972 q 207 908 196 929 q 249 886 217 886 q 289 908 279 886 q 300 972 300 930 l 385 972 q 249 806 385 806 z "},"Ė":{"ha":425,"x_min":60,"x_max":389,"o":"m 60 972 l 382 972 l 382 831 l 212 831 l 212 559 l 359 559 l 359 419 l 212 419 l 212 142 l 389 142 l 389 0 l 60 0 l 60 972 m 151 1203 l 293 1203 l 293 1055 l 151 1055 l 151 1203 z "},"ė":{"ha":496,"x_min":45,"x_max":452,"o":"m 452 376 l 186 376 l 186 186 q 248 100 186 100 q 309 186 309 100 l 309 258 l 452 277 l 452 195 q 435 96 452 138 q 389 30 418 54 q 325 -5 360 6 q 248 -17 290 -17 q 171 -5 206 -17 q 107 30 136 6 q 61 96 78 54 q 45 195 45 138 l 45 546 q 61 645 45 603 q 107 711 78 687 q 171 746 136 734 q 248 757 206 757 q 325 746 290 757 q 389 711 360 734 q 435 645 418 687 q 452 546 452 603 l 452 376 m 186 554 l 186 468 l 309 468 l 309 554 q 248 640 309 640 q 186 554 186 640 m 178 972 l 319 972 l 319 825 l 178 825 l 178 972 z "},"Ę":{"ha":425,"x_min":60,"x_max":389,"o":"m 250 0 l 60 0 l 60 972 l 382 972 l 382 831 l 212 831 l 212 559 l 359 559 l 359 419 l 212 419 l 212 142 l 389 142 l 389 0 l 339 0 q 292 -77 292 -35 q 334 -111 292 -111 q 389 -94 363 -111 l 389 -168 q 319 -184 357 -184 q 237 -157 264 -184 q 210 -87 210 -130 q 250 0 210 -37 z "},"ę":{"ha":496,"x_min":45,"x_max":452,"o":"m 452 376 l 186 376 l 186 186 q 248 100 186 100 q 309 186 309 100 l 309 258 l 452 277 l 452 195 q 408 49 452 100 q 293 -12 365 -1 q 261 -77 261 -40 q 302 -111 261 -111 q 358 -94 332 -111 l 358 -168 q 289 -184 327 -184 q 207 -157 234 -184 q 179 -87 179 -130 q 205 -12 179 -45 q 89 48 134 -2 q 45 195 45 98 l 45 546 q 61 645 45 603 q 107 711 78 687 q 171 746 136 734 q 248 757 206 757 q 325 746 290 757 q 389 711 360 734 q 435 645 418 687 q 452 546 452 603 l 452 376 m 186 554 l 186 468 l 309 468 l 309 554 q 248 640 309 640 q 186 554 186 640 z "},"Ě":{"ha":425,"x_min":60,"x_max":389,"o":"m 60 972 l 382 972 l 382 831 l 212 831 l 212 559 l 359 559 l 359 419 l 212 419 l 212 142 l 389 142 l 389 0 l 60 0 l 60 972 m 176 1213 l 222 1112 l 271 1213 l 370 1213 l 279 1043 l 163 1043 l 72 1213 l 176 1213 z "},"ě":{"ha":496,"x_min":45,"x_max":452,"o":"m 452 376 l 186 376 l 186 186 q 248 100 186 100 q 309 186 309 100 l 309 258 l 452 277 l 452 195 q 435 96 452 138 q 389 30 418 54 q 325 -5 360 6 q 248 -17 290 -17 q 171 -5 206 -17 q 107 30 136 6 q 61 96 78 54 q 45 195 45 138 l 45 546 q 61 645 45 603 q 107 711 78 687 q 171 746 136 734 q 248 757 206 757 q 325 746 290 757 q 389 711 360 734 q 435 645 418 687 q 452 546 452 603 l 452 376 m 186 554 l 186 468 l 309 468 l 309 554 q 248 640 309 640 q 186 554 186 640 m 204 972 l 250 872 l 298 972 l 397 972 l 307 803 l 191 803 l 100 972 l 204 972 z "},"Ĝ":{"ha":559,"x_min":41,"x_max":500,"o":"m 353 393 l 265 393 l 265 534 l 500 534 l 500 0 l 363 0 l 363 49 q 231 -17 311 -17 q 91 45 140 -17 q 41 229 41 107 l 41 743 q 101 931 41 873 q 265 989 161 989 q 355 976 314 989 q 428 935 395 963 q 480 859 461 907 q 498 743 498 810 l 498 676 l 346 644 l 346 742 q 327 820 346 797 q 271 843 308 843 q 214 820 233 843 q 195 742 195 797 l 195 229 q 273 127 195 127 q 353 239 353 127 l 353 393 m 271 1141 l 222 1042 l 123 1042 l 214 1211 l 330 1211 l 421 1042 l 317 1042 l 271 1141 z "},"ĝ":{"ha":501,"x_min":45,"x_max":450,"o":"m 450 741 l 450 8 q 430 -88 450 -45 q 375 -157 410 -131 q 297 -196 340 -182 q 207 -210 254 -210 q 89 -189 151 -210 l 89 -74 q 195 -92 149 -92 q 307 -1 307 -92 l 307 46 q 256 8 287 22 q 195 -5 225 -5 q 88 41 132 -5 q 45 176 45 88 l 45 566 q 86 709 45 661 q 193 757 127 757 q 259 740 229 757 q 307 697 290 722 l 307 741 l 450 741 m 307 135 l 307 607 q 243 639 280 639 q 199 615 212 639 q 187 526 187 591 l 187 215 q 201 130 187 153 q 245 106 215 106 q 307 135 282 106 m 250 903 l 201 803 l 103 803 l 193 972 l 310 972 l 400 803 l 296 803 l 250 903 z "},"Ğ":{"ha":559,"x_min":41,"x_max":500,"o":"m 353 393 l 265 393 l 265 534 l 500 534 l 500 0 l 363 0 l 363 49 q 231 -17 311 -17 q 91 45 140 -17 q 41 229 41 107 l 41 743 q 101 931 41 873 q 265 989 161 989 q 355 976 314 989 q 428 935 395 963 q 480 859 461 907 q 498 743 498 810 l 498 676 l 346 644 l 346 742 q 327 820 346 797 q 271 843 308 843 q 214 820 233 843 q 195 742 195 797 l 195 229 q 273 127 195 127 q 353 239 353 127 l 353 393 m 268 1043 q 131 1210 131 1043 l 215 1210 q 225 1145 215 1166 q 268 1124 236 1124 q 309 1146 298 1124 q 319 1210 319 1168 l 404 1210 q 268 1043 404 1043 z "},"ğ":{"ha":501,"x_min":45,"x_max":450,"o":"m 450 741 l 450 8 q 430 -88 450 -45 q 375 -157 410 -131 q 297 -196 340 -182 q 207 -210 254 -210 q 89 -189 151 -210 l 89 -74 q 195 -92 149 -92 q 307 -1 307 -92 l 307 46 q 256 8 287 22 q 195 -5 225 -5 q 88 41 132 -5 q 45 176 45 88 l 45 566 q 86 709 45 661 q 193 757 127 757 q 259 740 229 757 q 307 697 290 722 l 307 741 l 450 741 m 307 135 l 307 607 q 243 639 280 639 q 199 615 212 639 q 187 526 187 591 l 187 215 q 201 130 187 153 q 245 106 215 106 q 307 135 282 106 m 252 806 q 114 972 114 806 l 199 972 q 209 908 199 929 q 252 886 220 886 q 292 908 281 886 q 302 972 302 930 l 387 972 q 252 806 387 806 z "},"Ġ":{"ha":559,"x_min":41,"x_max":500,"o":"m 353 393 l 265 393 l 265 534 l 500 534 l 500 0 l 363 0 l 363 49 q 231 -17 311 -17 q 91 45 140 -17 q 41 229 41 107 l 41 743 q 101 931 41 873 q 265 989 161 989 q 355 976 314 989 q 428 935 395 963 q 480 859 461 907 q 498 743 498 810 l 498 676 l 346 644 l 346 742 q 327 820 346 797 q 271 843 308 843 q 214 820 233 843 q 195 742 195 797 l 195 229 q 273 127 195 127 q 353 239 353 127 l 353 393 m 199 1203 l 340 1203 l 340 1055 l 199 1055 l 199 1203 z "},"ġ":{"ha":501,"x_min":45,"x_max":450,"o":"m 450 741 l 450 8 q 430 -88 450 -45 q 375 -157 410 -131 q 297 -196 340 -182 q 207 -210 254 -210 q 89 -189 151 -210 l 89 -74 q 195 -92 149 -92 q 307 -1 307 -92 l 307 46 q 256 8 287 22 q 195 -5 225 -5 q 88 41 132 -5 q 45 176 45 88 l 45 566 q 86 709 45 661 q 193 757 127 757 q 259 740 229 757 q 307 697 290 722 l 307 741 l 450 741 m 307 135 l 307 607 q 243 639 280 639 q 199 615 212 639 q 187 526 187 591 l 187 215 q 201 130 187 153 q 245 106 215 106 q 307 135 282 106 m 180 972 l 322 972 l 322 825 l 180 825 l 180 972 z "},"Ģ":{"ha":559,"x_min":41,"x_max":500,"o":"m 353 393 l 265 393 l 265 534 l 500 534 l 500 0 l 363 0 l 363 49 q 231 -17 311 -17 q 91 45 140 -17 q 41 229 41 107 l 41 743 q 101 931 41 873 q 265 989 161 989 q 355 976 314 989 q 428 935 395 963 q 480 859 461 907 q 498 743 498 810 l 498 676 l 346 644 l 346 742 q 327 820 346 797 q 271 843 308 843 q 214 820 233 843 q 195 742 195 797 l 195 229 q 273 127 195 127 q 353 239 353 127 l 353 393 m 229 -57 l 372 -57 l 244 -227 l 158 -227 l 229 -57 z "},"ģ":{"ha":501,"x_min":45,"x_max":554,"o":"m 450 741 l 450 8 q 430 -88 450 -45 q 375 -157 410 -131 q 297 -196 340 -182 q 207 -210 254 -210 q 89 -189 151 -210 l 89 -74 q 195 -92 149 -92 q 307 -1 307 -92 l 307 46 q 256 8 287 22 q 195 -5 225 -5 q 88 41 132 -5 q 45 176 45 88 l 45 566 q 86 709 45 661 q 193 757 127 757 q 259 740 229 757 q 307 697 290 722 l 307 741 l 450 741 m 307 135 l 307 607 q 243 639 280 639 q 199 615 212 639 q 187 526 187 591 l 187 215 q 201 130 187 153 q 245 106 215 106 q 307 135 282 106 m 425 2888 l 554 2888 l 476 2593 l 367 2593 l 425 2888 m 314 803 l 171 803 l 298 972 l 385 972 l 314 803 z "},"Ĥ":{"ha":570,"x_min":60,"x_max":511,"o":"m 60 972 l 212 972 l 212 551 l 358 551 l 358 972 l 511 972 l 511 0 l 358 0 l 358 411 l 212 411 l 212 0 l 60 0 l 60 972 m 285 1143 l 236 1043 l 138 1043 l 228 1213 l 345 1213 l 435 1043 l 330 1043 l 285 1143 z "},"ĥ":{"ha":515,"x_min":-16,"x_max":461,"o":"m 199 599 l 199 0 l 56 0 l 56 972 l 199 1000 l 199 697 q 250 740 217 722 q 322 757 283 757 q 422 710 382 757 q 461 572 461 664 l 461 0 l 319 0 l 319 559 q 304 613 319 594 q 262 632 288 632 q 199 599 232 632 m 132 1143 l 83 1043 l -16 1043 l 75 1213 l 192 1213 l 282 1043 l 178 1043 l 132 1143 z "},"Ħ":{"ha":570,"x_min":9,"x_max":579,"o":"m 69 972 l 222 972 l 222 843 l 368 843 l 368 972 l 521 972 l 521 843 l 579 843 l 579 725 l 521 725 l 521 0 l 368 0 l 368 411 l 222 411 l 222 0 l 69 0 l 69 725 l 9 725 l 9 843 l 69 843 l 69 972 m 222 551 l 368 551 l 368 725 l 222 725 l 222 551 z "},"ħ":{"ha":513,"x_min":-24,"x_max":461,"o":"m 199 599 l 199 0 l 56 0 l 56 825 l -24 825 l -24 916 l 56 916 l 56 972 l 199 1000 l 199 916 l 351 916 l 351 825 l 199 825 l 199 697 q 250 740 217 722 q 322 757 283 757 q 422 710 382 757 q 461 572 461 664 l 461 0 l 319 0 l 319 559 q 304 613 319 594 q 262 632 288 632 q 199 599 232 632 z "},"Ĩ":{"ha":273,"x_min":-21,"x_max":297,"o":"m 60 972 l 212 972 l 212 0 l 60 0 l 60 972 m 61 1050 l -21 1071 q 72 1194 -4 1194 q 133 1178 92 1194 q 187 1161 174 1161 q 214 1207 212 1161 l 297 1194 q 203 1067 281 1067 q 144 1084 180 1067 q 93 1101 109 1101 q 61 1050 64 1101 z "},"ĩ":{"ha":254,"x_min":-32,"x_max":286,"o":"m 56 741 l 199 741 l 199 0 l 56 0 l 56 741 m 50 808 l -32 829 q 61 953 -15 953 q 122 936 81 953 q 176 920 163 920 q 203 965 201 920 l 286 953 q 192 825 270 825 q 134 843 170 825 q 82 860 98 860 q 50 808 54 860 z "},"ī":{"ha":254,"x_min":-7,"x_max":260,"o":"m 56 741 l 199 741 l 199 0 l 56 0 l 56 741 m 260 838 l -7 838 l -7 939 l 260 939 l 260 838 z "},"Ĭ":{"ha":273,"x_min":0,"x_max":273,"o":"m 60 972 l 212 972 l 212 0 l 60 0 l 60 972 m 138 1046 q 0 1213 0 1046 l 85 1213 q 95 1148 85 1169 q 138 1126 106 1126 q 178 1148 168 1126 q 189 1213 189 1171 l 273 1213 q 138 1046 273 1046 z "},"Į":{"ha":273,"x_min":20,"x_max":212,"o":"m 60 0 l 60 972 l 212 972 l 212 0 l 149 0 q 102 -77 102 -35 q 143 -111 102 -111 q 199 -94 173 -111 l 199 -168 q 129 -184 168 -184 q 47 -157 75 -184 q 20 -87 20 -130 q 60 0 20 -36 z "},"į":{"ha":254,"x_min":20,"x_max":199,"o":"m 56 0 l 56 741 l 199 741 l 199 0 l 149 0 q 102 -77 102 -35 q 143 -111 102 -111 q 199 -94 173 -111 l 199 -168 q 129 -184 168 -184 q 47 -157 75 -184 q 20 -87 20 -130 q 56 0 20 -38 m 56 972 l 199 972 l 199 825 l 56 825 l 56 972 z "},"İ":{"ha":273,"x_min":60,"x_max":212,"o":"m 60 972 l 212 972 l 212 0 l 60 0 l 60 972 m 66 1203 l 208 1203 l 208 1055 l 66 1055 l 66 1203 z "},"ı":{"ha":254,"x_min":56,"x_max":199,"o":"m 56 741 l 199 741 l 199 0 l 56 0 l 56 741 z "},"Ĵ":{"ha":315,"x_min":8,"x_max":334,"o":"m 102 972 l 256 972 l 256 187 q 106 -17 256 -17 q 8 9 56 -17 l 8 155 q 68 140 42 140 q 95 154 87 140 q 102 197 102 168 l 102 972 m 183 1143 l 135 1043 l 36 1043 l 126 1213 l 243 1213 l 334 1043 l 229 1043 l 183 1143 z "},"ĵ":{"ha":254,"x_min":-46,"x_max":277,"o":"m 199 741 l 199 -3 q 183 -101 199 -59 q 141 -165 168 -142 q 83 -199 114 -188 q 17 -210 52 -210 q -46 -201 -16 -210 l -46 -83 q -4 -90 -18 -90 q 56 -14 56 -90 l 56 741 l 199 741 m 126 903 l 78 803 l -21 803 l 69 972 l 186 972 l 277 803 l 172 803 l 126 903 z "},"Ķ":{"ha":538,"x_min":60,"x_max":529,"o":"m 529 972 l 358 558 l 528 0 l 363 0 l 252 389 l 212 290 l 212 0 l 60 0 l 60 972 l 212 972 l 212 562 l 368 972 l 529 972 m 215 -57 l 358 -57 l 231 -227 l 144 -227 l 215 -57 z "},"ķ":{"ha":469,"x_min":56,"x_max":464,"o":"m 464 741 l 336 443 l 464 0 l 311 0 l 228 300 l 199 236 l 199 0 l 56 0 l 56 972 l 199 1000 l 199 469 l 311 741 l 464 741 m 208 -57 l 351 -57 l 224 -227 l 138 -227 l 208 -57 z "},"Ĺ":{"ha":380,"x_min":58,"x_max":359,"o":"m 58 972 l 211 972 l 211 142 l 359 142 l 359 0 l 58 0 l 58 972 m 160 1213 l 302 1213 l 175 1043 l 89 1043 l 160 1213 z "},"ĺ":{"ha":254,"x_min":56,"x_max":298,"o":"m 199 0 l 56 0 l 56 972 l 199 1000 l 199 0 m 155 1211 l 298 1211 l 171 1042 l 85 1042 l 155 1211 z "},"Ļ":{"ha":380,"x_min":58,"x_max":359,"o":"m 58 972 l 211 972 l 211 142 l 359 142 l 359 0 l 58 0 l 58 972 m 163 -57 l 306 -57 l 178 -227 l 92 -227 l 163 -57 z "},"ļ":{"ha":254,"x_min":-17,"x_max":199,"o":"m 199 0 l 56 0 l 56 972 l 199 1000 l 199 0 m 54 -57 l 197 -57 l 69 -227 l -17 -227 l 54 -57 z "},"Ľ":{"ha":380,"x_min":-17,"x_max":372,"o":"m 49 972 l 243 972 l 243 180 l 372 180 l 372 0 l 49 0 l 49 972 m 109 1213 l 147 1122 l 187 1213 l 306 1213 l 215 1043 l 74 1043 l -17 1213 l 109 1213 z "},"ľ":{"ha":376,"x_min":56,"x_max":390,"o":"m 271 972 l 390 972 l 330 757 l 236 757 l 271 972 m 199 0 l 56 0 l 56 972 l 199 1000 l 199 0 z "},"Ł":{"ha":380,"x_min":0,"x_max":359,"o":"m 310 639 l 310 530 l 211 481 l 211 142 l 359 142 l 359 0 l 58 0 l 58 404 l 0 376 l 0 485 l 58 513 l 58 972 l 211 972 l 211 589 l 310 639 z "},"ł":{"ha":254,"x_min":5,"x_max":252,"o":"m 199 0 l 56 0 l 56 418 l 5 395 l 5 503 l 56 526 l 56 972 l 199 1000 l 199 597 l 252 625 l 252 517 l 199 489 l 199 0 z "},"Ń":{"ha":582,"x_min":60,"x_max":519,"o":"m 357 0 l 207 600 l 207 0 l 60 0 l 60 972 l 224 972 l 374 363 l 374 972 l 519 972 l 519 0 l 357 0 m 301 1213 l 444 1213 l 317 1043 l 231 1043 l 301 1213 z "},"ń":{"ha":519,"x_min":56,"x_max":467,"o":"m 56 741 l 193 741 l 193 686 q 249 736 210 715 q 328 757 288 757 q 427 710 388 757 q 467 572 467 664 l 467 0 l 323 0 l 323 559 q 308 613 323 595 q 268 632 292 632 q 199 599 229 632 l 199 0 l 56 0 l 56 741 m 278 972 l 421 972 l 293 803 l 207 803 l 278 972 z "},"Ņ":{"ha":582,"x_min":60,"x_max":519,"o":"m 357 0 l 207 600 l 207 0 l 60 0 l 60 972 l 224 972 l 374 363 l 374 972 l 519 972 l 519 0 l 357 0 m 224 -57 l 367 -57 l 239 -227 l 153 -227 l 224 -57 z "},"ņ":{"ha":519,"x_min":56,"x_max":467,"o":"m 56 741 l 193 741 l 193 686 q 249 736 210 715 q 328 757 288 757 q 427 710 388 757 q 467 572 467 664 l 467 0 l 323 0 l 323 559 q 308 613 323 595 q 268 632 292 632 q 199 599 229 632 l 199 0 l 56 0 l 56 741 m 201 -57 l 345 -57 l 216 -227 l 131 -227 l 201 -57 z "},"Ň":{"ha":582,"x_min":60,"x_max":519,"o":"m 357 0 l 207 600 l 207 0 l 60 0 l 60 972 l 224 972 l 374 363 l 374 972 l 519 972 l 519 0 l 357 0 m 248 1213 l 293 1112 l 342 1213 l 440 1213 l 350 1043 l 233 1043 l 143 1213 l 248 1213 z "},"ň":{"ha":519,"x_min":56,"x_max":467,"o":"m 56 741 l 193 741 l 193 686 q 249 736 210 715 q 328 757 288 757 q 427 710 388 757 q 467 572 467 664 l 467 0 l 323 0 l 323 559 q 308 613 323 595 q 268 632 292 632 q 199 599 229 632 l 199 0 l 56 0 l 56 741 m 215 972 l 261 872 l 310 972 l 408 972 l 318 803 l 201 803 l 111 972 l 215 972 z "},"Ŋ":{"ha":582,"x_min":60,"x_max":519,"o":"m 372 368 l 374 972 l 519 972 l 519 -49 q 375 -248 519 -248 q 282 -221 327 -248 l 282 -79 q 338 -93 311 -93 q 365 -78 359 -93 q 370 -16 370 -62 l 370 0 l 357 0 l 207 600 l 207 0 l 60 0 l 60 972 l 224 972 l 372 368 z "},"ŋ":{"ha":519,"x_min":56,"x_max":467,"o":"m 56 741 l 193 741 l 193 686 q 249 736 210 715 q 328 757 288 757 q 427 710 388 757 q 467 572 467 664 l 467 -3 q 451 -101 467 -59 q 409 -165 435 -142 q 351 -199 382 -188 q 285 -210 320 -210 q 222 -201 252 -210 l 222 -83 q 264 -90 251 -90 q 323 -14 323 -90 l 323 559 q 308 613 323 595 q 268 632 292 632 q 199 599 229 632 l 199 0 l 56 0 l 56 741 z "},"Ō":{"ha":532,"x_min":41,"x_max":490,"o":"m 338 229 l 338 743 q 320 821 338 798 q 265 844 302 844 q 212 821 229 844 q 195 743 195 798 l 195 229 q 212 151 195 174 q 265 127 229 127 q 320 151 302 127 q 338 229 338 174 m 41 229 l 41 743 q 101 931 41 873 q 265 989 161 989 q 353 976 314 989 q 424 935 393 963 q 473 859 456 907 q 490 743 490 810 l 490 229 q 473 114 490 163 q 424 37 456 65 q 353 -4 393 9 q 265 -17 314 -17 q 102 41 162 -17 q 41 229 41 100 m 400 1068 l 134 1068 l 134 1169 l 400 1169 l 400 1068 z "},"ō":{"ha":496,"x_min":45,"x_max":452,"o":"m 309 186 l 309 554 q 248 640 309 640 q 186 554 186 640 l 186 186 q 248 100 186 100 q 309 186 309 100 m 248 -17 q 171 -5 206 -17 q 107 30 136 6 q 61 96 78 54 q 45 195 45 138 l 45 546 q 61 645 45 603 q 107 711 78 687 q 171 746 136 734 q 248 757 206 757 q 325 746 290 757 q 389 711 360 734 q 435 645 418 687 q 452 546 452 603 l 452 195 q 435 96 452 138 q 389 30 418 54 q 325 -5 360 6 q 248 -17 290 -17 m 382 838 l 115 838 l 115 939 l 382 939 l 382 838 z "},"Ŏ":{"ha":532,"x_min":41,"x_max":490,"o":"m 338 229 l 338 743 q 320 821 338 798 q 265 844 302 844 q 212 821 229 844 q 195 743 195 798 l 195 229 q 212 151 195 174 q 265 127 229 127 q 320 151 302 127 q 338 229 338 174 m 41 229 l 41 743 q 101 931 41 873 q 265 989 161 989 q 353 976 314 989 q 424 935 393 963 q 473 859 456 907 q 490 743 490 810 l 490 229 q 473 114 490 163 q 424 37 456 65 q 353 -4 393 9 q 265 -17 314 -17 q 102 41 162 -17 q 41 229 41 100 m 267 1046 q 129 1213 129 1046 l 214 1213 q 224 1148 214 1169 q 267 1126 235 1126 q 307 1148 296 1126 q 318 1213 318 1171 l 403 1213 q 267 1046 403 1046 z "},"ŏ":{"ha":496,"x_min":45,"x_max":452,"o":"m 309 186 l 309 554 q 248 640 309 640 q 186 554 186 640 l 186 186 q 248 100 186 100 q 309 186 309 100 m 248 -17 q 171 -5 206 -17 q 107 30 136 6 q 61 96 78 54 q 45 195 45 138 l 45 546 q 61 645 45 603 q 107 711 78 687 q 171 746 136 734 q 248 757 206 757 q 325 746 290 757 q 389 711 360 734 q 435 645 418 687 q 452 546 452 603 l 452 195 q 435 96 452 138 q 389 30 418 54 q 325 -5 360 6 q 248 -17 290 -17 m 249 806 q 111 972 111 806 l 196 972 q 207 908 196 929 q 249 886 217 886 q 289 908 279 886 q 300 972 300 930 l 385 972 q 249 806 385 806 z "},"Ő":{"ha":532,"x_min":41,"x_max":490,"o":"m 338 229 l 338 743 q 320 821 338 798 q 265 844 302 844 q 212 821 229 844 q 195 743 195 798 l 195 229 q 212 151 195 174 q 265 127 229 127 q 320 151 302 127 q 338 229 338 174 m 41 229 l 41 743 q 101 931 41 873 q 265 989 161 989 q 353 976 314 989 q 424 935 393 963 q 473 859 456 907 q 490 743 490 810 l 490 229 q 473 114 490 163 q 424 37 456 65 q 353 -4 393 9 q 265 -17 314 -17 q 102 41 162 -17 q 41 229 41 100 m 339 1213 l 456 1213 l 383 1043 l 288 1043 l 339 1213 m 180 1213 l 294 1213 l 243 1043 l 155 1043 l 180 1213 z "},"ő":{"ha":496,"x_min":45,"x_max":452,"o":"m 309 186 l 309 554 q 248 640 309 640 q 186 554 186 640 l 186 186 q 248 100 186 100 q 309 186 309 100 m 248 -17 q 171 -5 206 -17 q 107 30 136 6 q 61 96 78 54 q 45 195 45 138 l 45 546 q 61 645 45 603 q 107 711 78 687 q 171 746 136 734 q 248 757 206 757 q 325 746 290 757 q 389 711 360 734 q 435 645 418 687 q 452 546 452 603 l 452 195 q 435 96 452 138 q 389 30 418 54 q 325 -5 360 6 q 248 -17 290 -17 m 323 972 l 440 972 l 368 803 l 272 803 l 323 972 m 165 972 l 279 972 l 228 803 l 140 803 l 165 972 z "},"Œ":{"ha":701,"x_min":41,"x_max":665,"o":"m 376 972 l 659 972 l 659 831 l 490 831 l 490 559 l 636 559 l 636 419 l 490 419 l 490 142 l 665 142 l 665 0 l 376 0 l 376 12 q 264 -17 333 -17 q 176 -4 215 -17 q 106 37 137 9 q 58 114 75 65 q 41 229 41 163 l 41 743 q 101 931 41 873 q 264 989 161 989 q 376 961 328 989 l 376 972 m 336 229 l 336 742 q 319 820 336 796 q 265 843 302 843 q 212 820 229 843 q 195 742 195 798 l 195 229 q 212 151 195 174 q 265 127 229 127 q 319 151 302 127 q 336 229 336 175 z "},"œ":{"ha":753,"x_min":45,"x_max":717,"o":"m 717 376 l 452 376 l 452 186 q 513 100 452 100 q 574 186 574 100 l 574 258 l 717 277 l 717 195 q 700 96 717 138 q 654 30 684 54 q 590 -5 625 6 q 513 -17 555 -17 q 380 39 429 -17 q 321 -2 357 12 q 249 -17 286 -17 q 172 -5 207 -17 q 107 30 136 6 q 61 96 78 54 q 45 195 45 138 l 45 546 q 61 645 45 603 q 107 711 78 687 q 172 746 136 734 q 249 757 207 757 q 323 741 288 757 q 380 697 358 724 q 438 741 403 724 q 513 757 473 757 q 590 746 555 757 q 654 711 625 734 q 700 645 684 687 q 717 546 717 603 l 717 376 m 310 186 l 310 554 q 249 640 310 640 q 187 554 187 640 l 187 186 q 249 100 187 100 q 310 186 310 100 m 452 554 l 452 468 l 574 468 l 574 554 q 513 640 574 640 q 452 554 452 640 z "},"Ŕ":{"ha":529,"x_min":60,"x_max":481,"o":"m 212 835 l 212 534 l 260 534 q 329 614 329 534 l 329 762 q 312 818 329 800 q 261 835 295 835 l 212 835 m 481 0 l 328 0 l 328 294 q 309 370 328 344 q 256 396 290 396 l 212 396 l 212 0 l 60 0 l 60 972 l 269 972 q 353 963 317 972 q 419 932 389 954 q 465 869 450 910 q 481 768 481 828 l 481 623 q 456 527 481 570 q 382 468 431 485 l 382 465 q 422 446 406 456 q 452 417 437 435 q 474 367 467 398 q 481 292 481 336 l 481 0 m 283 1213 l 427 1213 l 298 1043 l 212 1043 l 283 1213 z "},"ŕ":{"ha":336,"x_min":56,"x_max":349,"o":"m 321 755 l 321 576 q 199 519 245 571 l 199 0 l 56 0 l 56 741 l 193 741 l 193 669 q 252 730 218 705 q 321 755 287 755 m 205 972 l 349 972 l 221 803 l 135 803 l 205 972 z "},"Ŗ":{"ha":529,"x_min":60,"x_max":481,"o":"m 212 835 l 212 534 l 260 534 q 329 614 329 534 l 329 762 q 312 818 329 800 q 261 835 295 835 l 212 835 m 481 0 l 328 0 l 328 294 q 309 370 328 344 q 256 396 290 396 l 212 396 l 212 0 l 60 0 l 60 972 l 269 972 q 353 963 317 972 q 419 932 389 954 q 465 869 450 910 q 481 768 481 828 l 481 623 q 456 527 481 570 q 382 468 431 485 l 382 465 q 422 446 406 456 q 452 417 437 435 q 474 367 467 398 q 481 292 481 336 l 481 0 m 215 -57 l 358 -57 l 231 -227 l 144 -227 l 215 -57 z "},"ŗ":{"ha":336,"x_min":-17,"x_max":321,"o":"m 321 755 l 321 576 q 199 519 245 571 l 199 0 l 56 0 l 56 741 l 193 741 l 193 669 q 252 730 218 705 q 321 755 287 755 m 54 -57 l 197 -57 l 69 -227 l -17 -227 l 54 -57 z "},"Ř":{"ha":529,"x_min":60,"x_max":481,"o":"m 212 835 l 212 534 l 260 534 q 329 614 329 534 l 329 762 q 312 818 329 800 q 261 835 295 835 l 212 835 m 481 0 l 328 0 l 328 294 q 309 370 328 344 q 256 396 290 396 l 212 396 l 212 0 l 60 0 l 60 972 l 269 972 q 353 963 317 972 q 419 932 389 954 q 465 869 450 910 q 481 768 481 828 l 481 623 q 456 527 481 570 q 382 468 431 485 l 382 465 q 422 446 406 456 q 452 417 437 435 q 474 367 467 398 q 481 292 481 336 l 481 0 m 221 1213 l 267 1112 l 315 1213 l 414 1213 l 323 1043 l 207 1043 l 117 1213 l 221 1213 z "},"ř":{"ha":336,"x_min":37,"x_max":335,"o":"m 321 755 l 321 576 q 199 519 245 571 l 199 0 l 56 0 l 56 741 l 193 741 l 193 669 q 252 730 218 705 q 321 755 287 755 m 142 972 l 187 872 l 236 972 l 335 972 l 244 803 l 127 803 l 37 972 l 142 972 z "},"Ś":{"ha":511,"x_min":45,"x_max":467,"o":"m 49 664 l 49 781 q 110 933 49 877 q 258 989 172 989 q 403 931 344 989 q 463 781 463 873 l 463 696 l 314 664 l 314 768 q 301 825 314 806 q 257 843 288 843 q 201 768 201 843 l 201 692 q 210 653 201 671 q 227 626 218 635 q 253 602 235 618 l 386 484 q 467 321 467 414 l 467 192 q 404 40 467 96 q 253 -17 340 -17 q 105 40 165 -17 q 45 193 45 98 l 45 277 l 192 309 l 192 204 q 207 147 192 165 q 254 129 221 129 q 314 204 314 129 l 314 286 q 306 325 314 307 q 289 351 297 342 q 265 374 281 359 l 139 488 q 73 568 96 527 q 49 664 49 609 m 289 1213 l 432 1213 l 304 1043 l 218 1043 l 289 1213 z "},"ś":{"ha":454,"x_min":40,"x_max":416,"o":"m 222 467 l 345 367 q 416 240 416 309 l 416 150 q 361 29 416 75 q 228 -17 305 -17 q 94 28 146 -17 q 41 151 41 73 l 41 215 l 178 240 l 178 161 q 229 100 178 100 q 278 160 278 100 l 278 215 q 267 246 278 232 q 233 278 256 260 l 119 367 q 40 503 40 426 l 40 590 q 95 711 40 665 q 228 757 151 757 q 361 712 310 757 q 412 589 412 667 l 412 530 l 277 505 l 277 579 q 227 640 277 640 q 179 581 179 640 l 179 526 q 189 498 179 510 q 222 467 198 486 m 254 972 l 397 972 l 269 803 l 183 803 l 254 972 z "},"Ŝ":{"ha":511,"x_min":45,"x_max":467,"o":"m 49 664 l 49 781 q 110 933 49 877 q 258 989 172 989 q 403 931 344 989 q 463 781 463 873 l 463 696 l 314 664 l 314 768 q 301 825 314 806 q 257 843 288 843 q 201 768 201 843 l 201 692 q 210 653 201 671 q 227 626 218 635 q 253 602 235 618 l 386 484 q 467 321 467 414 l 467 192 q 404 40 467 96 q 253 -17 340 -17 q 105 40 165 -17 q 45 193 45 98 l 45 277 l 192 309 l 192 204 q 207 147 192 165 q 254 129 221 129 q 314 204 314 129 l 314 286 q 306 325 314 307 q 289 351 297 342 q 265 374 281 359 l 139 488 q 73 568 96 527 q 49 664 49 609 m 258 1143 l 210 1043 l 111 1043 l 201 1213 l 318 1213 l 408 1043 l 304 1043 l 258 1143 z "},"ŝ":{"ha":454,"x_min":40,"x_max":416,"o":"m 222 467 l 345 367 q 416 240 416 309 l 416 150 q 361 29 416 75 q 228 -17 305 -17 q 94 28 146 -17 q 41 151 41 73 l 41 215 l 178 240 l 178 161 q 229 100 178 100 q 278 160 278 100 l 278 215 q 267 246 278 232 q 233 278 256 260 l 119 367 q 40 503 40 426 l 40 590 q 95 711 40 665 q 228 757 151 757 q 361 712 310 757 q 412 589 412 667 l 412 530 l 277 505 l 277 579 q 227 640 277 640 q 179 581 179 640 l 179 526 q 189 498 179 510 q 222 467 198 486 m 227 903 l 178 803 l 79 803 l 170 972 l 286 972 l 376 803 l 272 803 l 227 903 z "},"Ş":{"ha":511,"x_min":45,"x_max":467,"o":"m 49 664 l 49 781 q 110 933 49 877 q 258 989 172 989 q 403 931 344 989 q 463 781 463 873 l 463 696 l 314 664 l 314 768 q 301 825 314 806 q 257 843 288 843 q 201 768 201 843 l 201 692 q 210 653 201 671 q 227 626 218 635 q 253 602 235 618 l 386 484 q 467 321 467 414 l 467 192 q 427 66 467 117 q 323 -5 387 14 q 339 -72 339 -40 q 313 -146 339 -115 q 239 -179 287 -176 q 154 -157 190 -179 l 154 -82 q 211 -100 186 -100 q 253 -54 253 -100 q 249 -17 253 -35 q 103 42 162 -16 q 45 193 45 99 l 45 277 l 192 309 l 192 204 q 207 147 192 165 q 254 129 221 129 q 314 204 314 129 l 314 286 q 306 325 314 307 q 289 351 297 342 q 265 374 281 359 l 139 488 q 73 568 96 527 q 49 664 49 609 z "},"ş":{"ha":454,"x_min":40,"x_max":416,"o":"m 222 467 l 345 367 q 416 240 416 309 l 416 150 q 379 47 416 89 q 282 -9 341 5 q 296 -72 296 -42 q 270 -146 296 -115 q 196 -179 244 -176 q 111 -157 147 -179 l 111 -82 q 168 -100 144 -100 q 210 -54 210 -100 q 205 -16 210 -34 q 87 35 132 -9 q 41 151 41 79 l 41 215 l 178 240 l 178 161 q 229 100 178 100 q 278 160 278 100 l 278 215 q 267 246 278 232 q 233 278 256 260 l 119 367 q 40 503 40 426 l 40 590 q 95 711 40 665 q 228 757 151 757 q 361 712 310 757 q 412 589 412 667 l 412 530 l 277 505 l 277 579 q 227 640 277 640 q 179 581 179 640 l 179 526 q 189 498 179 510 q 222 467 198 486 z "},"Š":{"ha":511,"x_min":45,"x_max":467,"o":"m 49 664 l 49 781 q 110 933 49 877 q 258 989 172 989 q 403 931 344 989 q 463 781 463 873 l 463 696 l 314 664 l 314 768 q 301 825 314 806 q 257 843 288 843 q 201 768 201 843 l 201 692 q 210 653 201 671 q 227 626 218 635 q 253 602 235 618 l 386 484 q 467 321 467 414 l 467 192 q 404 40 467 96 q 253 -17 340 -17 q 105 40 165 -17 q 45 193 45 98 l 45 277 l 192 309 l 192 204 q 207 147 192 165 q 254 129 221 129 q 314 204 314 129 l 314 286 q 306 325 314 307 q 289 351 297 342 q 265 374 281 359 l 139 488 q 73 568 96 527 q 49 664 49 609 m 211 1213 l 257 1112 l 306 1213 l 404 1213 l 314 1043 l 197 1043 l 107 1213 l 211 1213 z "},"š":{"ha":454,"x_min":40,"x_max":416,"o":"m 222 467 l 345 367 q 416 240 416 309 l 416 150 q 361 29 416 75 q 228 -17 305 -17 q 94 28 146 -17 q 41 151 41 73 l 41 215 l 178 240 l 178 161 q 229 100 178 100 q 278 160 278 100 l 278 215 q 267 246 278 232 q 233 278 256 260 l 119 367 q 40 503 40 426 l 40 590 q 95 711 40 665 q 228 757 151 757 q 361 712 310 757 q 412 589 412 667 l 412 530 l 277 505 l 277 579 q 227 640 277 640 q 179 581 179 640 l 179 526 q 189 498 179 510 q 222 467 198 486 m 182 972 l 228 872 l 277 972 l 375 972 l 285 803 l 168 803 l 78 972 l 182 972 z "},"Ţ":{"ha":444,"x_min":14,"x_max":431,"o":"m 14 972 l 431 972 l 431 831 l 298 831 l 298 0 l 146 0 l 146 831 l 14 831 l 14 972 m 154 -57 l 297 -57 l 170 -227 l 83 -227 l 154 -57 z "},"ţ":{"ha":315,"x_min":9,"x_max":300,"o":"m 204 621 l 204 170 q 254 113 204 113 q 300 121 277 113 l 300 -4 q 224 -17 260 -17 q 162 -7 190 -17 q 111 24 135 2 q 74 86 87 45 q 61 183 61 127 l 61 621 l 9 621 l 9 741 l 65 741 l 65 886 l 204 921 l 204 741 l 298 741 l 298 621 l 204 621 m 119 -57 l 262 -57 l 135 -227 l 49 -227 l 119 -57 z "},"Ť":{"ha":444,"x_min":14,"x_max":431,"o":"m 14 972 l 431 972 l 431 831 l 298 831 l 298 0 l 146 0 l 146 831 l 14 831 l 14 972 m 178 1213 l 224 1112 l 272 1213 l 371 1213 l 281 1043 l 164 1043 l 74 1213 l 178 1213 z "},"ť":{"ha":386,"x_min":9,"x_max":400,"o":"m 279 972 l 400 972 l 345 791 l 249 791 l 279 972 m 204 621 l 204 170 q 254 113 204 113 q 300 121 277 113 l 300 -4 q 224 -17 260 -17 q 162 -7 190 -17 q 111 24 135 2 q 74 86 87 45 q 61 183 61 127 l 61 621 l 9 621 l 9 741 l 65 741 l 65 886 l 204 921 l 204 741 l 298 741 l 298 621 l 204 621 z "},"Ŧ":{"ha":444,"x_min":14,"x_max":431,"o":"m 14 972 l 431 972 l 431 831 l 298 831 l 298 525 l 407 525 l 407 393 l 298 393 l 298 0 l 146 0 l 146 393 l 37 393 l 37 525 l 146 525 l 146 831 l 14 831 l 14 972 z "},"ŧ":{"ha":342,"x_min":24,"x_max":314,"o":"m 218 621 l 218 465 l 307 465 l 307 355 l 218 355 l 218 170 q 268 113 218 113 q 314 121 290 113 l 314 -4 q 237 -17 274 -17 q 176 -7 203 -17 q 125 24 149 2 q 88 86 101 45 q 75 183 75 127 l 75 355 l 24 355 l 24 465 l 75 465 l 75 621 l 24 621 l 24 741 l 79 741 l 79 886 l 218 921 l 218 741 l 313 741 l 313 621 l 218 621 z "},"Ũ":{"ha":554,"x_min":58,"x_max":497,"o":"m 497 972 l 497 229 q 480 114 497 163 q 432 37 463 65 q 362 -4 401 9 q 275 -17 323 -17 q 58 229 58 -17 l 58 972 l 211 972 l 211 231 q 227 151 211 175 q 275 127 242 127 q 324 151 309 127 q 339 231 339 174 l 339 972 l 497 972 m 200 1048 l 118 1069 q 211 1193 134 1193 q 272 1176 231 1193 q 326 1160 313 1160 q 353 1206 351 1160 l 436 1193 q 342 1065 420 1065 q 283 1083 319 1065 q 232 1100 248 1100 q 200 1048 203 1100 z "},"ũ":{"ha":511,"x_min":53,"x_max":458,"o":"m 315 741 l 458 741 l 458 195 q 442 96 458 138 q 396 30 425 54 q 332 -5 368 6 q 256 -17 297 -17 q 179 -5 214 -17 q 115 30 144 6 q 70 96 86 54 q 53 195 53 138 l 53 741 l 196 741 l 196 186 q 256 100 196 100 q 315 186 315 100 l 315 741 m 179 808 l 97 829 q 191 953 113 953 q 252 936 211 953 q 306 920 292 920 q 332 965 330 920 l 415 953 q 321 825 399 825 q 262 843 298 825 q 211 860 227 860 q 179 808 182 860 z "},"Ū":{"ha":554,"x_min":58,"x_max":497,"o":"m 497 972 l 497 229 q 480 114 497 163 q 432 37 463 65 q 362 -4 401 9 q 275 -17 323 -17 q 58 229 58 -17 l 58 972 l 211 972 l 211 231 q 227 151 211 175 q 275 127 242 127 q 324 151 309 127 q 339 231 339 174 l 339 972 l 497 972 m 411 1079 l 144 1079 l 144 1181 l 411 1181 l 411 1079 z "},"ū":{"ha":511,"x_min":53,"x_max":458,"o":"m 315 741 l 458 741 l 458 195 q 442 96 458 138 q 396 30 425 54 q 332 -5 368 6 q 256 -17 297 -17 q 179 -5 214 -17 q 115 30 144 6 q 70 96 86 54 q 53 195 53 138 l 53 741 l 196 741 l 196 186 q 256 100 196 100 q 315 186 315 100 l 315 741 m 389 838 l 122 838 l 122 939 l 389 939 l 389 838 z "},"Ŭ":{"ha":554,"x_min":58,"x_max":497,"o":"m 497 972 l 497 229 q 480 114 497 163 q 432 37 463 65 q 362 -4 401 9 q 275 -17 323 -17 q 58 229 58 -17 l 58 972 l 211 972 l 211 231 q 227 151 211 175 q 275 127 242 127 q 324 151 309 127 q 339 231 339 174 l 339 972 l 497 972 m 278 1046 q 140 1213 140 1046 l 225 1213 q 236 1148 225 1169 q 278 1126 246 1126 q 318 1148 308 1126 q 329 1213 329 1170 l 414 1213 q 278 1046 414 1046 z "},"ŭ":{"ha":511,"x_min":53,"x_max":458,"o":"m 315 741 l 458 741 l 458 195 q 442 96 458 138 q 396 30 425 54 q 332 -5 368 6 q 256 -17 297 -17 q 179 -5 214 -17 q 115 30 144 6 q 70 96 86 54 q 53 195 53 138 l 53 741 l 196 741 l 196 186 q 256 100 196 100 q 315 186 315 100 l 315 741 m 256 806 q 118 972 118 806 l 203 972 q 213 908 203 929 q 256 886 224 886 q 296 908 286 886 q 307 972 307 930 l 392 972 q 256 806 392 806 z "},"Ů":{"ha":554,"x_min":58,"x_max":497,"o":"m 497 972 l 497 229 q 480 114 497 163 q 432 37 463 65 q 362 -4 401 9 q 275 -17 323 -17 q 58 229 58 -17 l 58 972 l 211 972 l 211 231 q 227 151 211 175 q 275 127 242 127 q 324 151 309 127 q 339 231 339 174 l 339 972 l 497 972 m 178 1128 q 206 1199 178 1171 q 278 1227 235 1227 q 351 1199 323 1227 q 379 1128 379 1171 q 351 1058 379 1086 q 278 1029 322 1029 q 206 1058 235 1029 q 178 1128 178 1086 m 224 1128 q 240 1088 224 1105 q 278 1071 256 1071 q 318 1088 302 1071 q 334 1128 334 1105 q 318 1169 334 1152 q 278 1186 302 1186 q 239 1169 255 1186 q 224 1128 224 1152 z "},"ů":{"ha":511,"x_min":53,"x_max":458,"o":"m 315 741 l 458 741 l 458 195 q 442 96 458 138 q 396 30 425 54 q 332 -5 368 6 q 256 -17 297 -17 q 179 -5 214 -17 q 115 30 144 6 q 70 96 86 54 q 53 195 53 138 l 53 741 l 196 741 l 196 186 q 256 100 196 100 q 315 186 315 100 l 315 741 m 155 892 q 184 963 155 935 q 256 991 212 991 q 328 963 300 991 q 357 892 357 935 q 328 821 357 850 q 256 793 300 793 q 184 821 212 793 q 155 892 155 850 m 201 892 q 217 852 201 869 q 256 835 233 835 q 295 852 279 835 q 311 892 311 869 q 295 933 311 916 q 256 950 279 950 q 217 933 233 950 q 201 892 201 916 z "},"Ű":{"ha":554,"x_min":58,"x_max":497,"o":"m 497 972 l 497 229 q 480 114 497 163 q 432 37 463 65 q 362 -4 401 9 q 275 -17 323 -17 q 58 229 58 -17 l 58 972 l 211 972 l 211 231 q 227 151 211 175 q 275 127 242 127 q 324 151 309 127 q 339 231 339 174 l 339 972 l 497 972 m 345 1213 l 461 1213 l 389 1043 l 293 1043 l 345 1213 m 186 1213 l 300 1213 l 249 1043 l 161 1043 l 186 1213 z "},"ű":{"ha":511,"x_min":53,"x_max":458,"o":"m 315 741 l 458 741 l 458 195 q 442 96 458 138 q 396 30 425 54 q 332 -5 368 6 q 256 -17 297 -17 q 179 -5 214 -17 q 115 30 144 6 q 70 96 86 54 q 53 195 53 138 l 53 741 l 196 741 l 196 186 q 256 100 196 100 q 315 186 315 100 l 315 741 m 328 972 l 444 972 l 372 803 l 277 803 l 328 972 m 170 972 l 283 972 l 232 803 l 144 803 l 170 972 z "},"Ų":{"ha":554,"x_min":58,"x_max":497,"o":"m 497 972 l 497 229 q 450 56 497 115 q 321 -14 402 -3 q 290 -77 290 -42 q 332 -111 290 -111 q 387 -94 362 -111 l 387 -168 q 318 -184 355 -184 q 236 -157 263 -184 q 208 -87 208 -130 q 235 -14 208 -46 q 104 54 150 -4 q 58 229 58 111 l 58 972 l 211 972 l 211 231 q 227 151 211 175 q 275 127 242 127 q 324 151 309 127 q 339 231 339 174 l 339 972 l 497 972 z "},"ų":{"ha":511,"x_min":53,"x_max":458,"o":"m 315 741 l 458 741 l 458 195 q 417 52 458 101 q 306 -11 375 2 q 273 -77 273 -41 q 315 -111 273 -111 q 371 -94 345 -111 l 371 -168 q 301 -184 339 -184 q 219 -157 247 -184 q 192 -87 192 -130 q 218 -14 192 -44 q 98 47 144 -3 q 53 195 53 97 l 53 741 l 196 741 l 196 186 q 256 100 196 100 q 315 186 315 100 l 315 741 z "},"Ŵ":{"ha":806,"x_min":14,"x_max":793,"o":"m 323 972 l 486 972 l 567 310 l 633 972 l 793 972 l 668 0 l 488 0 l 406 733 l 321 0 l 139 0 l 14 972 l 171 972 l 243 307 l 323 972 m 401 1143 l 353 1043 l 254 1043 l 345 1213 l 461 1213 l 551 1043 l 447 1043 l 401 1143 z "},"ŵ":{"ha":715,"x_min":17,"x_max":699,"o":"m 289 741 l 427 741 l 493 285 l 496 285 l 554 741 l 699 741 l 570 0 l 425 0 l 359 481 l 357 481 l 292 0 l 146 0 l 17 741 l 163 741 l 225 285 l 228 285 l 289 741 m 355 903 l 307 803 l 208 803 l 298 972 l 415 972 l 505 803 l 401 803 l 355 903 z "},"Ŷ":{"ha":529,"x_min":14,"x_max":515,"o":"m 275 529 l 370 972 l 515 972 l 340 355 l 340 0 l 189 0 l 189 355 l 14 972 l 176 972 l 275 529 m 268 1143 l 220 1043 l 121 1043 l 211 1213 l 328 1213 l 418 1043 l 314 1043 l 268 1143 z "},"ŷ":{"ha":481,"x_min":-12,"x_max":473,"o":"m -12 -78 q 61 -90 32 -90 q 135 -62 109 -90 q 176 40 160 -35 l 18 741 l 165 741 l 256 268 l 335 741 l 473 741 l 322 36 q 234 -145 296 -82 q 81 -208 172 -208 q -12 -192 39 -208 l -12 -78 m 240 903 l 192 803 l 93 803 l 183 972 l 300 972 l 390 803 l 286 803 l 240 903 z "},"Ÿ":{"ha":529,"x_min":14,"x_max":515,"o":"m 275 529 l 370 972 l 515 972 l 340 355 l 340 0 l 189 0 l 189 355 l 14 972 l 176 972 l 275 529 m 132 1203 l 243 1203 l 243 1055 l 132 1055 l 132 1203 m 286 1203 l 397 1203 l 397 1055 l 286 1055 l 286 1203 z "},"Ź":{"ha":521,"x_min":32,"x_max":488,"o":"m 45 972 l 488 972 l 488 859 l 211 153 l 488 153 l 488 0 l 32 0 l 32 113 l 310 819 l 45 819 l 45 972 m 292 1213 l 435 1213 l 307 1043 l 221 1043 l 292 1213 z "},"ź":{"ha":450,"x_min":31,"x_max":421,"o":"m 39 741 l 416 741 l 416 629 l 192 136 l 421 136 l 421 0 l 31 0 l 31 111 l 254 604 l 39 604 l 39 741 m 241 972 l 385 972 l 257 803 l 171 803 l 241 972 z "},"Ż":{"ha":521,"x_min":32,"x_max":488,"o":"m 45 972 l 488 972 l 488 859 l 211 153 l 488 153 l 488 0 l 32 0 l 32 113 l 310 819 l 45 819 l 45 972 m 193 1204 l 335 1204 l 335 1057 l 193 1057 l 193 1204 z "},"ż":{"ha":450,"x_min":31,"x_max":421,"o":"m 39 741 l 416 741 l 416 629 l 192 136 l 421 136 l 421 0 l 31 0 l 31 111 l 254 604 l 39 604 l 39 741 m 154 972 l 296 972 l 296 825 l 154 825 l 154 972 z "},"Ž":{"ha":521,"x_min":32,"x_max":488,"o":"m 45 972 l 488 972 l 488 859 l 211 153 l 488 153 l 488 0 l 32 0 l 32 113 l 310 819 l 45 819 l 45 972 m 221 1213 l 267 1112 l 315 1213 l 414 1213 l 323 1043 l 207 1043 l 117 1213 l 221 1213 z "},"ž":{"ha":450,"x_min":31,"x_max":421,"o":"m 39 741 l 416 741 l 416 629 l 192 136 l 421 136 l 421 0 l 31 0 l 31 111 l 254 604 l 39 604 l 39 741 m 184 972 l 231 872 l 279 972 l 378 972 l 288 803 l 171 803 l 81 972 l 184 972 z "},"ſ":{"ha":286,"x_min":-35,"x_max":335,"o":"m 214 815 l 214 0 q 198 -99 214 -57 q 154 -164 182 -141 q 95 -199 127 -188 q 26 -210 63 -210 q -35 -201 -5 -210 l -35 -83 q 8 -90 -6 -90 q 72 -14 72 -90 l 72 623 l 12 623 l 12 741 l 72 741 l 72 810 q 90 909 72 867 q 137 974 107 951 q 201 1007 167 996 q 273 1018 235 1018 q 335 1011 302 1018 l 335 885 q 288 892 312 892 q 233 872 252 892 q 214 815 214 852 z "},"ƒ":{"ha":491,"x_min":18,"x_max":468,"o":"m 227 0 l 86 0 l 86 460 l 18 460 l 18 587 l 86 587 l 86 807 q 142 941 86 892 q 281 989 199 989 q 415 941 362 989 q 468 806 468 892 l 468 749 l 332 722 l 332 796 q 319 855 332 838 q 279 872 307 872 q 239 855 251 872 q 227 798 227 838 l 227 587 l 396 587 l 396 460 l 227 460 l 227 0 z "},"Ǻ":{"ha":540,"x_min":9,"x_max":530,"o":"m 168 1129 q 183 1184 168 1160 q 225 1219 199 1208 l 282 1350 l 404 1350 l 310 1221 q 353 1184 337 1209 q 370 1129 370 1160 q 341 1059 370 1087 q 268 1031 312 1031 q 196 1059 224 1031 q 168 1129 168 1087 m 214 1129 q 230 1089 214 1106 q 268 1072 245 1072 q 308 1089 292 1072 q 323 1129 323 1106 q 308 1171 323 1154 q 268 1187 292 1187 q 229 1170 245 1187 q 214 1129 214 1153 m 375 0 l 346 192 l 180 192 l 154 0 l 9 0 l 174 972 l 366 972 l 530 0 l 375 0 m 262 766 l 197 318 l 330 318 l 265 766 l 262 766 z "},"ǻ":{"ha":493,"x_min":35,"x_max":478,"o":"m 146 892 q 161 946 146 922 q 203 982 176 970 l 260 1109 l 382 1109 l 288 983 q 331 947 315 972 q 347 892 347 922 q 318 821 347 850 q 245 793 290 793 q 174 821 202 793 q 146 892 146 850 m 192 892 q 208 852 192 869 q 245 835 223 835 q 285 852 269 835 q 301 892 301 869 q 285 933 301 916 q 245 950 269 950 q 208 933 223 950 q 192 892 192 916 m 283 143 l 283 328 l 231 328 q 186 311 203 328 q 170 264 170 294 l 170 167 q 216 98 170 98 q 252 111 233 98 q 283 143 271 123 m 179 559 l 179 496 l 46 515 l 46 557 q 98 701 46 644 q 233 757 150 757 q 376 706 326 757 q 425 538 425 654 l 425 150 q 430 110 425 121 q 452 100 435 100 q 478 107 463 100 l 478 11 q 393 -17 438 -17 q 333 1 359 -17 q 298 52 307 19 q 250 1 280 20 q 182 -17 220 -17 q 131 -9 155 -17 q 84 17 106 -1 q 48 70 61 35 q 35 153 35 104 l 35 262 q 63 355 35 317 q 133 410 91 393 q 224 427 174 427 l 283 427 l 283 561 q 270 622 283 605 q 231 639 256 639 q 192 621 205 639 q 179 559 179 603 z "},"Ǽ":{"ha":707,"x_min":-14,"x_max":671,"o":"m 343 0 l 343 249 l 193 249 l 131 0 l -14 0 l 243 972 l 664 972 l 664 831 l 496 831 l 496 559 l 642 559 l 642 419 l 496 419 l 496 142 l 671 142 l 671 0 l 343 0 m 338 828 l 222 376 l 343 376 l 343 828 l 338 828 m 412 1213 l 555 1213 l 428 1043 l 342 1043 l 412 1213 z "},"ǽ":{"ha":734,"x_min":35,"x_max":690,"o":"m 690 376 l 427 376 l 427 186 q 442 119 427 139 q 488 100 457 100 q 549 186 549 100 l 549 258 l 690 277 l 690 195 q 674 96 690 138 q 628 30 657 54 q 564 -5 600 6 q 488 -17 529 -17 q 391 0 430 -17 q 321 57 351 17 q 255 0 288 16 q 179 -17 221 -17 q 132 -9 155 -17 q 85 17 108 -1 q 48 67 62 35 q 35 143 35 100 l 35 262 q 63 355 35 317 q 133 410 91 393 q 224 427 174 427 l 283 427 l 283 561 q 271 622 283 604 q 232 639 259 639 q 192 622 205 639 q 179 561 179 604 l 179 496 l 46 515 l 46 559 q 99 702 46 647 q 235 757 153 757 q 358 701 318 757 q 488 757 416 757 q 564 746 529 757 q 628 711 600 734 q 674 645 657 687 q 690 546 690 603 l 690 376 m 283 144 l 283 328 l 231 328 q 186 311 203 328 q 170 264 170 295 l 170 155 q 183 113 170 128 q 216 98 196 98 q 253 111 235 98 q 283 144 271 124 m 549 554 q 488 640 549 640 q 427 554 427 640 l 427 468 l 549 468 l 549 554 m 382 972 l 525 972 l 397 803 l 311 803 l 382 972 z "},"Ǿ":{"ha":532,"x_min":41,"x_max":490,"o":"m 41 229 l 41 743 q 101 931 41 873 q 265 989 161 989 q 399 954 345 989 l 418 1011 l 484 1011 l 447 908 q 490 743 490 848 l 490 229 q 473 114 490 163 q 424 37 456 65 q 353 -4 393 9 q 265 -17 314 -17 q 139 12 191 -17 l 117 -52 l 52 -52 l 89 56 q 41 229 41 116 m 195 743 l 195 363 l 336 774 q 314 828 332 811 q 265 844 296 844 q 212 821 229 844 q 195 743 195 798 m 338 229 l 338 589 l 197 184 q 265 127 209 127 q 320 151 302 127 q 338 229 338 174 m 297 1213 l 440 1213 l 313 1043 l 227 1043 l 297 1213 z "},"ǿ":{"ha":496,"x_min":45,"x_max":452,"o":"m 248 -17 q 140 7 189 -17 l 118 -52 l 53 -52 l 90 45 q 45 195 45 99 l 45 546 q 61 645 45 603 q 107 711 78 687 q 171 746 136 734 q 248 757 206 757 q 363 729 316 757 l 380 775 l 444 775 l 410 688 q 452 546 452 635 l 452 195 q 435 96 452 138 q 389 30 418 54 q 325 -5 360 6 q 248 -17 290 -17 m 186 554 l 186 271 l 306 586 q 248 640 296 640 q 186 554 186 640 m 309 186 l 309 444 l 193 138 q 248 100 207 100 q 309 186 309 100 m 273 972 l 416 972 l 289 803 l 203 803 l 273 972 z "},"Ș":{"ha":511,"x_min":45,"x_max":467,"o":"m 49 664 l 49 781 q 110 933 49 877 q 258 989 172 989 q 403 931 344 989 q 463 781 463 873 l 463 696 l 314 664 l 314 768 q 301 825 314 806 q 257 843 288 843 q 201 768 201 843 l 201 692 q 210 653 201 671 q 227 626 218 635 q 253 602 235 618 l 386 484 q 467 321 467 414 l 467 192 q 404 40 467 96 q 253 -17 340 -17 q 105 40 165 -17 q 45 193 45 98 l 45 277 l 192 309 l 192 204 q 207 147 192 165 q 254 129 221 129 q 314 204 314 129 l 314 286 q 306 325 314 307 q 289 351 297 342 q 265 374 281 359 l 139 488 q 73 568 96 527 q 49 664 49 609 m 201 -57 l 345 -57 l 216 -227 l 131 -227 l 201 -57 z "},"ș":{"ha":454,"x_min":40,"x_max":416,"o":"m 222 467 l 345 367 q 416 240 416 309 l 416 150 q 361 29 416 75 q 228 -17 305 -17 q 94 28 146 -17 q 41 151 41 73 l 41 215 l 178 240 l 178 161 q 229 100 178 100 q 278 160 278 100 l 278 215 q 267 246 278 232 q 233 278 256 260 l 119 367 q 40 503 40 426 l 40 590 q 95 711 40 665 q 228 757 151 757 q 361 712 310 757 q 412 589 412 667 l 412 530 l 277 505 l 277 579 q 227 640 277 640 q 179 581 179 640 l 179 526 q 189 498 179 510 q 222 467 198 486 m 168 -57 l 311 -57 l 183 -227 l 97 -227 l 168 -57 z "},"ˆ":{"ha":694,"x_min":199,"x_max":496,"o":"m 346 903 l 297 803 l 199 803 l 289 972 l 406 972 l 496 803 l 392 803 l 346 903 z "},"ˇ":{"ha":694,"x_min":199,"x_max":496,"o":"m 302 972 l 349 872 l 397 972 l 496 972 l 406 803 l 289 803 l 199 972 l 302 972 z "},"˘":{"ha":694,"x_min":210,"x_max":484,"o":"m 347 806 q 210 972 210 806 l 294 972 q 305 908 294 929 q 347 886 315 886 q 388 908 377 886 q 399 972 399 930 l 484 972 q 347 806 484 806 z "},"˙":{"ha":694,"x_min":277,"x_max":418,"o":"m 277 972 l 418 972 l 418 825 l 277 825 l 277 972 z "},"˚":{"ha":694,"x_min":245,"x_max":447,"o":"m 245 892 q 274 963 245 935 q 346 991 302 991 q 419 963 391 991 q 447 892 447 935 q 418 821 447 850 q 346 793 390 793 q 274 821 302 793 q 245 892 245 850 m 292 892 q 308 852 292 869 q 346 835 323 835 q 386 852 370 835 q 401 892 401 869 q 386 933 401 916 q 346 950 370 950 q 307 933 323 950 q 292 892 292 916 z "},"˛":{"ha":694,"x_min":245,"x_max":425,"o":"m 286 0 l 375 0 q 328 -77 328 -35 q 370 -111 328 -111 q 425 -94 400 -111 l 425 -168 q 355 -184 393 -184 q 273 -157 300 -184 q 245 -87 245 -130 q 286 0 245 -37 z "},"˜":{"ha":694,"x_min":187,"x_max":505,"o":"m 269 808 l 187 829 q 281 953 203 953 q 342 936 301 953 q 396 920 382 920 q 422 965 420 920 l 505 953 q 411 825 489 825 q 353 843 389 825 q 301 860 317 860 q 269 808 273 860 z "},"˝":{"ha":694,"x_min":228,"x_max":528,"o":"m 411 972 l 528 972 l 456 803 l 359 803 l 411 972 m 253 972 l 367 972 l 315 803 l 228 803 l 253 972 z "},"Δ":{"ha":548,"x_min":28,"x_max":521,"o":"m 28 0 l 196 972 l 349 972 l 521 0 l 28 0 m 272 774 l 182 132 l 366 132 l 272 774 z "},"Ω":{"ha":529,"x_min":26,"x_max":501,"o":"m 319 820 q 310 832 319 820 q 265 843 301 843 q 211 820 229 843 q 192 742 192 798 l 192 323 q 205 204 192 245 q 245 138 218 163 l 245 0 l 26 0 l 26 142 l 131 142 q 52 346 52 210 l 52 743 q 265 989 52 989 q 348 976 311 989 q 415 936 385 963 q 461 859 445 908 q 478 743 478 810 l 478 346 q 470 266 478 302 q 448 205 463 231 q 423 169 433 180 q 399 142 414 157 l 501 142 l 501 0 l 282 0 l 282 138 q 324 204 310 163 q 338 323 338 246 l 338 742 q 319 820 338 798 z "},"π":{"ha":569,"x_min":31,"x_max":539,"o":"m 31 589 l 31 741 l 539 741 l 539 589 l 468 589 l 468 0 l 339 0 l 339 589 l 232 589 l 232 0 l 102 0 l 102 589 l 31 589 z "},"Ѐ":{"ha":425,"x_min":60,"x_max":389,"o":"m 60 972 l 382 972 l 382 831 l 212 831 l 212 559 l 359 559 l 359 419 l 212 419 l 212 142 l 389 142 l 389 0 l 60 0 l 60 972 m 69 1213 l 211 1213 l 283 1043 l 196 1043 l 69 1213 z "},"Ё":{"ha":425,"x_min":60,"x_max":389,"o":"m 60 972 l 382 972 l 382 831 l 212 831 l 212 559 l 359 559 l 359 419 l 212 419 l 212 142 l 389 142 l 389 0 l 60 0 l 60 972 m 86 1213 l 197 1213 l 197 1065 l 86 1065 l 86 1213 m 240 1213 l 351 1213 l 351 1065 l 240 1065 l 240 1213 z "},"Ђ":{"ha":627,"x_min":14,"x_max":578,"o":"m 14 972 l 431 972 l 431 831 l 298 831 l 298 583 q 412 624 346 624 q 536 567 494 624 q 578 399 578 510 l 578 16 q 529 -135 578 -94 q 375 -176 480 -176 l 375 -36 q 416 -23 406 -36 q 425 17 425 -11 l 425 396 q 411 458 425 438 q 367 478 397 478 q 298 441 326 478 l 298 0 l 146 0 l 146 831 l 14 831 l 14 972 z "},"Ѓ":{"ha":395,"x_min":60,"x_max":386,"o":"m 236 1213 l 379 1213 l 252 1043 l 165 1043 l 236 1213 m 60 972 l 386 972 l 386 831 l 214 831 l 214 0 l 60 0 l 60 972 z "},"Є":{"ha":521,"x_min":41,"x_max":490,"o":"m 490 319 l 490 229 q 473 114 490 163 q 424 37 456 65 q 353 -4 393 9 q 265 -17 314 -17 q 102 41 162 -17 q 41 229 41 100 l 41 743 q 101 931 41 873 q 265 989 161 989 q 353 976 314 989 q 424 935 393 963 q 473 859 456 907 q 490 743 490 810 l 490 704 l 338 672 l 338 743 q 320 820 338 798 q 265 843 302 843 q 212 820 229 843 q 195 743 195 798 l 195 566 l 411 566 l 411 422 l 195 422 l 195 229 q 212 151 195 174 q 265 127 229 127 q 320 151 302 127 q 338 229 338 174 l 338 288 l 490 319 z "},"Ѕ":{"ha":511,"x_min":45,"x_max":467,"o":"m 49 664 l 49 781 q 110 933 49 877 q 258 989 172 989 q 403 931 344 989 q 463 781 463 873 l 463 696 l 314 664 l 314 768 q 301 825 314 806 q 257 843 288 843 q 201 768 201 843 l 201 692 q 210 653 201 671 q 227 626 218 635 q 253 602 235 618 l 386 484 q 467 321 467 414 l 467 192 q 404 40 467 96 q 253 -17 340 -17 q 105 40 165 -17 q 45 193 45 98 l 45 277 l 192 309 l 192 204 q 207 147 192 165 q 254 129 221 129 q 314 204 314 129 l 314 286 q 306 325 314 307 q 289 351 297 342 q 265 374 281 359 l 139 488 q 73 568 96 527 q 49 664 49 609 z "},"І":{"ha":273,"x_min":60,"x_max":212,"o":"m 60 972 l 212 972 l 212 0 l 60 0 l 60 972 z "},"Ї":{"ha":273,"x_min":5,"x_max":271,"o":"m 60 972 l 212 972 l 212 0 l 60 0 l 60 972 m 5 1203 l 117 1203 l 117 1055 l 5 1055 l 5 1203 m 160 1203 l 271 1203 l 271 1055 l 160 1055 l 160 1203 z "},"Ј":{"ha":315,"x_min":8,"x_max":256,"o":"m 102 972 l 256 972 l 256 187 q 106 -17 256 -17 q 8 9 56 -17 l 8 155 q 68 140 42 140 q 95 154 87 140 q 102 197 102 168 l 102 972 z "},"Љ":{"ha":850,"x_min":14,"x_max":815,"o":"m 111 972 l 532 972 l 532 961 l 543 972 l 543 612 l 590 612 q 752 557 689 612 q 815 393 815 502 l 815 225 q 803 134 815 173 q 769 69 790 94 q 715 28 747 44 q 648 6 683 12 q 568 0 612 0 l 390 0 l 390 831 l 261 831 l 241 256 q 188 59 237 119 q 14 0 138 0 l 14 142 q 74 165 59 142 q 90 257 88 189 l 111 972 m 591 473 l 543 473 l 543 138 l 593 138 q 663 220 663 138 l 663 393 q 646 454 663 435 q 591 473 629 473 z "},"Њ":{"ha":818,"x_min":60,"x_max":783,"o":"m 60 972 l 214 972 l 214 600 l 357 600 l 357 972 l 511 972 l 511 600 l 558 600 q 721 546 659 600 q 783 382 783 492 l 783 227 q 723 54 783 109 q 562 0 663 0 l 357 0 l 357 458 l 214 458 l 214 0 l 60 0 l 60 972 m 559 461 l 511 461 l 511 138 l 559 138 q 629 221 629 138 l 629 380 q 613 442 629 423 q 559 461 596 461 z "},"Ћ":{"ha":627,"x_min":14,"x_max":576,"o":"m 14 972 l 431 972 l 431 831 l 298 831 l 298 582 q 411 623 343 623 q 538 562 500 623 q 576 370 576 500 l 576 0 l 424 0 l 424 395 q 410 458 424 438 q 366 478 396 478 q 298 440 325 478 l 298 0 l 144 0 l 144 831 l 14 831 l 14 972 z "},"Ќ":{"ha":554,"x_min":60,"x_max":541,"o":"m 318 1213 l 461 1213 l 334 1043 l 248 1043 l 318 1213 m 541 972 l 407 533 q 458 477 443 512 q 481 387 474 442 l 532 0 l 371 0 l 329 354 q 313 397 326 382 q 272 412 300 412 l 214 412 l 214 0 l 60 0 l 60 972 l 214 972 l 214 554 l 278 554 l 379 972 l 541 972 z "},"Ѝ":{"ha":581,"x_min":60,"x_max":519,"o":"m 142 1213 l 283 1213 l 355 1043 l 268 1043 l 142 1213 m 372 597 l 222 0 l 60 0 l 60 972 l 207 972 l 207 364 l 355 972 l 519 972 l 519 0 l 372 0 l 372 597 z "},"Ў":{"ha":524,"x_min":0,"x_max":524,"o":"m 275 1046 q 138 1213 138 1046 l 222 1213 q 233 1148 222 1169 q 275 1126 243 1126 q 316 1148 305 1126 q 326 1213 326 1170 l 411 1213 q 275 1046 411 1046 m 269 485 l 376 972 l 524 972 l 315 151 q 244 19 291 54 q 77 -18 197 -16 l 77 123 q 148 135 127 123 q 178 186 168 146 l 195 256 l 0 972 l 154 972 l 269 485 z "},"Џ":{"ha":559,"x_min":57,"x_max":503,"o":"m 215 0 l 57 0 l 57 972 l 210 972 l 210 142 l 349 142 l 349 972 l 503 972 l 503 0 l 343 0 l 338 -210 l 221 -210 l 215 0 z "},"А":{"ha":540,"x_min":9,"x_max":530,"o":"m 375 0 l 346 192 l 180 192 l 154 0 l 9 0 l 174 972 l 366 972 l 530 0 l 375 0 m 262 766 l 197 318 l 330 318 l 265 766 l 262 766 z "},"Б":{"ha":519,"x_min":60,"x_max":485,"o":"m 60 972 l 400 972 l 400 831 l 212 831 l 212 612 l 260 612 q 375 591 326 612 q 454 519 424 570 q 485 393 485 469 l 485 253 q 429 59 485 118 q 264 0 373 0 l 60 0 l 60 972 m 212 473 l 212 138 l 262 138 q 315 158 299 138 q 332 220 332 179 l 332 393 q 315 455 332 436 q 261 473 298 473 l 212 473 z "},"В":{"ha":538,"x_min":60,"x_max":492,"o":"m 212 428 l 212 138 l 269 138 q 317 154 299 138 q 335 204 335 170 l 335 353 q 315 409 335 389 q 265 428 296 428 l 212 428 m 212 835 l 212 557 l 268 557 q 332 636 332 557 l 332 762 q 315 818 332 800 q 265 835 299 835 l 212 835 m 60 972 l 273 972 q 357 963 321 972 q 422 932 393 954 q 468 869 452 910 q 484 768 484 828 l 484 646 q 456 557 484 595 q 382 498 429 519 l 382 496 q 492 345 492 460 l 492 210 q 434 55 492 110 q 269 0 376 0 l 60 0 l 60 972 z "},"Г":{"ha":399,"x_min":60,"x_max":386,"o":"m 60 972 l 386 972 l 386 831 l 214 831 l 214 0 l 60 0 l 60 972 z "},"Д":{"ha":612,"x_min":0,"x_max":610,"o":"m 96 972 l 529 972 l 529 140 l 610 140 l 600 -210 l 482 -210 l 472 0 l 135 0 l 125 -210 l 9 -210 l 0 140 l 64 140 q 85 275 78 201 q 94 401 93 350 q 96 532 96 453 l 96 972 m 248 831 l 248 532 q 240 319 248 411 q 211 140 233 228 l 375 140 l 375 831 l 248 831 z "},"Е":{"ha":425,"x_min":60,"x_max":389,"o":"m 60 972 l 382 972 l 382 831 l 212 831 l 212 559 l 359 559 l 359 419 l 212 419 l 212 142 l 389 142 l 389 0 l 60 0 l 60 972 z "},"Ж":{"ha":826,"x_min":14,"x_max":812,"o":"m 147 533 l 14 972 l 175 972 l 277 554 l 336 554 l 336 972 l 489 972 l 489 554 l 549 554 l 650 972 l 812 972 l 677 533 q 730 477 713 512 q 753 387 746 441 l 803 0 l 643 0 l 600 354 q 585 397 597 382 q 545 412 572 412 l 489 412 l 489 0 l 336 0 l 336 412 l 282 412 q 241 397 254 412 q 225 354 229 382 l 183 0 l 22 0 l 74 387 q 96 477 81 442 q 147 533 112 512 z "},"З":{"ha":475,"x_min":37,"x_max":436,"o":"m 436 336 l 436 192 q 377 37 436 90 q 231 -17 318 -17 q 92 40 146 -17 q 37 192 37 98 l 37 277 l 175 309 l 175 204 q 231 129 175 129 q 288 204 288 129 l 288 330 q 210 431 288 431 l 151 431 l 151 561 l 218 561 q 270 581 253 561 q 288 654 288 601 l 288 768 q 231 843 288 843 q 175 768 175 843 l 175 664 l 37 696 l 37 781 q 92 932 37 875 q 231 989 146 989 q 376 933 316 989 q 436 781 436 877 l 436 667 q 340 509 436 565 l 340 505 q 393 473 375 488 q 424 424 412 458 q 436 336 436 391 z "},"И":{"ha":581,"x_min":60,"x_max":519,"o":"m 372 597 l 222 0 l 60 0 l 60 972 l 207 972 l 207 364 l 355 972 l 519 972 l 519 0 l 372 0 l 372 597 z "},"Й":{"ha":581,"x_min":60,"x_max":519,"o":"m 294 1046 q 157 1213 157 1046 l 241 1213 q 252 1148 241 1169 q 294 1126 262 1126 q 335 1148 324 1126 q 346 1213 346 1171 l 431 1213 q 294 1046 431 1046 m 372 597 l 222 0 l 60 0 l 60 972 l 207 972 l 207 364 l 355 972 l 519 972 l 519 0 l 372 0 l 372 597 z "},"К":{"ha":554,"x_min":60,"x_max":541,"o":"m 541 972 l 407 533 q 458 477 443 512 q 481 387 474 442 l 532 0 l 371 0 l 329 354 q 313 397 326 382 q 272 412 300 412 l 214 412 l 214 0 l 60 0 l 60 972 l 214 972 l 214 554 l 278 554 l 379 972 l 541 972 z "},"Л":{"ha":606,"x_min":14,"x_max":545,"o":"m 111 972 l 545 972 l 545 0 l 390 0 l 390 831 l 261 831 l 241 256 q 188 59 237 119 q 14 0 138 0 l 14 142 q 74 165 59 142 q 90 257 88 189 l 111 972 z "},"М":{"ha":757,"x_min":46,"x_max":711,"o":"m 87 972 l 271 972 l 379 318 l 489 972 l 672 972 l 711 0 l 558 0 l 539 632 l 449 78 l 311 78 l 218 629 l 199 0 l 46 0 l 87 972 z "},"Н":{"ha":573,"x_min":60,"x_max":511,"o":"m 60 972 l 212 972 l 212 551 l 358 551 l 358 972 l 511 972 l 511 0 l 358 0 l 358 411 l 212 411 l 212 0 l 60 0 l 60 972 z "},"О":{"ha":532,"x_min":41,"x_max":490,"o":"m 338 229 l 338 743 q 320 821 338 798 q 265 844 302 844 q 212 821 229 844 q 195 743 195 798 l 195 229 q 212 151 195 174 q 265 127 229 127 q 320 151 302 127 q 338 229 338 174 m 41 229 l 41 743 q 101 931 41 873 q 265 989 161 989 q 353 976 314 989 q 424 935 393 963 q 473 859 456 907 q 490 743 490 810 l 490 229 q 473 114 490 163 q 424 37 456 65 q 353 -4 393 9 q 265 -17 314 -17 q 102 41 162 -17 q 41 229 41 100 z "},"П":{"ha":566,"x_min":60,"x_max":505,"o":"m 60 972 l 505 972 l 505 0 l 353 0 l 353 831 l 214 831 l 214 0 l 60 0 l 60 972 z "},"Р":{"ha":519,"x_min":60,"x_max":482,"o":"m 212 490 l 260 490 q 312 509 296 490 q 329 571 329 528 l 329 751 q 313 815 329 795 q 260 835 296 835 l 212 835 l 212 490 m 482 746 l 482 571 q 465 466 482 510 q 417 395 448 421 q 346 357 386 369 q 257 345 307 345 l 212 345 l 212 0 l 60 0 l 60 972 l 261 972 q 422 919 363 972 q 482 746 482 865 z "},"С":{"ha":525,"x_min":41,"x_max":490,"o":"m 490 347 l 490 229 q 473 114 490 163 q 424 37 456 65 q 353 -4 393 9 q 265 -17 314 -17 q 102 41 162 -17 q 41 229 41 100 l 41 743 q 101 931 41 873 q 265 989 161 989 q 353 976 314 989 q 424 935 393 963 q 473 859 456 907 q 490 743 490 810 l 490 676 l 338 644 l 338 743 q 320 821 338 798 q 265 844 302 844 q 212 821 229 844 q 195 743 195 798 l 195 229 q 212 151 195 174 q 265 127 229 127 q 320 151 302 127 q 338 229 338 174 l 338 315 l 490 347 z "},"Т":{"ha":444,"x_min":14,"x_max":431,"o":"m 14 972 l 431 972 l 431 831 l 298 831 l 298 0 l 146 0 l 146 831 l 14 831 l 14 972 z "},"У":{"ha":524,"x_min":0,"x_max":524,"o":"m 269 485 l 376 972 l 524 972 l 315 151 q 244 19 291 54 q 77 -18 197 -16 l 77 123 q 148 135 127 123 q 178 186 168 146 l 195 256 l 0 972 l 154 972 l 269 485 z "},"Ф":{"ha":707,"x_min":35,"x_max":672,"o":"m 419 0 l 288 0 l 288 96 q 35 350 35 131 l 35 597 q 100 794 35 729 q 288 875 165 859 l 288 972 l 419 972 l 419 875 q 518 850 474 867 q 598 804 562 833 q 653 729 633 775 q 672 623 672 683 l 672 375 q 654 255 672 306 q 602 172 637 204 q 523 122 567 140 q 419 96 479 104 l 419 0 m 179 623 l 179 350 q 209 268 179 296 q 288 239 238 240 l 288 733 q 209 703 238 731 q 179 623 179 675 m 528 350 l 528 581 q 502 692 528 654 q 419 733 476 731 l 419 239 q 497 268 467 240 q 528 350 528 296 z "},"Х":{"ha":517,"x_min":0,"x_max":518,"o":"m 354 0 l 254 322 l 154 0 l 0 0 l 171 488 l 5 972 l 170 972 l 264 672 l 355 972 l 510 972 l 345 496 l 518 0 l 354 0 z "},"Ц":{"ha":585,"x_min":56,"x_max":582,"o":"m 501 140 l 582 140 l 572 -210 l 454 -210 l 444 0 l 56 0 l 56 972 l 208 972 l 208 140 l 349 140 l 349 972 l 501 972 l 501 140 z "},"Ч":{"ha":544,"x_min":52,"x_max":484,"o":"m 484 0 l 330 0 l 330 374 q 232 345 284 345 q 52 575 52 345 l 52 972 l 204 972 l 204 574 q 219 511 204 532 q 275 490 235 490 q 330 509 299 490 l 330 972 l 484 972 l 484 0 z "},"Ш":{"ha":829,"x_min":60,"x_max":770,"o":"m 770 0 l 60 0 l 60 972 l 214 972 l 214 142 l 339 142 l 339 972 l 492 972 l 492 142 l 616 142 l 616 972 l 770 972 l 770 0 z "},"Щ":{"ha":852,"x_min":60,"x_max":848,"o":"m 770 140 l 848 140 l 839 -210 l 722 -210 l 713 0 l 60 0 l 60 972 l 214 972 l 214 142 l 339 142 l 339 972 l 492 972 l 492 142 l 616 142 l 616 972 l 770 972 l 770 140 z "},"Ъ":{"ha":591,"x_min":14,"x_max":557,"o":"m 14 831 l 14 972 l 285 972 l 285 612 l 332 612 q 495 559 433 612 q 557 395 557 506 l 557 227 q 497 54 557 108 q 336 0 438 0 l 132 0 l 132 831 l 14 831 m 285 475 l 285 138 l 335 138 q 388 158 371 138 q 404 221 404 179 l 404 395 q 388 455 404 436 q 335 475 371 475 l 285 475 z "},"Ы":{"ha":789,"x_min":60,"x_max":729,"o":"m 576 972 l 729 972 l 729 0 l 576 0 l 576 972 m 212 473 l 212 138 l 262 138 q 315 158 299 138 q 332 220 332 179 l 332 393 q 315 455 332 436 q 261 473 298 473 l 212 473 m 60 972 l 212 972 l 212 612 l 260 612 q 375 591 326 612 q 454 519 424 570 q 485 393 485 469 l 485 253 q 264 0 485 0 l 60 0 l 60 972 z "},"Ь":{"ha":519,"x_min":60,"x_max":485,"o":"m 212 473 l 212 138 l 262 138 q 315 158 299 138 q 332 220 332 179 l 332 393 q 315 455 332 436 q 261 473 298 473 l 212 473 m 60 972 l 212 972 l 212 612 l 260 612 q 375 591 326 612 q 454 519 424 570 q 485 393 485 469 l 485 253 q 264 0 485 0 l 60 0 l 60 972 z "},"Э":{"ha":534,"x_min":35,"x_max":484,"o":"m 35 229 l 35 288 l 187 319 l 187 229 q 205 151 187 174 q 258 127 222 127 q 313 151 295 127 q 330 229 330 174 l 330 422 l 114 422 l 114 566 l 330 566 l 330 743 q 313 821 330 798 q 258 843 296 843 q 205 820 222 843 q 187 743 187 798 l 187 672 l 35 703 l 35 743 q 96 930 35 872 q 258 989 157 989 q 484 743 484 989 l 484 229 q 467 114 484 163 q 419 37 450 65 q 348 -4 388 9 q 258 -17 309 -17 q 96 42 157 -17 q 35 229 35 100 z "},"Ю":{"ha":812,"x_min":60,"x_max":771,"o":"m 322 229 l 322 410 l 214 410 l 214 0 l 60 0 l 60 972 l 214 972 l 214 551 l 322 551 l 322 743 q 382 931 322 873 q 546 989 442 989 q 634 976 595 989 q 705 935 673 963 q 754 859 736 907 q 771 743 771 810 l 771 229 q 754 114 771 163 q 705 37 736 65 q 634 -4 673 9 q 546 -17 595 -17 q 382 41 443 -17 q 322 229 322 100 m 618 229 l 618 743 q 601 821 618 798 q 546 843 583 843 q 492 820 510 843 q 475 743 475 798 l 475 229 q 492 152 475 175 q 546 129 510 129 q 600 152 583 129 q 618 229 618 174 z "},"Я":{"ha":525,"x_min":17,"x_max":465,"o":"m 311 534 l 311 835 l 264 835 q 213 818 230 835 q 196 762 196 800 l 196 614 q 264 534 196 534 l 311 534 m 174 0 l 17 0 l 49 292 q 81 407 56 368 q 151 463 106 445 l 151 464 q 72 525 98 481 q 45 623 45 568 l 45 768 q 60 869 45 828 q 106 932 76 910 q 172 963 136 954 q 256 972 208 972 l 465 972 l 465 0 l 311 0 l 311 396 l 275 396 q 199 293 207 396 l 174 0 z "},"а":{"ha":486,"x_min":35,"x_max":478,"o":"m 283 143 l 283 328 l 231 328 q 186 311 203 328 q 170 264 170 294 l 170 167 q 216 98 170 98 q 252 111 233 98 q 283 143 271 123 m 179 559 l 179 496 l 46 515 l 46 557 q 98 701 46 644 q 233 757 150 757 q 376 706 326 757 q 425 538 425 654 l 425 150 q 430 110 425 121 q 452 100 435 100 q 478 107 463 100 l 478 11 q 393 -17 438 -17 q 333 1 359 -17 q 298 52 307 19 q 250 1 280 20 q 182 -17 220 -17 q 131 -9 155 -17 q 84 17 106 -1 q 48 70 61 35 q 35 153 35 104 l 35 262 q 63 355 35 317 q 133 410 91 393 q 224 427 174 427 l 283 427 l 283 561 q 270 622 283 605 q 231 639 256 639 q 192 621 205 639 q 179 559 179 603 z "},"б":{"ha":496,"x_min":45,"x_max":452,"o":"m 248 -17 q 171 -5 206 -17 q 107 30 136 6 q 61 96 78 54 q 45 195 45 138 l 45 772 q 170 978 45 924 q 294 1022 210 996 q 406 1060 377 1048 l 406 925 q 319 897 376 913 q 236 869 263 881 q 195 840 208 859 q 182 783 182 821 l 182 736 q 286 757 229 757 q 341 745 314 757 q 394 710 369 734 q 436 644 420 687 q 452 546 452 602 l 452 195 q 435 96 452 138 q 389 30 418 54 q 325 -5 360 6 q 248 -17 290 -17 m 187 186 q 248 102 187 102 q 293 121 277 102 q 309 186 309 140 l 309 554 q 249 639 309 639 q 187 557 187 639 l 187 186 z "},"в":{"ha":500,"x_min":56,"x_max":465,"o":"m 197 321 l 197 118 l 271 118 q 322 167 322 118 l 322 267 q 307 307 322 293 q 269 321 291 321 l 197 321 m 197 621 l 197 425 l 271 425 q 307 441 294 425 q 321 484 321 456 l 321 570 q 268 621 321 621 l 197 621 m 56 741 l 275 741 q 412 698 366 741 q 458 554 458 655 l 458 486 q 372 378 458 412 q 465 262 465 346 l 465 192 q 271 0 465 0 l 56 0 l 56 741 z "},"г":{"ha":394,"x_min":56,"x_max":374,"o":"m 56 0 l 56 741 l 374 741 l 374 623 l 199 623 l 199 0 l 56 0 z "},"д":{"ha":559,"x_min":7,"x_max":553,"o":"m 18 -210 l 7 118 l 53 118 q 83 403 83 201 l 83 741 l 485 741 l 485 118 l 553 118 l 542 -210 l 428 -210 l 422 0 l 138 0 l 132 -210 l 18 -210 m 342 621 l 227 621 l 227 403 q 193 118 227 206 l 342 118 l 342 621 z "},"е":{"ha":496,"x_min":45,"x_max":452,"o":"m 452 376 l 186 376 l 186 186 q 248 100 186 100 q 309 186 309 100 l 309 258 l 452 277 l 452 195 q 435 96 452 138 q 389 30 418 54 q 325 -5 360 6 q 248 -17 290 -17 q 171 -5 206 -17 q 107 30 136 6 q 61 96 78 54 q 45 195 45 138 l 45 546 q 61 645 45 603 q 107 711 78 687 q 171 746 136 734 q 248 757 206 757 q 325 746 290 757 q 389 711 360 734 q 435 645 418 687 q 452 546 452 603 l 452 376 m 186 554 l 186 468 l 309 468 l 309 554 q 248 640 309 640 q 186 554 186 640 z "},"ж":{"ha":758,"x_min":11,"x_max":747,"o":"m 143 419 l 11 741 l 164 741 l 261 441 l 307 441 l 307 741 l 450 741 l 450 441 l 496 441 l 593 741 l 747 741 l 614 419 q 667 370 649 401 q 696 283 686 338 l 747 0 l 599 0 l 557 249 q 537 296 551 280 q 492 313 523 313 l 450 313 l 450 0 l 307 0 l 307 313 l 267 313 q 221 296 235 313 q 201 249 207 280 l 160 0 l 11 0 l 62 283 q 91 370 73 338 q 143 419 109 401 z "},"з":{"ha":469,"x_min":35,"x_max":435,"o":"m 435 264 l 435 171 q 377 33 435 83 q 236 -17 319 -17 q 138 1 182 -17 q 64 59 94 18 q 35 160 35 100 l 35 231 l 170 249 l 170 174 q 188 123 170 146 q 231 100 205 100 q 275 118 259 100 q 292 172 292 137 l 292 260 q 227 323 292 323 l 135 323 l 135 441 l 228 441 q 276 455 261 441 q 292 505 292 469 l 292 568 q 274 617 292 596 q 231 639 256 639 q 186 620 203 639 q 170 567 170 602 l 170 500 l 35 521 l 35 578 q 92 712 35 667 q 236 757 150 757 q 378 706 321 757 q 435 571 435 655 l 435 507 q 347 387 435 423 l 347 385 q 413 344 391 370 q 435 264 435 318 z "},"и":{"ha":548,"x_min":56,"x_max":493,"o":"m 351 0 l 351 494 l 211 0 l 56 0 l 56 741 l 197 741 l 197 237 l 336 741 l 493 741 l 493 0 l 351 0 z "},"й":{"ha":548,"x_min":56,"x_max":493,"o":"m 288 806 q 150 972 150 806 l 235 972 q 245 908 235 929 q 288 886 256 886 q 328 908 317 886 q 339 972 339 930 l 424 972 q 288 806 424 806 m 351 0 l 351 494 l 211 0 l 56 0 l 56 741 l 197 741 l 197 237 l 336 741 l 493 741 l 493 0 l 351 0 z "},"к":{"ha":507,"x_min":56,"x_max":496,"o":"m 496 741 l 363 419 q 415 370 397 401 q 443 283 433 338 l 496 0 l 347 0 l 306 249 q 286 296 300 280 q 239 313 271 313 l 199 313 l 199 0 l 56 0 l 56 741 l 199 741 l 199 441 l 244 441 l 342 741 l 496 741 z "},"л":{"ha":525,"x_min":8,"x_max":469,"o":"m 83 741 l 469 741 l 469 0 l 329 0 l 329 623 l 221 623 l 210 211 q 158 50 207 100 q 8 0 110 0 l 8 119 q 55 136 43 119 q 69 193 68 153 l 83 741 z "},"м":{"ha":726,"x_min":41,"x_max":685,"o":"m 72 741 l 260 741 l 364 222 l 468 741 l 654 741 l 685 0 l 539 0 l 526 538 l 429 58 l 297 58 l 199 536 l 187 0 l 41 0 l 72 741 z "},"н":{"ha":519,"x_min":56,"x_max":464,"o":"m 321 0 l 321 329 l 199 329 l 199 0 l 56 0 l 56 741 l 199 741 l 199 447 l 321 447 l 321 741 l 464 741 l 464 0 l 321 0 z "},"о":{"ha":496,"x_min":45,"x_max":452,"o":"m 309 186 l 309 554 q 248 640 309 640 q 186 554 186 640 l 186 186 q 248 100 186 100 q 309 186 309 100 m 248 -17 q 171 -5 206 -17 q 107 30 136 6 q 61 96 78 54 q 45 195 45 138 l 45 546 q 61 645 45 603 q 107 711 78 687 q 171 746 136 734 q 248 757 206 757 q 325 746 290 757 q 389 711 360 734 q 435 645 418 687 q 452 546 452 603 l 452 195 q 435 96 452 138 q 389 30 418 54 q 325 -5 360 6 q 248 -17 290 -17 z "},"п":{"ha":521,"x_min":56,"x_max":465,"o":"m 322 0 l 322 621 l 199 621 l 199 0 l 56 0 l 56 741 l 465 741 l 465 0 l 322 0 z "},"р":{"ha":505,"x_min":56,"x_max":463,"o":"m 199 40 l 199 -197 l 56 -221 l 56 741 l 199 741 l 199 697 q 250 739 217 722 q 319 757 283 757 q 463 566 463 757 l 463 172 q 419 32 463 81 q 314 -17 376 -17 q 250 -1 282 -17 q 199 40 218 14 m 199 608 l 199 131 q 260 100 225 100 q 302 120 285 100 q 319 182 319 140 l 319 557 q 260 639 319 639 q 199 608 227 639 z "},"с":{"ha":490,"x_min":45,"x_max":452,"o":"m 186 554 l 186 186 q 248 100 186 100 q 309 186 309 100 l 309 258 l 452 277 l 452 195 q 435 96 452 138 q 389 30 418 54 q 325 -5 360 6 q 248 -17 290 -17 q 171 -5 206 -17 q 107 30 136 6 q 61 96 78 54 q 45 195 45 138 l 45 546 q 61 645 45 603 q 107 711 78 687 q 171 746 136 734 q 248 757 206 757 q 325 746 290 757 q 389 711 360 734 q 435 645 418 687 q 452 546 452 603 l 452 503 l 309 484 l 309 554 q 248 640 309 640 q 186 554 186 640 z "},"т":{"ha":448,"x_min":20,"x_max":429,"o":"m 153 0 l 153 621 l 20 621 l 20 741 l 429 741 l 429 621 l 296 621 l 296 0 l 153 0 z "},"у":{"ha":475,"x_min":-12,"x_max":473,"o":"m -12 -78 q 61 -90 32 -90 q 135 -62 109 -90 q 176 40 160 -35 l 18 741 l 165 741 l 256 268 l 335 741 l 473 741 l 322 36 q 234 -145 296 -82 q 81 -208 172 -208 q -12 -192 39 -208 l -12 -78 z "},"ф":{"ha":736,"x_min":45,"x_max":692,"o":"m 440 -210 l 296 -210 l 296 0 q 112 78 178 4 q 45 271 45 152 l 45 468 q 112 662 45 587 q 296 741 179 736 l 296 972 l 440 972 l 440 741 q 624 662 557 736 q 692 468 692 587 l 692 271 q 625 78 692 152 q 440 0 557 4 l 440 -210 m 296 623 q 241 609 264 623 q 208 571 219 595 q 192 524 197 548 q 187 473 187 500 l 187 265 q 192 215 187 239 q 208 168 197 191 q 241 131 219 144 q 296 117 264 117 l 296 623 m 440 623 l 440 117 q 494 131 472 117 q 528 168 517 144 q 544 215 539 191 q 549 265 549 239 l 549 473 q 544 524 549 500 q 528 571 539 548 q 494 609 517 595 q 440 623 472 623 z "},"х":{"ha":468,"x_min":0,"x_max":468,"o":"m 160 741 l 243 494 l 317 741 l 457 741 l 322 370 l 468 0 l 313 0 l 227 237 l 143 0 l 0 0 l 143 379 l 1 741 l 160 741 z "},"ц":{"ha":529,"x_min":56,"x_max":526,"o":"m 318 118 l 318 741 l 461 741 l 461 118 l 526 118 l 515 -210 l 401 -210 l 395 0 l 56 0 l 56 741 l 199 741 l 199 118 l 318 118 z "},"ч":{"ha":508,"x_min":41,"x_max":453,"o":"m 310 0 l 310 293 q 192 248 262 248 q 76 305 111 248 q 41 490 41 363 l 41 741 l 184 741 l 184 446 q 201 391 184 409 q 241 372 217 372 q 310 408 283 372 l 310 741 l 453 741 l 453 0 l 310 0 z "},"ш":{"ha":760,"x_min":56,"x_max":704,"o":"m 56 0 l 56 741 l 200 741 l 200 118 l 309 118 l 309 741 l 452 741 l 452 118 l 561 118 l 561 741 l 704 741 l 704 0 l 56 0 z "},"щ":{"ha":772,"x_min":56,"x_max":771,"o":"m 56 0 l 56 741 l 200 741 l 200 118 l 309 118 l 309 741 l 452 741 l 452 118 l 561 118 l 561 741 l 704 741 l 704 118 l 771 118 l 760 -210 l 646 -210 l 639 0 l 56 0 z "},"ъ":{"ha":604,"x_min":18,"x_max":567,"o":"m 18 623 l 18 741 l 297 741 l 297 453 q 410 492 348 492 q 522 447 476 492 q 567 313 567 401 l 567 183 q 514 50 567 100 q 363 0 460 0 l 154 0 l 154 623 l 18 623 m 297 345 l 297 118 l 364 118 q 408 134 393 118 q 424 180 424 150 l 424 314 q 409 359 424 344 q 368 374 394 374 q 297 345 333 374 z "},"ы":{"ha":737,"x_min":56,"x_max":682,"o":"m 539 741 l 682 741 l 682 0 l 539 0 l 539 741 m 199 343 l 199 118 l 265 118 q 325 179 325 118 l 325 313 q 310 357 325 342 q 269 372 295 372 q 199 343 235 372 m 56 741 l 199 741 l 199 452 q 313 492 252 492 q 423 446 378 492 q 468 313 468 401 l 468 182 q 415 50 468 99 q 265 0 361 0 l 56 0 l 56 741 z "},"ь":{"ha":507,"x_min":56,"x_max":468,"o":"m 199 343 l 199 118 l 265 118 q 325 179 325 118 l 325 313 q 310 357 325 342 q 269 372 295 372 q 199 343 235 372 m 56 741 l 199 741 l 199 452 q 313 492 252 492 q 423 446 378 492 q 468 313 468 401 l 468 182 q 415 50 468 99 q 265 0 361 0 l 56 0 l 56 741 z "},"э":{"ha":487,"x_min":35,"x_max":443,"o":"m 300 441 l 300 554 q 284 619 300 600 q 239 639 269 639 q 178 554 178 639 l 178 503 l 35 522 l 35 536 q 51 640 35 596 q 96 708 67 684 q 161 745 125 733 q 239 757 196 757 q 387 703 332 757 q 443 529 443 649 l 443 210 q 387 37 443 90 q 239 -17 332 -17 q 161 -5 196 -17 q 96 31 125 6 q 51 99 67 56 q 35 203 35 143 l 35 229 l 178 249 l 178 184 q 192 120 178 140 q 239 100 207 100 q 300 184 300 100 l 300 323 l 136 323 l 136 441 l 300 441 z "},"ю":{"ha":747,"x_min":56,"x_max":704,"o":"m 500 -17 q 422 -5 458 -17 q 358 30 387 6 q 312 96 329 54 q 296 195 296 138 l 296 330 l 199 330 l 199 0 l 56 0 l 56 741 l 199 741 l 199 449 l 296 449 l 296 546 q 312 645 296 603 q 358 711 329 687 q 422 746 387 734 q 500 757 458 757 q 646 706 588 757 q 704 546 704 655 l 704 195 q 687 96 704 138 q 641 30 671 54 q 576 -5 612 6 q 500 -17 541 -17 m 561 186 l 561 554 q 500 639 561 639 q 439 554 439 639 l 439 186 q 454 121 439 140 q 500 102 470 102 q 561 186 561 102 z "},"я":{"ha":513,"x_min":14,"x_max":458,"o":"m 458 0 l 318 0 l 318 293 l 253 293 q 197 239 205 293 l 158 0 l 14 0 l 60 256 q 89 327 68 302 q 149 361 110 351 q 57 473 57 397 l 57 574 q 240 741 57 741 l 458 741 l 458 0 m 318 414 l 318 621 l 248 621 q 196 570 196 621 l 196 472 q 209 427 196 439 q 245 414 222 414 l 318 414 z "},"ѐ":{"ha":496,"x_min":45,"x_max":452,"o":"m 452 376 l 186 376 l 186 186 q 248 100 186 100 q 309 186 309 100 l 309 258 l 452 277 l 452 195 q 435 96 452 138 q 389 30 418 54 q 325 -5 360 6 q 248 -17 290 -17 q 171 -5 206 -17 q 107 30 136 6 q 61 96 78 54 q 45 195 45 138 l 45 546 q 61 645 45 603 q 107 711 78 687 q 171 746 136 734 q 248 757 206 757 q 325 746 290 757 q 389 711 360 734 q 435 645 418 687 q 452 546 452 603 l 452 376 m 186 554 l 186 468 l 309 468 l 309 554 q 248 640 309 640 q 186 554 186 640 m 82 972 l 224 972 l 296 803 l 208 803 l 82 972 z "},"ё":{"ha":496,"x_min":45,"x_max":452,"o":"m 452 376 l 186 376 l 186 186 q 248 100 186 100 q 309 186 309 100 l 309 258 l 452 277 l 452 195 q 435 96 452 138 q 389 30 418 54 q 325 -5 360 6 q 248 -17 290 -17 q 171 -5 206 -17 q 107 30 136 6 q 61 96 78 54 q 45 195 45 138 l 45 546 q 61 645 45 603 q 107 711 78 687 q 171 746 136 734 q 248 757 206 757 q 325 746 290 757 q 389 711 360 734 q 435 645 418 687 q 452 546 452 603 l 452 376 m 186 554 l 186 468 l 309 468 l 309 554 q 248 640 309 640 q 186 554 186 640 m 117 972 l 228 972 l 228 825 l 117 825 l 117 972 m 271 972 l 382 972 l 382 825 l 271 825 l 271 972 z "},"ђ":{"ha":515,"x_min":-43,"x_max":461,"o":"m -43 825 l -43 909 l 56 909 l 56 972 l 199 1000 l 199 909 l 380 909 l 380 825 l 199 825 l 199 696 q 250 739 217 721 q 322 757 283 757 q 422 711 383 757 q 461 572 461 665 l 461 53 q 271 -134 461 -134 l 271 -17 q 309 3 298 -17 q 319 64 319 22 l 319 559 q 304 613 319 593 q 264 632 288 632 q 199 597 233 632 l 199 0 l 56 0 l 56 825 l -43 825 z "},"ѓ":{"ha":394,"x_min":56,"x_max":380,"o":"m 237 972 l 380 972 l 253 803 l 167 803 l 237 972 m 56 0 l 56 741 l 374 741 l 374 623 l 199 623 l 199 0 l 56 0 z "},"є":{"ha":490,"x_min":45,"x_max":452,"o":"m 187 554 l 187 436 l 374 436 l 374 318 l 187 318 l 187 186 q 248 102 187 102 q 293 121 277 102 q 309 186 309 140 l 309 231 l 452 249 l 452 195 q 435 96 452 138 q 389 30 418 54 q 325 -5 360 6 q 248 -17 290 -17 q 171 -5 206 -17 q 107 30 136 6 q 61 96 78 54 q 45 195 45 138 l 45 546 q 61 645 45 603 q 107 711 78 687 q 171 746 136 734 q 248 757 206 757 q 325 746 290 757 q 389 711 360 734 q 435 645 418 687 q 452 546 452 603 l 452 521 l 309 503 l 309 554 q 248 639 309 639 q 187 554 187 639 z "},"ѕ":{"ha":464,"x_min":40,"x_max":416,"o":"m 222 467 l 345 367 q 416 240 416 309 l 416 150 q 361 29 416 75 q 228 -17 305 -17 q 94 28 146 -17 q 41 151 41 73 l 41 215 l 178 240 l 178 161 q 229 100 178 100 q 278 160 278 100 l 278 215 q 267 246 278 232 q 233 278 256 260 l 119 367 q 40 503 40 426 l 40 590 q 95 711 40 665 q 228 757 151 757 q 361 712 310 757 q 412 589 412 667 l 412 530 l 277 505 l 277 579 q 227 640 277 640 q 179 581 179 640 l 179 526 q 189 498 179 510 q 222 467 198 486 z "},"і":{"ha":254,"x_min":56,"x_max":199,"o":"m 56 741 l 199 741 l 199 0 l 56 0 l 56 741 m 56 972 l 199 972 l 199 825 l 56 825 l 56 972 z "},"ї":{"ha":254,"x_min":-20,"x_max":245,"o":"m -20 972 l 92 972 l 92 825 l -20 825 l -20 972 m 135 972 l 245 972 l 245 825 l 135 825 l 135 972 m 56 741 l 199 741 l 199 0 l 56 0 l 56 741 z "},"ј":{"ha":254,"x_min":-46,"x_max":199,"o":"m 199 741 l 199 -3 q 183 -101 199 -59 q 141 -165 168 -142 q 83 -199 114 -188 q 17 -210 52 -210 q -46 -201 -16 -210 l -46 -83 q -4 -90 -18 -90 q 56 -14 56 -90 l 56 741 l 199 741 m 56 972 l 199 972 l 199 825 l 56 825 l 56 972 z "},"љ":{"ha":785,"x_min":14,"x_max":747,"o":"m 89 741 l 478 741 l 478 453 q 591 492 529 492 q 702 447 656 492 q 747 313 747 401 l 747 183 q 694 50 747 100 q 543 0 641 0 l 335 0 l 335 623 l 227 623 l 215 211 q 164 50 212 100 q 14 0 115 0 l 14 119 q 61 136 48 119 q 75 193 74 153 l 89 741 m 478 345 l 478 118 l 545 118 q 589 134 573 118 q 604 180 604 150 l 604 314 q 589 359 604 344 q 549 374 574 374 q 478 345 514 374 z "},"њ":{"ha":769,"x_min":56,"x_max":732,"o":"m 56 0 l 56 741 l 199 741 l 199 449 l 321 449 l 321 741 l 463 741 l 463 453 q 575 492 511 492 q 686 447 641 492 q 732 313 732 401 l 732 183 q 679 50 732 100 q 528 0 625 0 l 321 0 l 321 330 l 199 330 l 199 0 l 56 0 m 463 345 l 463 118 l 528 118 q 572 134 556 118 q 589 180 589 150 l 589 314 q 532 374 589 374 q 463 345 496 374 z "},"ћ":{"ha":515,"x_min":-43,"x_max":461,"o":"m -43 825 l -43 909 l 56 909 l 56 972 q 199 1000 56 972 l 199 909 l 379 909 l 379 825 l 199 825 l 199 696 q 250 739 217 721 q 322 757 283 757 q 423 710 385 757 q 461 571 461 663 l 461 0 l 319 0 l 319 559 q 303 613 319 593 q 262 632 287 632 q 199 597 231 632 l 199 0 l 56 0 l 56 825 l -43 825 z "},"ќ":{"ha":507,"x_min":56,"x_max":496,"o":"m 290 972 l 433 972 l 306 803 l 220 803 l 290 972 m 496 741 l 363 419 q 415 370 397 401 q 443 283 433 338 l 496 0 l 347 0 l 306 249 q 286 296 300 280 q 239 313 271 313 l 199 313 l 199 0 l 56 0 l 56 741 l 199 741 l 199 441 l 244 441 l 342 741 l 496 741 z "},"ѝ":{"ha":547,"x_min":54,"x_max":492,"o":"m 119 972 l 261 972 l 334 803 l 245 803 l 119 972 m 350 0 l 350 494 l 210 0 l 54 0 l 54 741 l 196 741 l 196 237 l 335 741 l 492 741 l 492 0 l 350 0 z "},"ў":{"ha":475,"x_min":-12,"x_max":473,"o":"m -12 -78 q 61 -90 32 -90 q 135 -62 109 -90 q 176 40 160 -35 l 18 741 l 165 741 l 256 268 l 335 741 l 473 741 l 322 36 q 234 -145 296 -82 q 81 -208 172 -208 q -12 -192 39 -208 l -12 -78 m 248 806 q 110 972 110 806 l 195 972 q 205 908 195 929 q 248 886 216 886 q 288 908 277 886 q 298 972 298 930 l 383 972 q 248 806 383 806 z "},"џ":{"ha":516,"x_min":56,"x_max":461,"o":"m 318 118 l 318 741 l 461 741 l 461 0 l 322 0 l 317 -210 l 203 -210 l 196 0 l 56 0 l 56 741 l 199 741 l 199 118 l 318 118 z "},"Ѣ":{"ha":600,"x_min":14,"x_max":566,"o":"m 14 757 l 14 873 l 140 873 l 140 972 l 294 972 l 294 873 l 493 873 l 493 757 l 293 757 l 293 612 l 340 612 q 504 559 442 612 q 566 395 566 506 l 566 227 q 506 54 566 109 q 345 0 446 0 l 140 0 l 140 757 l 14 757 m 293 475 l 293 138 l 343 138 q 412 221 412 138 l 412 395 q 395 455 412 436 q 342 475 378 475 l 293 475 z "},"ѣ":{"ha":569,"x_min":14,"x_max":532,"o":"m 14 623 l 14 741 l 119 741 l 119 972 l 262 990 l 262 741 l 449 741 l 449 623 l 262 623 l 262 453 q 375 492 311 492 q 486 447 441 492 q 532 313 532 401 l 532 183 q 478 50 532 100 q 328 0 425 0 l 119 0 l 119 623 l 14 623 m 262 345 l 262 118 l 328 118 q 372 134 356 118 q 387 180 387 150 l 387 314 q 332 374 387 374 q 262 345 296 374 z "},"Ѳ":{"ha":532,"x_min":41,"x_max":490,"o":"m 41 229 l 41 743 q 101 931 41 873 q 265 989 161 989 q 353 976 314 989 q 424 935 393 963 q 473 859 456 907 q 490 743 490 810 l 490 229 q 473 114 490 163 q 424 37 456 65 q 353 -4 393 9 q 265 -17 314 -17 q 102 41 162 -17 q 41 229 41 100 m 338 229 l 338 412 l 195 412 l 195 229 q 212 152 195 174 q 265 129 229 129 q 320 152 302 129 q 338 229 338 174 m 195 743 l 195 551 l 338 551 l 338 743 q 320 820 338 798 q 265 843 302 843 q 212 820 229 843 q 195 743 195 798 z "},"ѳ":{"ha":496,"x_min":45,"x_max":452,"o":"m 248 -17 q 171 -5 206 -17 q 107 30 136 6 q 61 96 78 54 q 45 195 45 138 l 45 546 q 61 645 45 603 q 107 711 78 687 q 171 746 136 734 q 248 757 206 757 q 325 746 290 757 q 389 711 360 734 q 435 645 418 687 q 452 546 452 603 l 452 195 q 435 96 452 138 q 389 30 418 54 q 325 -5 360 6 q 248 -17 290 -17 m 309 186 l 309 325 l 187 325 l 187 186 q 248 102 187 102 q 293 121 277 102 q 309 186 309 140 m 187 554 l 187 443 l 309 443 l 309 554 q 248 639 309 639 q 187 554 187 639 z "},"Ѵ":{"ha":537,"x_min":9,"x_max":528,"o":"m 9 972 l 168 972 l 275 214 l 281 214 l 383 972 l 528 972 l 361 0 l 183 0 l 9 972 z "},"ѵ":{"ha":481,"x_min":9,"x_max":472,"o":"m 9 741 l 158 741 l 244 200 l 248 200 l 334 741 l 472 741 l 322 0 l 160 0 l 9 741 z "},"Ґ":{"ha":465,"x_min":60,"x_max":452,"o":"m 214 831 l 214 0 l 60 0 l 60 972 l 326 972 l 336 1097 l 452 1097 l 452 831 l 214 831 z "},"ґ":{"ha":430,"x_min":56,"x_max":410,"o":"m 199 623 l 199 0 l 56 0 l 56 741 l 285 741 l 293 897 l 407 897 l 410 623 l 199 623 z "},"Ẁ":{"ha":806,"x_min":14,"x_max":793,"o":"m 323 972 l 486 972 l 567 310 l 633 972 l 793 972 l 668 0 l 488 0 l 406 733 l 321 0 l 139 0 l 14 972 l 171 972 l 243 307 l 323 972 m 237 1213 l 379 1213 l 452 1043 l 364 1043 l 237 1213 z "},"ẁ":{"ha":715,"x_min":17,"x_max":699,"o":"m 289 741 l 427 741 l 493 285 l 496 285 l 554 741 l 699 741 l 570 0 l 425 0 l 359 481 l 357 481 l 292 0 l 146 0 l 17 741 l 163 741 l 225 285 l 228 285 l 289 741 m 189 972 l 330 972 l 403 803 l 315 803 l 189 972 z "},"Ẃ":{"ha":806,"x_min":14,"x_max":793,"o":"m 323 972 l 486 972 l 567 310 l 633 972 l 793 972 l 668 0 l 488 0 l 406 733 l 321 0 l 139 0 l 14 972 l 171 972 l 243 307 l 323 972 m 436 1213 l 579 1213 l 452 1043 l 366 1043 l 436 1213 z "},"ẃ":{"ha":715,"x_min":17,"x_max":699,"o":"m 289 741 l 427 741 l 493 285 l 496 285 l 554 741 l 699 741 l 570 0 l 425 0 l 359 481 l 357 481 l 292 0 l 146 0 l 17 741 l 163 741 l 225 285 l 228 285 l 289 741 m 385 972 l 528 972 l 400 803 l 314 803 l 385 972 z "},"Ẅ":{"ha":806,"x_min":14,"x_max":793,"o":"m 323 972 l 486 972 l 567 310 l 633 972 l 793 972 l 668 0 l 488 0 l 406 733 l 321 0 l 139 0 l 14 972 l 171 972 l 243 307 l 323 972 m 271 1203 l 382 1203 l 382 1055 l 271 1055 l 271 1203 m 425 1203 l 536 1203 l 536 1055 l 425 1055 l 425 1203 z "},"ẅ":{"ha":715,"x_min":17,"x_max":699,"o":"m 289 741 l 427 741 l 493 285 l 496 285 l 554 741 l 699 741 l 570 0 l 425 0 l 359 481 l 357 481 l 292 0 l 146 0 l 17 741 l 163 741 l 225 285 l 228 285 l 289 741 m 225 972 l 336 972 l 336 825 l 225 825 l 225 972 m 379 972 l 490 972 l 490 825 l 379 825 l 379 972 z "},"Ỳ":{"ha":529,"x_min":14,"x_max":515,"o":"m 275 529 l 370 972 l 515 972 l 340 355 l 340 0 l 189 0 l 189 355 l 14 972 l 176 972 l 275 529 m 113 1213 l 254 1213 l 326 1043 l 239 1043 l 113 1213 z "},"ỳ":{"ha":481,"x_min":-12,"x_max":473,"o":"m -12 -78 q 61 -90 32 -90 q 135 -62 109 -90 q 176 40 160 -35 l 18 741 l 165 741 l 256 268 l 335 741 l 473 741 l 322 36 q 234 -145 296 -82 q 81 -208 172 -208 q -12 -192 39 -208 l -12 -78 m 83 972 l 225 972 l 297 803 l 210 803 l 83 972 z "},"–":{"ha":454,"x_min":37,"x_max":416,"o":"m 416 521 l 416 403 l 37 403 l 37 521 l 416 521 z "},"—":{"ha":762,"x_min":37,"x_max":725,"o":"m 725 521 l 725 403 l 37 403 l 37 521 l 725 521 z "},"‘":{"ha":210,"x_min":11,"x_max":199,"o":"m 140 677 l 11 677 l 89 972 l 199 972 l 140 677 z "},"’":{"ha":210,"x_min":11,"x_max":199,"o":"m 69 972 l 199 972 l 121 677 l 11 677 l 69 972 z "},"‚":{"ha":239,"x_min":26,"x_max":214,"o":"m 85 97 l 214 97 l 136 -197 l 26 -197 l 85 97 z "},"“":{"ha":382,"x_min":11,"x_max":371,"o":"m 140 677 l 11 677 l 89 972 l 199 972 l 140 677 m 313 677 l 183 677 l 261 972 l 371 972 l 313 677 z "},"”":{"ha":416,"x_min":46,"x_max":406,"o":"m 104 972 l 233 972 l 155 677 l 46 677 l 104 972 m 277 972 l 406 972 l 328 677 l 218 677 l 277 972 z "},"„":{"ha":391,"x_min":11,"x_max":368,"o":"m 69 97 l 199 97 l 121 -197 l 11 -197 l 69 97 m 239 97 l 368 97 l 290 -197 l 180 -197 l 239 97 z "},"†":{"ha":378,"x_min":24,"x_max":355,"o":"m 355 836 l 355 722 l 250 722 l 250 368 l 131 368 l 131 722 l 24 722 l 24 836 l 131 836 l 131 972 l 250 972 l 250 836 l 355 836 z "},"‡":{"ha":378,"x_min":24,"x_max":355,"o":"m 355 616 l 355 504 l 250 504 l 250 368 l 131 368 l 131 504 l 24 504 l 24 616 l 131 616 l 131 722 l 24 722 l 24 836 l 131 836 l 131 972 l 250 972 l 250 836 l 355 836 l 355 722 l 250 722 l 250 616 l 355 616 z "},"•":{"ha":297,"x_min":41,"x_max":256,"o":"m 71 357 q 56 374 71 357 q 41 450 41 390 q 71 543 41 511 q 149 575 101 575 q 226 543 196 575 q 256 450 256 511 q 226 357 256 390 q 149 325 196 325 q 71 357 101 325 z "},"…":{"ha":615,"x_min":37,"x_max":579,"o":"m 37 154 l 171 154 l 171 0 l 37 0 l 37 154 m 240 154 l 375 154 l 375 0 l 240 0 l 240 154 m 444 154 l 579 154 l 579 0 l 444 0 l 444 154 z "},"‰":{"ha":1087,"x_min":52,"x_max":1036,"o":"m 942 113 l 942 399 q 911 444 942 444 q 887 434 895 444 q 879 399 879 425 l 879 113 q 911 66 879 66 q 942 113 942 66 m 786 121 l 786 390 q 819 496 786 465 q 911 528 851 528 q 1036 390 1036 528 l 1036 121 q 1002 16 1036 48 q 911 -17 968 -17 q 786 121 786 -17 m 522 972 l 619 972 l 248 0 l 151 0 l 522 972 m 207 574 l 207 860 q 175 905 207 905 q 152 896 159 905 q 144 860 144 886 l 144 574 q 175 528 144 528 q 207 574 207 528 m 52 582 l 52 851 q 175 989 52 989 q 267 957 232 989 q 301 851 301 924 l 301 582 q 267 477 301 509 q 175 444 232 444 q 52 582 52 444 m 624 113 l 624 399 q 591 444 624 444 q 568 434 576 444 q 561 399 561 425 l 561 113 q 591 66 561 66 q 624 113 624 66 m 468 121 l 468 390 q 591 528 468 528 q 684 495 649 528 q 718 390 718 463 l 718 121 q 683 16 718 48 q 591 -17 648 -17 q 468 121 468 -17 z "},"‹":{"ha":322,"x_min":21,"x_max":306,"o":"m 306 118 l 182 118 l 21 406 l 182 692 l 306 692 l 143 406 l 306 118 z "},"›":{"ha":322,"x_min":17,"x_max":301,"o":"m 140 118 l 17 118 l 179 406 l 17 692 l 140 692 l 301 406 l 140 118 z "},"⁄":{"ha":440,"x_min":-14,"x_max":454,"o":"m 357 972 l 454 972 l 82 0 l -14 0 l 357 972 z "},"€":{"ha":543,"x_min":9,"x_max":503,"o":"m 503 294 l 503 229 q 485 114 503 163 q 437 37 468 65 q 367 -4 406 9 q 279 -17 328 -17 q 56 229 56 -17 l 56 351 l 9 351 l 9 450 l 56 450 l 56 517 l 9 517 l 9 615 l 56 615 l 56 743 q 279 989 56 989 q 441 930 380 989 q 503 743 503 872 l 503 714 l 350 681 l 350 743 q 333 821 350 798 q 279 844 316 844 q 226 821 243 844 q 208 743 208 798 l 208 615 l 436 615 l 425 517 l 208 517 l 208 450 l 415 450 l 404 351 l 208 351 l 208 229 q 226 151 208 174 q 279 127 243 127 q 333 151 316 127 q 350 229 350 174 l 350 262 l 503 294 z "},"™":{"ha":464,"x_min":32,"x_max":431,"o":"m 32 972 l 189 972 l 189 908 l 143 908 l 143 705 l 81 705 l 81 908 l 32 908 l 32 972 m 196 705 l 215 972 l 285 972 l 313 814 l 343 972 l 412 972 l 431 705 l 371 705 l 364 851 l 339 726 l 286 726 l 261 851 l 257 705 l 196 705 z "},"∂":{"ha":488,"x_min":45,"x_max":444,"o":"m 244 -17 q 99 38 153 -17 q 45 214 45 92 l 45 436 q 93 582 45 532 q 208 632 140 632 q 317 589 269 632 l 317 631 q 273 777 317 713 q 127 889 229 842 l 192 989 q 259 961 227 978 q 327 913 292 943 q 387 845 361 883 q 428 752 412 808 q 444 633 444 697 l 444 214 q 428 106 444 152 q 384 34 412 60 q 321 -5 356 7 q 244 -17 286 -17 m 304 215 l 304 441 q 280 483 298 468 q 243 497 263 497 q 200 474 216 497 q 183 411 183 451 l 183 215 q 244 126 183 126 q 304 215 304 126 z "},"∏":{"ha":541,"x_min":54,"x_max":478,"o":"m 54 972 l 478 972 l 478 0 l 346 0 l 346 831 l 186 831 l 186 0 l 54 0 l 54 972 z "},"∑":{"ha":473,"x_min":37,"x_max":437,"o":"m 37 972 l 427 972 l 427 831 l 187 831 l 351 488 l 187 142 l 437 142 l 437 0 l 37 0 l 37 125 l 210 488 l 37 847 l 37 972 z "},"−":{"ha":459,"x_min":45,"x_max":416,"o":"m 416 525 l 416 397 l 45 397 l 45 525 l 416 525 z "},"√":{"ha":564,"x_min":28,"x_max":536,"o":"m 28 599 l 28 741 l 197 741 l 278 224 l 404 972 l 536 972 l 346 0 l 204 0 l 90 599 l 28 599 z "},"∞":{"ha":587,"x_min":39,"x_max":545,"o":"m 256 463 q 187 541 219 541 q 157 520 169 541 q 144 463 144 499 q 157 407 144 427 q 187 386 169 386 q 256 463 220 386 m 328 463 q 396 386 363 386 q 427 407 414 386 q 439 463 439 427 q 427 520 439 499 q 396 541 414 541 q 328 463 364 541 m 292 353 q 237 285 264 309 q 175 261 210 261 q 76 315 114 261 q 39 463 39 368 q 76 610 39 557 q 175 664 114 664 q 237 641 209 664 q 292 575 264 617 q 347 641 319 617 q 408 664 374 664 q 507 610 469 664 q 545 463 545 557 q 507 315 545 368 q 408 261 469 261 q 346 285 374 261 q 292 353 319 309 z "},"∫":{"ha":307,"x_min":-35,"x_max":307,"o":"m 62 -11 l 62 736 q 224 987 62 987 q 307 974 264 987 l 307 833 q 257 843 273 843 q 195 760 195 843 l 195 18 q 144 -155 195 -102 q 14 -208 94 -208 q -35 -201 -6 -208 l -35 -83 q 7 -90 -14 -90 q 49 -72 35 -90 q 62 -11 62 -54 z "},"≈":{"ha":509,"x_min":46,"x_max":464,"o":"m 153 485 l 46 513 q 83 623 53 581 q 163 665 113 665 q 244 646 197 665 q 309 627 292 627 q 319 628 314 627 q 327 631 323 629 q 334 636 330 632 q 339 643 337 640 q 343 652 340 645 q 347 662 346 659 q 351 674 348 665 q 355 686 354 683 l 464 653 q 451 603 456 622 q 434 561 445 585 q 411 525 424 538 q 379 504 399 513 q 334 494 359 494 q 257 515 301 494 q 197 536 213 536 q 153 485 159 536 m 153 244 l 46 272 q 82 381 53 339 q 163 424 112 424 q 244 405 197 424 q 309 386 292 386 q 319 387 314 386 q 327 390 323 389 q 334 395 330 391 q 339 402 337 399 q 343 411 340 404 q 347 421 346 418 q 351 433 348 424 q 355 446 354 442 l 464 411 q 427 309 441 332 q 334 254 397 254 q 257 274 301 254 q 197 294 213 294 q 153 244 159 294 z "},"≠":{"ha":459,"x_min":45,"x_max":416,"o":"m 416 404 l 416 277 l 216 277 l 158 109 l 64 109 l 123 277 l 45 277 l 45 404 l 165 404 l 207 519 l 45 519 l 45 647 l 250 647 l 309 814 l 403 814 l 343 647 l 416 647 l 416 519 l 301 519 l 260 404 l 416 404 z "},"≤":{"ha":459,"x_min":45,"x_max":416,"o":"m 416 127 l 416 0 l 45 0 l 45 127 l 416 127 m 416 736 l 416 589 l 168 461 l 416 334 l 416 187 l 45 399 l 45 524 l 416 736 z "},"≥":{"ha":459,"x_min":43,"x_max":415,"o":"m 43 0 l 43 127 l 415 127 l 415 0 l 43 0 m 43 589 l 43 736 l 415 524 l 415 399 l 43 187 l 43 334 l 292 461 l 43 589 z "},"◊":{"ha":493,"x_min":20,"x_max":473,"o":"m 20 486 l 189 972 l 307 972 l 473 486 l 307 0 l 189 0 l 20 486 m 248 167 l 340 486 l 248 806 l 153 486 l 248 167 z "},"ﬀ":{"ha":545,"x_min":-35,"x_max":562,"o":"m 214 623 l 214 0 q 198 -99 214 -57 q 154 -164 182 -141 q 95 -199 127 -188 q 26 -210 63 -210 q -35 -201 -5 -210 l -35 -83 q 8 -90 -6 -90 q 72 -14 72 -90 l 72 623 l 12 623 l 12 741 l 72 741 l 72 812 q 111 937 72 901 q 227 972 151 972 l 302 972 l 302 848 l 256 848 q 223 840 232 848 q 214 806 214 831 l 214 741 l 332 741 l 332 812 q 371 937 332 901 q 486 972 410 972 l 562 972 l 562 848 l 515 848 q 483 840 492 848 q 473 806 473 831 l 473 741 l 562 741 l 562 623 l 473 623 l 473 0 q 457 -99 473 -57 q 414 -164 441 -141 q 355 -199 387 -188 q 286 -210 323 -210 q 225 -201 255 -210 l 225 -83 q 268 -90 254 -90 q 332 -14 332 -90 l 332 623 l 214 623 z "},"ﬁ":{"ha":530,"x_min":-35,"x_max":475,"o":"m 214 623 l 214 0 q 198 -99 214 -57 q 154 -164 182 -141 q 95 -199 127 -188 q 26 -210 63 -210 q -35 -201 -5 -210 l -35 -83 q 8 -90 -6 -90 q 72 -14 72 -90 l 72 623 l 12 623 l 12 741 l 72 741 l 72 812 q 111 937 72 901 q 227 972 151 972 l 302 972 l 302 848 l 256 848 q 223 840 232 848 q 214 806 214 831 l 214 741 l 475 741 l 475 0 l 332 0 l 332 623 l 214 623 m 332 972 l 475 972 l 475 825 l 332 825 l 332 972 z "},"ﬂ":{"ha":530,"x_min":-35,"x_max":475,"o":"m 72 741 l 72 812 q 111 937 72 901 q 227 972 151 972 l 302 972 l 302 848 l 256 848 q 223 840 232 848 q 214 806 214 831 l 214 741 l 301 741 l 301 623 l 214 623 l 214 0 q 198 -99 214 -57 q 154 -164 182 -141 q 95 -199 127 -188 q 26 -210 63 -210 q -35 -201 -5 -210 l -35 -83 q 8 -90 -6 -90 q 72 -14 72 -90 l 72 623 l 12 623 l 12 741 l 72 741 m 475 0 l 332 0 l 332 972 l 475 1000 l 475 0 z "},"ﬃ":{"ha":790,"x_min":-35,"x_max":734,"o":"m 214 623 l 214 0 q 198 -99 214 -57 q 154 -164 182 -141 q 95 -199 127 -188 q 26 -210 63 -210 q -35 -201 -5 -210 l -35 -83 q 8 -90 -6 -90 q 72 -14 72 -90 l 72 623 l 12 623 l 12 741 l 72 741 l 72 812 q 111 937 72 901 q 227 972 151 972 l 302 972 l 302 848 l 256 848 q 223 840 232 848 q 214 806 214 831 l 214 741 l 332 741 l 332 812 q 371 937 332 901 q 486 972 410 972 l 562 972 l 562 848 l 515 848 q 483 840 492 848 q 473 806 473 831 l 473 741 l 734 741 l 734 0 l 591 0 l 591 623 l 473 623 l 473 0 q 457 -99 473 -57 q 414 -164 441 -141 q 355 -199 387 -188 q 286 -210 323 -210 q 225 -201 255 -210 l 225 -83 q 268 -90 254 -90 q 332 -14 332 -90 l 332 623 l 214 623 m 591 972 l 734 972 l 734 825 l 591 825 l 591 972 z "},"ﬄ":{"ha":790,"x_min":-35,"x_max":734,"o":"m 214 623 l 214 0 q 198 -99 214 -57 q 154 -164 182 -141 q 95 -199 127 -188 q 26 -210 63 -210 q -35 -201 -5 -210 l -35 -83 q 8 -90 -6 -90 q 72 -14 72 -90 l 72 623 l 12 623 l 12 741 l 72 741 l 72 812 q 111 937 72 901 q 227 972 151 972 l 302 972 l 302 848 l 256 848 q 223 840 232 848 q 214 806 214 831 l 214 741 l 332 741 l 332 812 q 371 937 332 901 q 486 972 410 972 l 562 972 l 562 848 l 515 848 q 483 840 492 848 q 473 806 473 831 l 473 741 l 561 741 l 561 623 l 473 623 l 473 0 q 457 -99 473 -57 q 414 -164 441 -141 q 355 -199 387 -188 q 286 -210 323 -210 q 225 -201 255 -210 l 225 -83 q 268 -90 254 -90 q 332 -14 332 -90 l 332 623 l 214 623 m 734 0 l 591 0 l 591 972 l 734 1000 l 734 0 z "}}}
